<svg id="Group_1" data-name="Group 1" xmlns="http://www.w3.org/2000/svg" xmlns:xlink="http://www.w3.org/1999/xlink" width="15.011" height="15.011" viewBox="0 0 15.011 15.011">
  <defs>
    <clipPath id="clip-path">
      <rect id="Rectangle_2684" data-name="Rectangle 2684" width="15.011" height="15.011" fill="none"/>
    </clipPath>
  </defs>
  <g id="Group_4048" data-name="Group 4048" clip-path="url(#clip-path)">
    <path id="Path_810" data-name="Path 810" d="M19.146,90.2a2.651,2.651,0,0,0-.253-.616l.253-.742-.569-.569-.743.253a2.65,2.65,0,0,0-.616-.253l-.348-.7h-.79l-.347.7a2.645,2.645,0,0,0-.616.253l-.742-.253-.569.569.253.742a2.674,2.674,0,0,0-.253.616l-.7.348v.79l.7.347a2.679,2.679,0,0,0,.253.616l-.253.742.553.553.742-.253a2.667,2.667,0,0,0,.616.253l.347.7h.79l.348-.7a2.673,2.673,0,0,0,.616-.253l.743.253.569-.553-.253-.742a3.063,3.063,0,0,0,.268-.616l.7-.347v-.79Zm-2.671,1.928a1.185,1.185,0,1,1,1.185-1.185,1.183,1.183,0,0,1-1.185,1.185" transform="translate(-7.106 -86.233)" fill="#d0dfe5"/>
    <path id="Path_811" data-name="Path 811" d="M12.15,100.443,12.4,99.7l-.569-.569-.742.253a2.961,2.961,0,0,0-.616-.253l-.348-.7h-.79l-.348.7a2.645,2.645,0,0,0-.616.253l-.742-.253-.553.553.237.742a2.96,2.96,0,0,0-.253.616l-.7.347v.79l.7.347a2.645,2.645,0,0,0,.253.616l-.237.742.553.553.742-.237a2.667,2.667,0,0,0,.616.253l.348.7h.79l.348-.7a2.667,2.667,0,0,0,.616-.253l.742.253.553-.569-.237-.727a2.641,2.641,0,0,0,.253-.616l.7-.347v-.79l-.7-.348a2.65,2.65,0,0,0-.253-.616m-2.417,2.543a1.185,1.185,0,1,1,1.185-1.185,1.183,1.183,0,0,1-1.185,1.185" transform="translate(-3.934 -91.342)" fill="#d0dfe5"/>
  </g>
</svg>
