<?xml version="1.0" standalone="no"?>
<!DOCTYPE svg PUBLIC "-//W3C//DTD SVG 1.1//EN" "http://www.w3.org/Graphics/SVG/1.1/DTD/svg11.dtd" >
<svg xmlns="http://www.w3.org/2000/svg" xmlns:xlink="http://www.w3.org/1999/xlink" version="1.1">
<metadata>
Created by FontForge 20170924 at Tue Apr 17 11:42:20 2001
 By www-data
1970 Albert-Jan Pool, published by Fontshop International for the FontFont library.
</metadata>
<defs>
<font id="DIN-RegularAlternate" horiz-adv-x="530" >
  <font-face 
    font-family="DIN-RegularAlternate"
    font-weight="400"
    font-stretch="normal"
    units-per-em="1000"
    panose-1="2 0 0 3 4 0 0 2 0 4"
    ascent="760"
    descent="-240"
    x-height="492"
    cap-height="712"
    bbox="-104 -226 1115 985"
    underline-thickness="51"
    underline-position="-164"
    unicode-range="U+0020-FB02"
  />
<missing-glyph horiz-adv-x="1000" 
 />
    <glyph glyph-name=".notdef" horiz-adv-x="1000" 
 />
    <glyph glyph-name="space" unicode=" " horiz-adv-x="249" 
 />
    <glyph glyph-name="exclam" unicode="!" horiz-adv-x="316" 
d="M224 47q0 -21 -14.5 -35.5t-35.5 -14.5t-36 14.5t-15 35.5t15 35.5t36 14.5t35.5 -14.5t14.5 -35.5zM203 200h-58l-13 512h84z" />
    <glyph glyph-name="quotedbl" unicode="&#x22;" horiz-adv-x="423" 
d="M88 542v170h79v-170h-79zM256 542v170h79v-170h-79z" />
    <glyph glyph-name="numbersign" unicode="#" horiz-adv-x="653" 
d="M273 432l-23 -141h159l23 141h-159zM506 432l-23 -141h89v-64h-99l-36 -227h-74l36 227h-160l-35 -227h-74l36 227h-89v64h100l23 141h-92v66h101l34 215h75l-35 -215h159l34 215h73l-34 -215h87v-66h-96z" />
    <glyph glyph-name="dollar" unicode="$" horiz-adv-x="596" 
d="M266 651q-63 -5 -96.5 -40t-33.5 -91q0 -54 32 -82q21 -17 46.5 -26t51.5 -13v252zM464 194q0 28 -9 51t-26 38q-25 22 -51.5 27t-58.5 10v-257q68 5 106.5 39t38.5 92zM540 196q0 -44 -15.5 -79t-44 -61t-69 -41.5t-89.5 -18.5v-110h-60v108q-71 3 -122 25t-98 69l52 52
q40 -40 80.5 -57.5t91.5 -19.5v265l-20 2q-41 4 -75 20t-55 34q-55 49 -55 133q0 85 53.5 138.5t147.5 61.5v89h60v-89q58 -3 101 -21.5t85 -55.5l-49 -49q-29 26 -61.5 41.5t-78.5 18.5v-259l31 -5q25 -4 44 -8.5t34 -10.5t27.5 -13.5t23.5 -17.5q29 -25 45 -60.5t16 -80.5
z" />
    <glyph glyph-name="percent" unicode="%" horiz-adv-x="833" 
d="M278 582q0 40 -18.5 63.5t-59.5 23.5q-42 0 -60 -23t-18 -64v-101q0 -41 18.5 -63.5t59.5 -22.5t59.5 23t18.5 63v101zM712 231q0 40 -18.5 63.5t-59.5 23.5q-42 0 -60 -23t-18 -64v-101q0 -41 18 -64t60 -23q41 0 59.5 23.5t18.5 63.5v101zM280 0h-60l334 712h60z
M335 479q0 -61 -38.5 -97.5t-96.5 -36.5q-59 0 -97 36.5t-38 97.5v105q0 62 38 98.5t97 36.5q58 0 96.5 -36.5t38.5 -98.5v-105v0zM769 128q0 -62 -38.5 -98.5t-96.5 -36.5q-59 0 -97 36.5t-38 98.5v105q0 62 38 98.5t97 36.5q58 0 96.5 -36.5t38.5 -98.5v-105v0z" />
    <glyph glyph-name="ampersand" unicode="&#x26;" horiz-adv-x="739" 
d="M395 568q0 36 -24 60.5t-60 24.5q-37 0 -59.5 -23.5t-22.5 -59.5q0 -25 14.5 -49.5t49.5 -67.5q6 4 15.5 10.5t15.5 10.5t7 5q25 17 44.5 37.5t19.5 51.5zM273 366q-23 -16 -45 -32t-39 -35t-27.5 -42.5t-10.5 -53.5q0 -32 11 -58t31 -45t47.5 -29t60.5 -10q40 0 81 14
t87 55zM576 0l-64 78q-11 -10 -29 -24.5t-44 -27.5t-60 -22.5t-77 -9.5q-52 0 -93.5 15t-71 42t-45 65t-15.5 85q0 40 13 71t34.5 56t49.5 45.5t57 40.5q-13 16 -26.5 33t-25 36t-18.5 40.5t-7 45.5q0 32 11.5 59t32.5 47t50 31.5t63 11.5q33 0 61.5 -11.5t49.5 -31.5
t32.5 -47.5t11.5 -59.5q0 -43 -22.5 -73.5t-56.5 -53.5q-1 -1 -10 -6.5t-22 -14.5t-21 -15l182 -219q11 16 18.5 32.5t12 35.5t7 42t2.5 53h72q-1 -68 -16 -122t-50 -96l109 -131h-95z" />
    <glyph glyph-name="quotesingle" unicode="'" horiz-adv-x="255" 
d="M88 542v170h79v-170h-79z" />
    <glyph glyph-name="parenleft" unicode="(" horiz-adv-x="298" 
d="M185 -94q-24 24 -41 42.5t-31 43.5t-17.5 51t-3.5 52v522q0 26 3.5 52t17.5 51t31 43.5t41 42.5l49 -49q-17 -17 -30.5 -31t-23.5 -34q-16 -32 -16 -81v-510q0 -49 16 -81q10 -20 23.5 -34t30.5 -31z" />
    <glyph glyph-name="parenright" unicode=")" horiz-adv-x="298" 
d="M205 95q0 -26 -3 -52t-17 -51t-31 -43.5t-41 -42.5l-51 51l31 31t24 34q8 15 11 35t3 44v510q0 24 -3 44t-11 35q-10 20 -24 34l-31 31l51 51q24 -24 41 -42.5t31 -43.5t17 -51t3 -52v-522v0z" />
    <glyph glyph-name="asterisk" unicode="*" horiz-adv-x="474" 
d="M379 423l-117 71l4 -137h-58l4 137l-116 -71l-29 49l120 65l-120 66l29 48l116 -71l-4 137h58l-4 -137l117 71l28 -48l-120 -66l120 -65z" />
    <glyph glyph-name="plus" unicode="+" horiz-adv-x="522" 
d="M295 234v-176h-67v176h-176v67h176v174h67v-174h175v-67h-175z" />
    <glyph glyph-name="comma" unicode="," horiz-adv-x="264" 
d="M88 -144v232h88v-153z" />
    <glyph glyph-name="hyphen" unicode="-" horiz-adv-x="426" 
d="M76 236v67h274v-67h-274z" />
    <glyph glyph-name="hyphen" unicode="&#xad;" horiz-adv-x="426" 
d="M76 236v67h274v-67h-274z" />
    <glyph glyph-name="period" unicode="." horiz-adv-x="272" 
d="M193 54q0 -23 -17 -40t-40 -17t-40 17t-17 40t17 40t40 17t40 -17t17 -40z" />
    <glyph glyph-name="slash" unicode="/" horiz-adv-x="355" 
d="M71 -74h-71l285 860h71z" />
    <glyph glyph-name="zero" unicode="0" horiz-adv-x="522" 
d="M384 403q0 59 -31.5 97.5t-91.5 38.5t-91.5 -38.5t-31.5 -97.5v-209q0 -59 31.5 -97.5t91.5 -38.5t91.5 38.5t31.5 97.5v209zM456 190q0 -44 -15 -80.5t-41 -62t-61.5 -39.5t-77.5 -14t-77.5 14t-61.5 39.5t-41 62t-15 80.5v217q0 44 15 80.5t41 62t61.5 39.5t77.5 14
t77.5 -14t61.5 -39.5t41 -62t15 -80.5v-217v0z" />
    <glyph glyph-name="one" unicode="1" horiz-adv-x="373" 
d="M184 0v517l-133 -117v82l133 115h72v-597h-72z" />
    <glyph glyph-name="two" unicode="2" horiz-adv-x="506" 
d="M41 0v64l251 242q32 31 50 64t18 70q0 25 -9 47t-25 38t-38.5 25t-49.5 9q-25 0 -47.5 -8.5t-39 -24.5t-26.5 -38t-10 -50h-72q0 40 14.5 74t41 58.5t62 38.5t77.5 14q44 0 79.5 -14t61 -38.5t39.5 -58t14 -71.5q0 -54 -26 -96t-66 -81l-204 -200h314v-64h-409z" />
    <glyph glyph-name="three" unicode="3" horiz-adv-x="515" 
d="M456 78q0 -49 -16.5 -86.5t-44.5 -63t-66.5 -38.5t-81.5 -13q-42 0 -79 11t-65 34.5t-45.5 59t-19.5 83.5h72q2 -33 14 -56.5t31 -38.5t42.5 -21.5t49.5 -6.5q29 0 54 9t43.5 26.5t29 43t10.5 58.5q0 65 -33.5 101.5t-106.5 36.5h-14v63h14q66 0 96.5 34.5t30.5 94.5
q0 64 -36 97t-88 33q-57 0 -90 -31.5t-38 -86.5h-72q3 43 19.5 77t43 57t61.5 35.5t76 12.5q43 0 79.5 -14t62 -39t40 -61t14.5 -79q0 -115 -96 -158q109 -41 109 -174z" />
    <glyph glyph-name="four" unicode="4" horiz-adv-x="541" 
d="M410 30v-153h-71v153h-303v66l264 533h77l-265 -533h227v205h71v-205h91v-66h-91z" />
    <glyph glyph-name="five" unicode="5" horiz-adv-x="517" 
d="M453 120q0 -54 -9.5 -102.5t-47.5 -86.5q-25 -25 -59.5 -39t-82.5 -14q-47 0 -83.5 14t-59.5 37q-23 24 -35 55t-15 69h72q7 -54 35.5 -82.5t85.5 -28.5q55 0 88 33q14 14 22 31t11.5 36t4.5 39t1 39q0 33 -4.5 64t-17 55t-36 39t-62.5 15q-47 0 -77 -19t-41 -51h-65v374
h360v-64h-295v-226q21 23 53.5 36t74.5 13q40 0 71 -12t52 -33q19 -20 31 -42.5t18 -47.5t8 -50.5t2 -50.5z" />
    <glyph glyph-name="six" unicode="6" horiz-adv-x="527" 
d="M404 216q0 33 -9 62.5t-27 51.5t-44.5 35t-60.5 13q-64 0 -102 -44t-38 -118q0 -73 38 -117t102 -44t102.5 44t38.5 117zM476 220q0 -49 -15 -90.5t-42.5 -71.5t-66.5 -47t-88 -17t-88.5 16t-67 44.5t-42.5 69t-15 90.5q0 44 12.5 87.5t39.5 91.5l190 335h76l-180 -309
q22 11 41.5 15t45.5 4q45 0 82 -16t63.5 -45t40.5 -69t14 -88z" />
    <glyph glyph-name="seven" unicode="7" horiz-adv-x="502" 
d="M176 -123h-76l290 656h-274v-112h-71v176h422v-64z" />
    <glyph glyph-name="eight" unicode="8" horiz-adv-x="538" 
d="M394 526q0 28 -9.5 51.5t-26 40.5t-39.5 26.5t-50 9.5t-50 -9.5t-39.5 -26.5t-26 -40.5t-9.5 -51.5q0 -57 35 -92t90 -35t90 35t35 92zM407 197q0 30 -10.5 55t-29 44t-44 29.5t-54.5 10.5t-54.5 -10.5t-44 -29.5t-29 -44t-10.5 -55t10.5 -55t29 -44t44 -29.5t54.5 -10.5
t54.5 10.5t44 29.5t29 44t10.5 55zM479 196q0 -45 -16 -82t-44.5 -64t-67 -41.5t-82.5 -14.5t-82.5 14.5t-67 41.5t-44.5 64t-16 82q0 63 31 105t76 68q-42 24 -68 63t-26 95q0 42 15 77t41 60.5t62.5 39.5t78.5 14t78.5 -14t62.5 -39.5t41 -60.5t15 -77q0 -56 -26 -95
t-68 -63q45 -26 76 -68t31 -105z" />
    <glyph glyph-name="nine" unicode="9" horiz-adv-x="527" 
d="M404 381q0 73 -38 117t-102 44t-102.5 -44t-38.5 -117q0 -33 9 -62.5t27 -51.5t44 -35t61 -13q64 0 102 44t38 118zM476 383q0 -44 -12.5 -87.5t-39.5 -91.5l-190 -335h-76l180 309q-22 -11 -41.5 -15t-45.5 -4q-45 0 -82 16t-63.5 45t-40.5 69t-14 88q0 49 15 90.5
t42.5 71.5t66.5 47t88 17t88.5 -16t67 -44.5t42.5 -69.5t15 -90z" />
    <glyph glyph-name="colon" unicode=":" horiz-adv-x="299" 
d="M220 54q0 -23 -17 -40t-40 -17t-40 17t-17 40t17 40t40 17t40 -17t17 -40zM220 345q0 -23 -17 -40t-40 -17t-40 17t-17 40t17 40t40 17t40 -17t17 -40z" />
    <glyph glyph-name="semicolon" unicode=";" horiz-adv-x="297" 
d="M220 345q0 -23 -17 -40t-40 -17t-40 17t-17 40t17 40t40 17t40 -17t17 -40zM119 -144v232h88v-153z" />
    <glyph glyph-name="semicolon" unicode="&#x37e;" horiz-adv-x="297" 
d="M220 345q0 -23 -17 -40t-40 -17t-40 17t-17 40t17 40t40 17t40 -17t17 -40zM119 -144v232h88v-153z" />
    <glyph glyph-name="less" unicode="&#x3c;" horiz-adv-x="1027" 
d="M56 269l399 399h94l-365 -364h789v-70h-789l365 -364h-94z" />
    <glyph glyph-name="equal" unicode="=" horiz-adv-x="522" 
d="M52 151v66h418v-66h-418zM52 320v67h418v-67h-418z" />
    <glyph glyph-name="greater" unicode="&#x3e;" horiz-adv-x="1027" 
d="M845 234h-789v70h789l-365 364h94l399 -399l-399 -399h-94z" />
    <glyph glyph-name="question" unicode="?" horiz-adv-x="497" 
d="M319 47q0 -21 -14.5 -35.5t-35.5 -14.5t-35.5 14.5t-14.5 35.5t14.5 35.5t35.5 14.5t35.5 -14.5t14.5 -35.5zM451 536q0 -35 -12.5 -63.5t-32.5 -57.5l-82 -118q-9 -14 -13.5 -30t-4.5 -28v-39h-72v40q0 29 7.5 50t23.5 44l81 117q14 21 23.5 40t9.5 45q0 51 -32 84.5
t-83 33.5q-27 0 -48.5 -9.5t-36.5 -26t-23 -38t-8 -45.5h-72q0 38 14 71.5t39.5 58t59.5 39t75 14.5q39 0 73.5 -13.5t59.5 -37.5t39.5 -57.5t14.5 -73.5z" />
    <glyph glyph-name="at" unicode="@" horiz-adv-x="713" 
d="M571 238q0 35 -4 68t-17 58.5t-37 41t-63 15.5t-63 -15.5t-37 -41t-17 -58.5t-4 -68t4 -68t17 -58.5t37 -41t63 -15.5t63 15.5t37 41t17 58.5t4 68zM572 0v55q-25 -32 -56.5 -47t-77.5 -15q-42 0 -77.5 16t-58.5 45q-26 31 -35 73.5t-9 110.5q0 66 9 109t32 74
q22 29 58 45.5t80 16.5t76 -15.5t58 -47.5v78q0 40 -8.5 65.5t-30.5 48.5q-21 21 -48.5 30.5t-62.5 9.5h-130q-35 0 -61 -9t-48 -31q-23 -23 -31.5 -47.5t-8.5 -66.5v-337q0 -24 2.5 -41t9 -30.5t17.5 -25t28 -24.5l-49 -49q-23 17 -38 33t-24 35t-12.5 43.5t-3.5 57.5v336
q0 104 56 161q55 56 154 56h148q98 0 154 -56q57 -57 57 -161v-497z" />
    <glyph glyph-name="A" unicode="A" horiz-adv-x="611" 
d="M307 603l-134 -376h266zM518 0l-57 161h-311l-57 -161h-81l262 712h64l261 -712h-81z" />
    <glyph glyph-name="B" unicode="B" horiz-adv-x="668" 
d="M505 521q0 32 -11 55t-29.5 38t-44 22.5t-55.5 7.5h-186v-247h186q30 0 55.5 7.5t44 22.5t29.5 38.5t11 55.5zM516 199q0 60 -38.5 95t-104.5 35h-194v-261h194q66 0 104.5 35.5t38.5 95.5zM592 197q0 -48 -15.5 -85t-43.5 -62t-67 -37.5t-86 -12.5h-277v712h268
q46 0 85 -13t66.5 -37.5t43 -59.5t15.5 -80q0 -57 -30 -98t-75 -58q51 -19 83.5 -62t32.5 -107z" />
    <glyph glyph-name="C" unicode="C" horiz-adv-x="587" 
d="M525 81q-42 -40 -88 -63.5t-112 -23.5q-53 0 -99.5 19t-82.5 55q-25 25 -38.5 52t-20 60.5t-7.5 76t-1 99.5t1 99.5t7.5 76t20 60.5t38.5 52q36 36 82.5 55t99.5 19q66 0 112 -23.5t88 -63.5l-51 -51q-33 32 -65.5 51t-83.5 19q-35 0 -67.5 -13t-55.5 -37
q-17 -17 -27 -36.5t-15 -47t-6.5 -66t-1.5 -94.5t1.5 -94.5t6.5 -66t15 -47t27 -36.5q23 -24 55.5 -37t67.5 -13q51 0 83.5 19t65.5 51l51 -51v0z" />
    <glyph glyph-name="D" unicode="D" horiz-adv-x="673" 
d="M521 364q0 33 -0.5 65.5t-4.5 62t-14 55.5t-28 45q-28 29 -63 40.5t-77 11.5h-155v-576h155q42 0 77 11.5t63 40.5q18 19 28 47.5t14 61t4.5 67.5t0.5 68zM597 364q0 -37 -0.5 -78t-6.5 -80.5t-20.5 -75.5t-42.5 -64q-32 -32 -78 -49t-102 -17h-244v712h244q56 0 102 -17
t78 -49q28 -28 42.5 -61.5t20.5 -70t6.5 -75t0.5 -75.5z" />
    <glyph glyph-name="E" unicode="E" horiz-adv-x="600" 
d="M103 0v712h442v-68h-366v-251h312v-68h-312v-257h366v-68h-442z" />
    <glyph glyph-name="F" unicode="F" horiz-adv-x="580" 
d="M179 644v-262h312v-68h-312v-314h-76v712h442v-68h-366z" />
    <glyph glyph-name="G" unicode="G" horiz-adv-x="645" 
d="M574 260q0 -62 -14 -105.5t-47 -78.5q-36 -39 -84 -60.5t-104 -21.5q-53 0 -99.5 19t-82.5 55q-25 25 -38.5 52t-20 60.5t-7.5 76t-1 99.5t1 99.5t7.5 76t20 60.5t38.5 52q74 74 182 74q70 0 118 -25t95 -72l-51 -51q-19 19 -36.5 33.5t-36 25t-40.5 16t-49 5.5
q-35 0 -67.5 -13.5t-55.5 -37.5q-17 -17 -27 -36.5t-15 -46.5t-6.5 -65.5t-1.5 -94.5t1.5 -94.5t6.5 -66t15 -47t27 -36.5q23 -24 55.5 -37t67.5 -13q39 0 74 15.5t60 45.5q22 26 30.5 57.5t8.5 72.5v53h-173v67h249v-113v0z" />
    <glyph glyph-name="H" unicode="H" horiz-adv-x="696" 
d="M517 0v325h-338v-325h-76v712h76v-319h338v319h76v-712h-76z" />
    <glyph glyph-name="I" unicode="I" horiz-adv-x="282" 
d="M103 0v712h76v-712h-76z" />
    <glyph glyph-name="J" unicode="J" horiz-adv-x="501" 
d="M408 216q0 -51 -16.5 -92.5t-46 -70t-70 -44t-89.5 -15.5q-51 0 -90.5 15.5t-72.5 48.5l51 51q19 -20 43.5 -33.5t68.5 -13.5q70 0 108 42.5t38 121.5v486h76v-496v0z" />
    <glyph glyph-name="K" unicode="K" horiz-adv-x="650" 
d="M546 0l-217 379l-150 -180v-199h-76v712h76v-409l332 409h93l-224 -275l256 -437h-90z" />
    <glyph glyph-name="L" unicode="L" horiz-adv-x="573" 
d="M103 0v712h76v-644h364v-68h-440z" />
    <glyph glyph-name="M" unicode="M" horiz-adv-x="816" 
d="M637 0v541l-195 -429h-65l-198 429v-541h-76v712h76l232 -505l226 505h76v-712h-76z" />
    <glyph glyph-name="N" unicode="N" horiz-adv-x="732" 
d="M557 0l-378 571v-571h-76v712h72l378 -569v569h76v-712h-72z" />
    <glyph glyph-name="O" unicode="O" horiz-adv-x="650" 
d="M498 356q0 56 -1.5 94.5t-6.5 65.5t-15 46.5t-27 36.5q-23 24 -55.5 37.5t-67.5 13.5t-67.5 -13.5t-55.5 -37.5q-17 -17 -27 -36.5t-15 -46.5t-6.5 -65.5t-1.5 -94.5t1.5 -94.5t6.5 -65.5t15 -46.5t27 -36.5q23 -24 55.5 -37.5t67.5 -13.5t67.5 13.5t55.5 37.5
q17 17 27 36.5t15 46.5t6.5 65.5t1.5 94.5zM574 356q0 -57 -1 -99.5t-7.5 -76t-20 -60.5t-38.5 -52q-36 -36 -82 -55t-100 -19q-108 0 -182 74q-25 25 -38.5 52t-20 60.5t-7.5 76t-1 99.5t1 99.5t7.5 76t20 60.5t38.5 52q74 74 182 74t182 -74q25 -25 38.5 -52t20 -60.5
t7.5 -76t1 -99.5z" />
    <glyph glyph-name="P" unicode="P" horiz-adv-x="630" 
d="M512 503q0 71 -42 106t-109 35h-182v-283h182q67 0 109 35.5t42 106.5zM588 503q0 -48 -16 -87t-45 -66t-69.5 -42t-89.5 -15h-189v-293h-76v712h265q48 0 88.5 -14.5t70 -42t45.5 -66t16 -86.5z" />
    <glyph glyph-name="Q" unicode="Q" horiz-adv-x="649" 
d="M498 356q0 56 -1.5 94.5t-6.5 65.5t-15 46.5t-27 36.5q-23 24 -55.5 37.5t-67.5 13.5t-67.5 -13.5t-55.5 -37.5q-17 -17 -27 -36.5t-15 -46.5t-6.5 -65.5t-1.5 -94.5t1.5 -94.5t6.5 -65.5t15 -46.5t27 -36.5q23 -24 55.5 -37.5t67.5 -13.5q56 0 101 34l-90 90l46 46
l87 -87q10 16 15.5 35t8.5 43.5t4 57t1 75.5zM557 -35l-79 79q-65 -50 -153 -50q-108 0 -182 74q-25 25 -38.5 52t-20 60.5t-7.5 76t-1 99.5t1 99.5t7.5 76t20 60.5t38.5 52q74 74 182 74t182 -74q25 -25 38.5 -52t20 -60.5t7.5 -76t1 -99.5q0 -51 -1 -90.5t-5.5 -71
t-14.5 -57t-28 -48.5l78 -78z" />
    <glyph glyph-name="R" unicode="R" horiz-adv-x="656" 
d="M511 513q0 66 -39.5 98.5t-102.5 32.5h-190v-261h190q63 0 102.5 32t39.5 98zM512 0l-162 316h-171v-316h-76v712h273q46 0 85 -13.5t67 -39t43.5 -62.5t15.5 -83q0 -78 -43 -127.5t-112 -63.5l169 -323h-89z" />
    <glyph glyph-name="S" unicode="S" horiz-adv-x="588" 
d="M532 196q0 -47 -17.5 -84.5t-50 -63.5t-78 -40t-100.5 -14q-80 0 -137 22t-107 72l52 52q44 -44 89 -61t105 -17q78 0 123 34.5t45 97.5q0 28 -8.5 51t-25.5 38t-35.5 21.5t-57.5 12.5l-83 13q-85 14 -131 54q-54 48 -54 133q0 45 16 82.5t45.5 63.5t71.5 40.5t95 14.5
q68 0 117 -18.5t95 -59.5l-49 -49q-33 30 -71 45.5t-95 15.5q-72 0 -111 -36t-39 -96q0 -54 32 -82q17 -14 42.5 -24t53.5 -15l78 -12q25 -4 44.5 -8.5t34.5 -10.5t27.5 -13.5t23.5 -17.5q60 -51 60 -141z" />
    <glyph glyph-name="T" unicode="T" horiz-adv-x="548" 
d="M312 644v-644h-76v644h-206v68h488v-68h-206z" />
    <glyph glyph-name="U" unicode="U" horiz-adv-x="683" 
d="M590 235q0 -53 -18.5 -97.5t-52 -76.5t-79 -49.5t-99.5 -17.5t-99.5 17.5t-78.5 49.5t-51.5 76.5t-18.5 97.5v477h76v-471q0 -41 12 -74t34.5 -56t54.5 -36t71 -13t71 13t54.5 36t35 56t12.5 74v471h76v-477v0z" />
    <glyph glyph-name="V" unicode="V" horiz-adv-x="546" 
d="M304 0h-62l-234 712h80l185 -576l185 576h80z" />
    <glyph glyph-name="W" unicode="W" horiz-adv-x="854" 
d="M656 0h-71l-158 570l-158 -570h-71l-182 712h81l139 -574l157 574h68l157 -574l139 574h81z" />
    <glyph glyph-name="X" unicode="X" horiz-adv-x="551" 
d="M448 0l-173 299l-174 -299h-86l218 365l-204 347h88l158 -281l158 281h88l-205 -347l220 -365h-88z" />
    <glyph glyph-name="Y" unicode="Y" horiz-adv-x="514" 
d="M296 294v-294h-76v294l-212 418h82l168 -341l166 341h82z" />
    <glyph glyph-name="Z" unicode="Z" horiz-adv-x="556" 
d="M57 0v72l356 572h-342v68h428v-64l-359 -580h359v-68h-442z" />
    <glyph glyph-name="bracketleft" unicode="[" horiz-adv-x="313" 
d="M92 -74v860h177v-64h-105v-732h105v-64h-177z" />
    <glyph glyph-name="backslash" unicode="\" horiz-adv-x="355" 
d="M284 -74l-284 857h71l284 -857h-71z" />
    <glyph glyph-name="bracketright" unicode="]" horiz-adv-x="313" 
d="M44 -74v62h108v736h-108v62h177v-860h-177z" />
    <glyph glyph-name="asciicircum" unicode="^" horiz-adv-x="537" 
d="M391 413l-122 228l-123 -228h-74l164 305h66l163 -305h-74z" />
    <glyph glyph-name="underscore" unicode="_" horiz-adv-x="537" 
d="M0 -165v51h537v-51h-537z" />
    <glyph glyph-name="grave" unicode="`" horiz-adv-x="500" 
d="M233 594l-108 153h86l88 -153h-66z" />
    <glyph glyph-name="a" unicode="a" horiz-adv-x="526" 
d="M369 227h-138q-110 0 -110 -87q0 -43 27 -63.5t86 -20.5q32 0 59.5 5t50.5 28q25 24 25 85v53zM369 0v47q-30 -30 -61.5 -41.5t-80.5 -11.5q-51 0 -83.5 10.5t-55.5 34.5q-18 18 -27.5 44.5t-9.5 55.5q0 65 43.5 103.5t126.5 38.5h148v47q0 54 -29 81t-97 27
q-48 0 -75 -12.5t-49 -43.5l-49 45q33 43 73.5 58t100.5 15q100 0 148.5 -41.5t48.5 -122.5v-334h-72z" />
    <glyph glyph-name="b" unicode="b" horiz-adv-x="545" 
d="M409 246q0 36 -4 70t-17 60t-37.5 42t-64.5 16t-64.5 -16t-37.5 -42t-17.5 -60t-4.5 -70t4.5 -70t17.5 -60t37.5 -42t64.5 -16t64.5 16t37.5 42t17 60t4 70zM481 246q0 -29 -2.5 -58t-9 -56.5t-18 -51.5t-30.5 -43q-20 -20 -51 -31.5t-69 -11.5q-41 0 -75 13t-64 52v-59
h-72v712h72v-277q30 38 64 50.5t75 12.5q38 0 69 -11.5t51 -31.5q19 -19 30.5 -43t18 -51.5t9 -56.5t2.5 -58z" />
    <glyph glyph-name="c" unicode="c" horiz-adv-x="490" 
d="M443 67q-38 -41 -74.5 -57t-87.5 -16q-47 0 -86.5 15.5t-69 47t-46 79t-16.5 110.5t16.5 110t46 78.5t69 47.5t86.5 16q51 0 87.5 -16t74.5 -57l-49 -46q-28 31 -53 43t-60 12q-36 0 -65 -14t-49 -42q-17 -24 -24.5 -54.5t-7.5 -77.5t7.5 -77.5t24.5 -54.5q20 -28 49 -42
t65 -14q35 0 60 12.5t53 43.5l49 -47v0z" />
    <glyph glyph-name="d" unicode="d" horiz-adv-x="545" 
d="M383 246q0 36 -4 70t-17 60t-37.5 42t-64.5 16t-64.5 -16t-37.5 -42t-17.5 -60t-4.5 -70t4.5 -70t17.5 -60t37.5 -42t64.5 -16t64.5 16t37.5 42t17 60t4 70zM384 0v59q-30 -39 -64.5 -52t-75.5 -13q-38 0 -69 11.5t-51 31.5q-19 19 -30.5 43t-18 51.5t-9 56.5t-2.5 58
t2.5 58t9 56.5t18 51.5t30.5 43q20 20 51 31.5t69 11.5q41 0 75 -12.5t64 -50.5v277h72v-712h-71z" />
    <glyph glyph-name="e" unicode="e" 
d="M395 281q-1 15 -2 26t-2.5 20t-4 17.5t-6.5 18.5q-14 34 -45 54t-70 20t-70 -20t-45 -54q-8 -20 -11 -36t-4 -46h260v0zM135 227q0 -81 37 -125.5t108 -44.5q43 0 71.5 13.5t57.5 42.5l49 -43q-19 -19 -37.5 -33t-39.5 -23.5t-46.5 -14.5t-56.5 -5q-49 0 -88.5 15
t-67.5 46t-43.5 78.5t-15.5 112.5q0 120 54 186t148 66q96 0 149 -64t53 -174v-33h-332z" />
    <glyph glyph-name="f" unicode="f" horiz-adv-x="314" 
d="M178 434v-434h-72v434h-63v55h63v93q0 27 7.5 51t23.5 42t39 28.5t55 10.5h52v-62h-39q-35 0 -50.5 -19t-15.5 -53v-91h105v-55h-105z" />
    <glyph glyph-name="g" unicode="g" horiz-adv-x="543" 
d="M381 250q0 34 -4 67.5t-17 59t-37 41.5t-64 16t-64.5 -16t-37.5 -41.5t-17 -59t-4 -67.5q0 -35 4 -68t17 -58.5t37.5 -41.5t64.5 -16t64 16t37 41.5t17 58.5t4 68zM453 -15q0 -46 -14 -84.5t-40 -66.5t-64.5 -44t-86.5 -16q-28 0 -50 3.5t-41.5 11.5t-38 20.5t-37.5 30.5
l47 46q13 -12 25.5 -21t26 -15.5t29.5 -9.5t37 -3q36 0 61.5 12t42 32t24 47.5t7.5 59.5v77q-30 -38 -64 -51t-74 -13q-38 0 -68.5 12t-50.5 32q-37 37 -48.5 91t-11.5 114t11.5 114t48.5 91q20 20 51 31.5t69 11.5q41 0 74.5 -12.5t63.5 -51.5v58h71v-507v0z" />
    <glyph glyph-name="h" unicode="h" horiz-adv-x="562" 
d="M405 0v304q0 65 -32 97.5t-88 32.5t-89.5 -33t-33.5 -97v-304h-72v712h72v-274q53 60 138 60q84 0 130.5 -49t46.5 -133v-316h-72z" />
    <glyph glyph-name="i" unicode="i" horiz-adv-x="253" 
d="M176 677q0 -20 -15 -34.5t-35 -14.5t-34.5 14.5t-14.5 34.5t14.5 34.5t34.5 14.5t35 -14.5t15 -34.5zM90 0v492h72v-492h-72z" />
    <glyph glyph-name="j" unicode="j" horiz-adv-x="253" 
d="M176 677q0 -20 -15 -34.5t-35 -14.5t-34.5 14.5t-14.5 34.5t14.5 34.5t34.5 14.5t35 -14.5t15 -34.5zM162 -89q0 -28 -7.5 -52t-23 -42t-39 -28t-55.5 -10h-52v63h39q38 0 52 18t14 54v578h72v-581v0z" />
    <glyph glyph-name="k" unicode="k" horiz-adv-x="536" 
d="M414 0l-156 252l-96 -110v-142h-72v712h72v-476l222 256h90l-167 -188l196 -304h-89z" />
    <glyph glyph-name="l" unicode="l" horiz-adv-x="297" 
d="M213 0q-65 0 -95 37.5t-30 93.5v581h72v-578q0 -36 14 -54t52 -18h39v-62h-52z" />
    <glyph glyph-name="m" unicode="m" horiz-adv-x="879" 
d="M722 0v303q0 66 -32.5 98.5t-88.5 32.5q-54 0 -88.5 -32t-34.5 -91v-311h-72v303q0 66 -32.5 98.5t-88.5 32.5t-89.5 -33t-33.5 -98v-303h-72v492h72v-54q26 30 61.5 45t77.5 15q51 0 89.5 -20.5t61.5 -61.5q58 82 162 82q40 0 72 -12t55 -34q53 -51 53 -137v-315h-72z
" />
    <glyph glyph-name="n" unicode="n" horiz-adv-x="562" 
d="M405 0v303q0 66 -32.5 98.5t-88.5 32.5t-89 -33t-33 -98v-303h-72v492h72v-54q26 30 61 45t77 15q80 0 126 -46q51 -50 51 -137v-315h-72z" />
    <glyph glyph-name="o" unicode="o" 
d="M394 246q0 21 -1 42t-5 41t-12 37.5t-21 31.5q-36 36 -90 36q-53 0 -89 -36q-14 -14 -21.5 -31.5t-12 -37.5t-5.5 -41t-1 -42t1 -42t5.5 -41t12 -38t21.5 -31q36 -36 89 -36q54 0 90 36q13 13 21 31t12 38t5 41t1 42zM466 246q0 -57 -11.5 -107.5t-48.5 -88.5
q-26 -26 -61 -41t-80 -15t-80 15t-61 41q-19 19 -30.5 41.5t-18 47t-9 51.5t-2.5 56q0 28 2.5 55.5t9 52t18 47t30.5 41.5q26 26 61 41t80 15t80 -15t61 -41q37 -38 48.5 -88.5t11.5 -107.5z" />
    <glyph glyph-name="p" unicode="p" horiz-adv-x="545" 
d="M409 246q0 36 -4 70t-17 60t-37.5 42t-64.5 16t-64.5 -16t-37.5 -42t-17.5 -60t-4.5 -70t4.5 -70t17.5 -60t37.5 -42t64.5 -16t64.5 16t37.5 42t17 60t4 70zM481 246q0 -29 -2.5 -58t-9 -56.5t-18 -51.5t-30.5 -43q-20 -20 -51 -31.5t-69 -11.5q-41 0 -75 13t-64 51v-278
h-72v712h72v-58q30 39 64 51.5t75 12.5q38 0 69 -11.5t51 -31.5q19 -19 30.5 -43t18 -51.5t9 -56.5t2.5 -58z" />
    <glyph glyph-name="q" unicode="q" horiz-adv-x="545" 
d="M383 246q0 36 -4 70t-17 60t-37.5 42t-64.5 16t-64.5 -16t-37.5 -42t-17.5 -60t-4.5 -70t4.5 -70t17.5 -60t37.5 -42t64.5 -16t64.5 16t37.5 42t17 60t4 70zM383 -220v278q-30 -38 -64 -51t-75 -13q-38 0 -69 11.5t-51 31.5q-19 19 -30.5 43t-18 51.5t-9 56.5t-2.5 58
t2.5 58t9 56.5t18 51.5t30.5 43q20 20 51 31.5t69 11.5q41 0 75.5 -12.5t64.5 -51.5v58h71v-712h-72z" />
    <glyph glyph-name="r" unicode="r" horiz-adv-x="421" 
d="M365 398q-20 20 -38 28t-47 8q-27 0 -49 -10t-37 -28t-23.5 -42t-8.5 -52v-302h-72v492h72v-60q20 31 57.5 48.5t80.5 17.5q35 0 63.5 -10t54.5 -36z" />
    <glyph glyph-name="s" unicode="s" horiz-adv-x="496" 
d="M445 144q0 -36 -14.5 -63.5t-41 -47t-63 -29.5t-81.5 -10q-63 0 -112 16t-90 55l48 48q29 -31 68 -44t85 -13q61 0 96 21.5t35 65.5q0 32 -19.5 50t-62.5 22l-81 7q-72 6 -109.5 38.5t-37.5 93.5q0 34 13.5 60.5t37.5 45t57.5 28.5t72.5 10q53 0 98.5 -13t78.5 -40
l-47 -47q-26 20 -59.5 29.5t-71.5 9.5q-54 0 -82 -21.5t-28 -59.5q0 -32 19.5 -50t66.5 -22l79 -7q32 -3 59 -11t46 -24t29.5 -40t10.5 -58z" />
    <glyph glyph-name="t" unicode="t" horiz-adv-x="332" 
d="M228 0q-32 0 -55.5 10.5t-39 28.5t-23.5 42t-8 51v302h-62v55h62v154h72v-154h105v-55h-105v-300q0 -34 16 -53t51 -19h38v-62h-51z" />
    <glyph glyph-name="u" unicode="u" horiz-adv-x="562" 
d="M401 0v55q-26 -30 -61.5 -45.5t-77.5 -15.5q-81 0 -127 46q-26 26 -38 60.5t-12 77.5v314h72v-303q0 -66 32 -98.5t88 -32.5t89.5 33t33.5 98v303h72v-492h-71z" />
    <glyph glyph-name="v" unicode="v" horiz-adv-x="447" 
d="M255 0h-64l-180 492h78l134 -395l135 395h78z" />
    <glyph glyph-name="w" unicode="w" horiz-adv-x="724" 
d="M558 0h-67l-129 382l-128 -382h-67l-156 492h78l113 -395l129 395h62l130 -395l112 395h78z" />
    <glyph glyph-name="x" unicode="x" horiz-adv-x="478" 
d="M358 0l-118 191l-120 -191h-87l167 251l-160 241h87l113 -182l111 182h87l-160 -241l167 -251h-87z" />
    <glyph glyph-name="y" unicode="y" horiz-adv-x="447" 
d="M212 -119q-14 -39 -35 -58q-20 -19 -45 -26.5t-51 -7.5h-31v64h22q37 0 53 13.5t28 47.5l35 96l-177 482h78l135 -395l134 395h78z" />
    <glyph glyph-name="z" unicode="z" horiz-adv-x="459" 
d="M50 0v62l274 366h-259v64h342v-61l-275 -367h275v-64h-357z" />
    <glyph glyph-name="braceleft" unicode="{" horiz-adv-x="354" 
d="M268 -74q-38 0 -61.5 7t-39.5 23q-17 17 -23.5 38.5t-6.5 60.5v191q0 42 -18 60q-8 8 -19.5 13t-25.5 5h-26v64h26q14 0 25.5 5t19.5 13q18 18 18 60v191q0 39 6.5 60.5t23.5 38.5q16 16 39.5 23t61.5 7h37v-64h-23q-26 0 -38.5 -2.5t-20.5 -10.5t-11 -23t-3 -42v-188
q0 -43 -17 -64.5t-46 -35.5q29 -14 46 -35.5t17 -64.5v-188q0 -27 3 -42t11 -23t20.5 -10.5t38.5 -2.5h23v-64h-37z" />
    <glyph glyph-name="bar" unicode="|" horiz-adv-x="326" 
d="M127 -74v860h72v-860h-72z" />
    <glyph glyph-name="braceright" unicode="}" horiz-adv-x="354" 
d="M280 324q-14 0 -25.5 -5t-19.5 -13q-18 -18 -18 -60v-191q0 -39 -6.5 -60.5t-23.5 -38.5q-16 -16 -39.5 -23t-61.5 -7h-38v64h24q26 0 38 2.5t20 10.5t11.5 23t3.5 42v188q0 43 17 64.5t46 35.5q-29 14 -46 35.5t-17 64.5v188q0 27 -3.5 42t-11.5 23t-20 10.5t-38 2.5
h-24v64h38q38 0 61.5 -7t39.5 -23q17 -17 23.5 -38.5t6.5 -60.5v-191q0 -42 18 -60q8 -8 19.5 -13t25.5 -5h25v-64h-25z" />
    <glyph glyph-name="asciitilde" unicode="~" horiz-adv-x="539" 
d="M490 278q-21 -21 -37.5 -34.5t-31 -21t-29 -10t-31.5 -2.5q-26 0 -51.5 9t-54.5 22q-21 10 -39.5 17t-38.5 7q-11 0 -19.5 -1.5t-18 -6.5t-20.5 -13.5t-26 -23.5l-44 45q21 21 37.5 34t31 20.5t29 10.5t31.5 3q26 0 51 -9t54 -22q21 -10 39.5 -17t38.5 -7q10 0 19 1.5
t18.5 6.5t20.5 13.5t26 23.5l45 -45v0z" />
    <glyph glyph-name="Euro" horiz-adv-x="678" 
d="M608 206q-9 -50 -31 -89.5t-54 -66.5t-73 -41.5t-89 -14.5q-107 0 -181 74q-19 19 -31 39t-19.5 43t-11 50t-4.5 60h-67v50h66v98h-66v49h67q1 31 5 57.5t11.5 49t19.5 42.5t30 38q74 74 181 74q48 0 89 -14.5t73.5 -41.5t54 -66.5t30.5 -89.5h-77q-14 66 -58.5 105
t-111.5 39q-73 0 -123 -50q-12 -13 -20.5 -26.5t-14 -30.5t-8.5 -38t-4 -48h219v-49h-221v-98h221v-50h-219q1 -29 4 -51t8 -39t13.5 -31t21.5 -27q50 -50 123 -50q67 0 112.5 39t59.5 105h75v0z" />
    <glyph glyph-name="Euro" unicode="&#x20ac;" horiz-adv-x="678" 
d="M608 206q-9 -50 -31 -89.5t-54 -66.5t-73 -41.5t-89 -14.5q-107 0 -181 74q-19 19 -31 39t-19.5 43t-11 50t-4.5 60h-67v50h66v98h-66v49h67q1 31 5 57.5t11.5 49t19.5 42.5t30 38q74 74 181 74q48 0 89 -14.5t73.5 -41.5t54 -66.5t30.5 -89.5h-77q-14 66 -58.5 105
t-111.5 39q-73 0 -123 -50q-12 -13 -20.5 -26.5t-14 -30.5t-8.5 -38t-4 -48h219v-49h-221v-98h221v-50h-219q1 -29 4 -51t8 -39t13.5 -31t21.5 -27q50 -50 123 -50q67 0 112.5 39t59.5 105h75v0z" />
    <glyph glyph-name="quotesinglbase" unicode="&#x201a;" horiz-adv-x="263" 
d="M88 -79v163h87v-84z" />
    <glyph glyph-name="florin" unicode="&#x192;" horiz-adv-x="403" 
d="M323 652q-35 0 -54 -19t-25 -53l-34 -196h105v-54h-115l-97 -550h-72l97 550h-98v54h108l34 198q5 27 17 51t31 42t44 28.5t57 10.5h52v-62h-50z" />
    <glyph glyph-name="quotedblbase" unicode="&#x201e;" horiz-adv-x="434" 
d="M88 -79v163h87v-84zM258 -79v163h88v-84z" />
    <glyph glyph-name="ellipsis" unicode="&#x2026;" horiz-adv-x="757" 
d="M193 54q0 -23 -17 -40t-40 -17t-40 17t-17 40t17 40t40 17t40 -17t17 -40zM435 54q0 -23 -17 -40t-40 -17t-40 17t-17 40t17 40t40 17t40 -17t17 -40zM677 54q0 -23 -17 -40t-40 -17t-40 17t-17 40t17 40t40 17t40 -17t17 -40z" />
    <glyph glyph-name="dagger" unicode="&#x2020;" horiz-adv-x="605" 
d="M337 445v-445h-72v445h-191v64h191v203h72v-203h194v-64h-194z" />
    <glyph glyph-name="daggerdbl" unicode="&#x2021;" horiz-adv-x="605" 
d="M337 -16v-204h-72v204h-191v64h191v397h-191v64h191v203h72v-203h194v-64h-194v-397h194v-64h-194z" />
    <glyph glyph-name="circumflex" unicode="&#x2c6;" horiz-adv-x="500" 
d="M340 594l-90 104l-90 -104h-69l125 153h68l125 -153h-69z" />
    <glyph glyph-name="perthousand" unicode="&#x2030;" horiz-adv-x="1179" 
d="M278 582q0 40 -18.5 63.5t-59.5 23.5q-42 0 -60 -23t-18 -64v-101q0 -41 18.5 -63.5t59.5 -22.5t59.5 23t18.5 63v101zM1058 231q0 40 -18.5 63.5t-59.5 23.5q-42 0 -60 -23t-18 -64v-101q0 -41 18 -64t60 -23q41 0 59.5 23.5t18.5 63.5v101zM712 231q0 40 -18.5 63.5
t-59.5 23.5q-42 0 -60 -23t-18 -64v-101q0 -41 18 -64t60 -23q41 0 59.5 23.5t18.5 63.5v101zM280 0h-60l334 712h60zM335 479q0 -61 -38.5 -97.5t-96.5 -36.5q-59 0 -97 36.5t-38 97.5v105q0 62 38 98.5t97 36.5q58 0 96.5 -36.5t38.5 -98.5v-105v0zM769 128
q0 -62 -38.5 -98.5t-96.5 -36.5q-59 0 -97 36.5t-38 98.5v105q0 62 38 98.5t97 36.5q58 0 96.5 -36.5t38.5 -98.5v-105v0zM1115 128q0 -62 -38.5 -98.5t-96.5 -36.5q-59 0 -97 36.5t-38 98.5v105q0 62 38 98.5t97 36.5q58 0 96.5 -36.5t38.5 -98.5v-105v0z" />
    <glyph glyph-name="Scaron" unicode="&#x160;" horiz-adv-x="588" 
d="M323 781h-68l-125 153h69l90 -105l90 105h69zM532 196q0 -47 -17.5 -84.5t-50 -63.5t-78 -40t-100.5 -14q-80 0 -137 22t-107 72l52 52q44 -44 89 -61t105 -17q78 0 123 34.5t45 97.5q0 28 -8.5 51t-25.5 38t-35.5 21.5t-57.5 12.5l-83 13q-85 14 -131 54q-54 48 -54 133
q0 45 16 82.5t45.5 63.5t71.5 40.5t95 14.5q68 0 117 -18.5t95 -59.5l-49 -49q-33 30 -71 45.5t-95 15.5q-72 0 -111 -36t-39 -96q0 -54 32 -82q17 -14 42.5 -24t53.5 -15l78 -12q25 -4 44.5 -8.5t34.5 -10.5t27.5 -13.5t23.5 -17.5q60 -51 60 -141z" />
    <glyph glyph-name="guilsinglleft" unicode="&#x2039;" horiz-adv-x="328" 
d="M40 268l210 210v-90l-120 -120l120 -121v-89z" />
    <glyph glyph-name="OE" unicode="&#x152;" horiz-adv-x="989" 
d="M497 356q0 56 -1.5 94.5t-6.5 65.5t-14.5 46.5t-26.5 36.5q-23 24 -55.5 37.5t-67.5 13.5t-67.5 -13.5t-55.5 -37.5q-17 -17 -27 -36.5t-15 -46.5t-6.5 -65.5t-1.5 -94.5t1.5 -94.5t6.5 -65.5t15 -46.5t27 -36.5q23 -24 55.5 -37.5t67.5 -13.5t67.5 13.5t55.5 37.5
q17 17 26.5 36.5t14.5 46.5t6.5 65.5t1.5 94.5zM497 0v74q-33 -41 -78.5 -60.5t-94.5 -19.5q-107 0 -181 74q-25 25 -38.5 51.5t-20 60.5t-7.5 76.5t-1 99.5t1 99.5t7.5 76.5t20 60.5t38.5 51.5q74 74 181 74q53 0 96.5 -19.5t76.5 -60.5v74h434v-67h-358q0 -59 0.5 -127.5
t0.5 -126.5h304v-64h-304q0 -60 -0.5 -130t-0.5 -130h360v-67h-436z" />
    <glyph glyph-name="Zcaron" horiz-adv-x="556" 
d="M318 781h-68l-125 153h69l90 -105l90 105h69zM57 0v72l356 572h-342v68h428v-64l-359 -580h359v-68h-442z" />
    <glyph glyph-name="Zcaron" unicode="&#x17d;" horiz-adv-x="556" 
d="M318 781h-68l-125 153h69l90 -105l90 105h69zM57 0v72l356 572h-342v68h428v-64l-359 -580h359v-68h-442z" />
    <glyph glyph-name="quoteleft" unicode="&#x2018;" horiz-adv-x="263" 
d="M88 628v84l87 79v-163h-87z" />
    <glyph glyph-name="quoteright" unicode="&#x2019;" horiz-adv-x="263" 
d="M88 549v163h87v-84z" />
    <glyph glyph-name="quotedblleft" unicode="&#x201c;" horiz-adv-x="434" 
d="M88 628v84l87 79v-163h-87zM258 628v84l88 79v-163h-88z" />
    <glyph glyph-name="quotedblright" unicode="&#x201d;" horiz-adv-x="434" 
d="M88 549v163h87v-84zM258 549v163h88v-84z" />
    <glyph glyph-name="bullet" unicode="&#x2022;" horiz-adv-x="532" 
d="M429 334q0 -34 -13 -63.5t-35 -51.5t-51.5 -35t-63.5 -13t-63.5 13t-51.5 35t-35 51.5t-13 63.5t13 63.5t35 51.5t51.5 35t63.5 13t63.5 -13t51.5 -35t35 -51.5t13 -63.5z" />
    <glyph glyph-name="endash" unicode="&#x2013;" horiz-adv-x="522" 
d="M52 236v67h418v-67h-418z" />
    <glyph glyph-name="emdash" unicode="&#x2014;" horiz-adv-x="914" 
d="M76 236v68h762v-68h-762z" />
    <glyph glyph-name="tilde" unicode="&#x2dc;" horiz-adv-x="500" 
d="M407 659q-34 -34 -56 -42.5t-39 -8.5q-21 0 -37 6t-34 17q-14 8 -27.5 14.5t-28.5 6.5q-12 0 -24.5 -5t-34.5 -27l-37 36q17 17 30.5 27t24.5 15.5t21 7t19 1.5q22 0 37 -6.5t34 -17.5q16 -10 28.5 -15t27.5 -5q11 0 24 5t35 27l37 -36v0z" />
    <glyph glyph-name="trademark" unicode="&#x2122;" horiz-adv-x="839" 
d="M212 659v-374h-58v374h-118v53h295v-53h-119zM724 285v308l-102 -202h-56l-102 202v-308h-58v427h58l130 -259l130 259h57v-427h-57z" />
    <glyph glyph-name="scaron" unicode="&#x161;" horiz-adv-x="496" 
d="M280 594h-68l-125 153h69l90 -105l90 105h69zM445 144q0 -36 -14.5 -63.5t-41 -47t-63 -29.5t-81.5 -10q-63 0 -112 16t-90 55l48 48q29 -31 68 -44t85 -13q61 0 96 21.5t35 65.5q0 32 -19.5 50t-62.5 22l-81 7q-72 6 -109.5 38.5t-37.5 93.5q0 34 13.5 60.5t37.5 45
t57.5 28.5t72.5 10q53 0 98.5 -13t78.5 -40l-47 -47q-26 20 -59.5 29.5t-71.5 9.5q-54 0 -82 -21.5t-28 -59.5q0 -32 19.5 -50t66.5 -22l79 -7q32 -3 59 -11t46 -24t29.5 -40t10.5 -58z" />
    <glyph glyph-name="guilsinglright" unicode="&#x203a;" horiz-adv-x="328" 
d="M78 58v89l121 121l-121 120v90l210 -210z" />
    <glyph glyph-name="oe" unicode="&#x153;" horiz-adv-x="861" 
d="M727 281q-2 30 -5 46t-11 36q-14 34 -45 54t-70 20t-70 -20t-45 -54q-8 -20 -11 -36t-4 -46h261v0zM394 246q0 21 -1 42t-5 41t-12 37.5t-21 31.5q-36 36 -90 36q-53 0 -89 -36q-14 -14 -21.5 -31.5t-12 -37.5t-5.5 -41t-1 -42t1 -42t5.5 -41t12 -38t21.5 -31
q36 -36 89 -36q54 0 90 36q13 13 21 31t12 38t5 41t1 42zM466 227q0 -81 37 -125.5t108 -44.5q43 0 71.5 13.5t57.5 42.5l49 -43q-19 -19 -37.5 -33t-39.5 -23.5t-46.5 -14.5t-56.5 -5q-124 0 -177 95q-23 -45 -67 -70t-100 -25q-45 0 -80 15t-61 41q-19 19 -30.5 41.5
t-18 47t-9 51.5t-2.5 56q0 28 2.5 55.5t9 52t18 47t30.5 41.5q26 26 61 41t80 15q56 0 100.5 -25t67.5 -70q51 95 163 95q96 0 149 -64t53 -174v-33h-332z" />
    <glyph glyph-name="zcaron" horiz-adv-x="459" 
d="M270 594h-68l-125 153h69l90 -105l90 105h69zM50 0v62l274 366h-259v64h342v-61l-275 -367h275v-64h-357z" />
    <glyph glyph-name="zcaron" unicode="&#x17e;" horiz-adv-x="459" 
d="M270 594h-68l-125 153h69l90 -105l90 105h69zM50 0v62l274 366h-259v64h342v-61l-275 -367h275v-64h-357z" />
    <glyph glyph-name="Ydieresis" unicode="&#x178;" horiz-adv-x="514" 
d="M196 832q0 -19 -13 -32t-32 -13t-32 13t-13 32t13 32.5t32 13.5t32 -13.5t13 -32.5zM408 832q0 -19 -13 -32t-32 -13t-32 13t-13 32t13 32.5t32 13.5t32 -13.5t13 -32.5zM296 294v-294h-76v294l-212 418h82l168 -341l166 341h82z" />
    <glyph glyph-name="nonbreakingspace" unicode="&#xa0;" horiz-adv-x="249" 
 />
    <glyph glyph-name="exclamdown" unicode="&#xa1;" horiz-adv-x="316" 
d="M199 445q0 -21 -14.5 -35.5t-35.5 -14.5t-35.5 14.5t-14.5 35.5t14.5 35.5t35.5 14.5t35.5 -14.5t14.5 -35.5zM107 -220l13 512h58l13 -512h-84z" />
    <glyph glyph-name="cent" unicode="&#xa2;" horiz-adv-x="498" 
d="M248 550q-49 -9 -80 -52q-17 -24 -25 -54.5t-8 -77.5t8 -77.5t25 -54.5q31 -43 80 -52v368zM448 189q-35 -38 -67.5 -54.5t-77.5 -19.5v-115h-59v117q-83 12 -132 76t-49 173t49 173t132 76v97h59v-95q45 -3 77.5 -19.5t67.5 -54.5l-49 -46q-25 28 -47.5 40.5t-52.5 14.5
v-372q30 2 52.5 14.5t47.5 40.5l49 -46v0z" />
    <glyph glyph-name="sterling" unicode="&#xa3;" horiz-adv-x="548" 
d="M110 0v330h-63v54h63v112q0 51 16.5 92.5t46 70t70.5 44t90 15.5q51 0 90.5 -15.5t72.5 -48.5l-52 -51q-10 10 -20 18.5t-23 15t-29.5 10t-38.5 3.5q-70 0 -108 -42.5t-38 -121.5v-102h146v-54h-146v-262h309v-68h-386z" />
    <glyph glyph-name="currency" unicode="&#xa4;" horiz-adv-x="660" 
d="M485 271q0 32 -12 60.5t-33 49.5t-49.5 33t-60.5 12t-60.5 -12t-49.5 -33t-33.5 -49.5t-12.5 -60.5t12.5 -60.5t33.5 -49.5t49.5 -33.5t60.5 -12.5t60.5 12.5t49.5 33.5t33 49.5t12 60.5zM536 19l-75 74q-27 -20 -60 -32t-71 -12t-71.5 12t-60.5 32l-74 -74l-46 46l74 74
q-20 27 -32 60.5t-12 71.5t12 71.5t32 60.5l-74 73l46 46l74 -73q27 20 60.5 31.5t71.5 11.5t71 -11.5t60 -31.5l75 73l46 -46l-74 -73q20 -27 32 -60.5t12 -71.5t-12 -71.5t-32 -60.5l74 -74z" />
    <glyph glyph-name="yen" unicode="&#xa5;" horiz-adv-x="514" 
d="M349 401h100v-54h-127l-26 -53v-52h153v-55h-153v-187h-77v187h-154v55h154v52l-26 53h-128v54h100l-157 311h82l168 -341l167 341h81z" />
    <glyph glyph-name="brokenbar" unicode="&#xa6;" horiz-adv-x="335" 
d="M127 -74v350h72v-350h-72zM127 436v350h72v-350h-72z" />
    <glyph glyph-name="section" unicode="&#xa7;" horiz-adv-x="557" 
d="M397 253q0 29 -6.5 51t-25.5 41q-36 36 -86 36q-53 0 -86 -36q-17 -19 -25 -40t-8 -52q0 -32 9.5 -54t23.5 -38q33 -36 86 -36t86 36q15 17 23.5 38.5t8.5 53.5zM470 254q0 -31 -9 -56.5t-23.5 -46.5t-33 -36t-38.5 -25q43 -16 70 -52.5t27 -91.5q0 -39 -14.5 -71
t-39 -54.5t-58 -34.5t-72.5 -12q-37 0 -70.5 10t-59 30.5t-41.5 50.5t-18 70h73q5 -47 35 -71t81 -24t81 27t30 78q0 35 -23 62.5t-65 39.5l-78 22q-66 19 -101.5 66.5t-35.5 116.5q0 31 9 56.5t23.5 46.5t33.5 36t39 25q-43 20 -68 51.5t-25 86.5q0 36 13.5 66.5t37.5 52
t57 33.5t72 12t71.5 -11t56.5 -31t38 -49.5t16 -65.5h-72q-4 50 -33 71.5t-77 21.5q-51 0 -79.5 -25t-28.5 -74q0 -40 23 -62.5t61 -33.5l78 -22q66 -19 101.5 -67t35.5 -116z" />
    <glyph glyph-name="dieresis" unicode="&#xa8;" horiz-adv-x="500" 
d="M189 645q0 -19 -13 -32t-32 -13t-32 13t-13 32t13 32.5t32 13.5t32 -13.5t13 -32.5zM401 645q0 -19 -13 -32t-32 -13t-32 13t-13 32t13 32.5t32 13.5t32 -13.5t13 -32.5z" />
    <glyph glyph-name="copyright" unicode="&#xa9;" horiz-adv-x="881" 
d="M576 205q-29 -26 -59 -39t-72 -13q-44 0 -77 15.5t-55.5 42.5t-34 64t-11.5 81t11.5 81.5t34 64.5t55.5 42.5t77 15.5q42 0 71 -13t60 -40l-36 -36q-25 22 -46 30.5t-49 8.5q-34 0 -57.5 -12.5t-37.5 -33.5t-20.5 -49t-6.5 -59q0 -32 6.5 -59.5t20.5 -48.5t37.5 -33
t57.5 -12q28 0 49 8t46 30l36 -36v0zM744 356q0 63 -24 119t-65 98t-96.5 66.5t-118.5 24.5t-118 -24.5t-96.5 -66.5t-65 -98t-23.5 -119t23.5 -119t65 -98t96.5 -66.5t118 -24.5t118.5 24.5t96.5 66.5t65 98t24 119zM802 356q0 -75 -28.5 -141t-77.5 -115t-115 -77.5
t-141 -28.5t-141 28.5t-115 77.5t-77.5 115t-28.5 141t28.5 141t77.5 115t115 77.5t141 28.5t141 -28.5t115 -77.5t77.5 -115t28.5 -141z" />
    <glyph glyph-name="ordfeminine" unicode="&#xaa;" horiz-adv-x="449" 
d="M306 498h-107q-84 0 -84 -67q0 -33 20.5 -49t65.5 -16q25 0 46.5 4t39.5 21q19 18 19 67v40zM307 319v36q-23 -23 -48 -32t-63 -9q-41 0 -66 8.5t-44 27.5q-30 32 -30 79q0 52 34.5 83t100.5 31h115v36q0 42 -21.5 63t-75.5 21q-37 0 -58.5 -9.5t-39.5 -34.5l-41 37
q27 35 59.5 47.5t80.5 12.5q79 0 117 -34t38 -98v-265h-58z" />
    <glyph glyph-name="guillemotleft" unicode="&#xab;" horiz-adv-x="554" 
d="M266 268l210 210v-90l-121 -120l121 -121v-89zM40 268l210 210v-90l-120 -120l120 -121v-89z" />
    <glyph glyph-name="logicalnot" unicode="&#xac;" horiz-adv-x="522" 
d="M404 103v137h-353v67h420v-204h-67z" />
    <glyph glyph-name="registered" unicode="&#xae;" horiz-adv-x="881" 
d="M526 436q0 30 -21 50t-54 20h-74v-139h74q33 0 54 19.5t21 49.5zM528 158l-91 162h-60v-162h-55v397h135q26 0 48.5 -9t39.5 -25t27 -38t10 -47q0 -44 -24 -71t-61 -38l95 -169h-64zM745 356q0 64 -24 120t-65.5 98t-97 66.5t-118.5 24.5t-118.5 -24.5t-96.5 -66.5
t-65 -98t-24 -120t24 -120t65 -98t96.5 -66.5t118.5 -24.5t118.5 24.5t97 66.5t65.5 98t24 120zM802 356q0 -75 -28.5 -141t-77.5 -115t-115 -77.5t-141 -28.5t-141 28.5t-115 77.5t-77.5 115t-28.5 141t28.5 141t77.5 115t115 77.5t141 28.5t141 -28.5t115 -77.5t77.5 -115
t28.5 -141z" />
    <glyph glyph-name="macron" unicode="&#xaf;" horiz-adv-x="500" 
d="M99 614v57h302v-57h-302z" />
    <glyph glyph-name="macron" unicode="&#x2c9;" horiz-adv-x="500" 
d="M99 614v57h302v-57h-302z" />
    <glyph glyph-name="degree" unicode="&#xb0;" horiz-adv-x="463" 
d="M335 557q0 22 -8 41.5t-22 34t-33 22.5t-41 8t-41 -8t-32.5 -22.5t-21.5 -34t-8 -41.5q0 -23 8 -42t22 -33.5t33 -22.5t41 -8t41 8t32.5 22.5t21.5 33.5t8 42zM396 557q0 -34 -13 -64t-35 -52t-52 -35t-64 -13t-64 13t-52.5 35t-35.5 52t-13 64t13 64t35.5 52t52.5 35
t64 13t64 -13t52 -35t35 -52t13 -64z" />
    <glyph glyph-name="plusminus" unicode="&#xb1;" horiz-adv-x="522" 
d="M52 0v67h418v-67h-418zM295 289v-177h-67v177h-176v67h176v175h67v-175h175v-67h-175z" />
    <glyph glyph-name="twosuperior" unicode="&#xb2;" horiz-adv-x="342" 
d="M48 285v52l165 202q12 15 17.5 28t5.5 30q0 30 -17 48.5t-48 18.5q-26 0 -45.5 -15t-19.5 -52h-58q0 54 34.5 86.5t88.5 32.5t88.5 -32t34.5 -87q0 -28 -9.5 -48t-29.5 -44l-138 -168h177v-52h-246z" />
    <glyph glyph-name="threesuperior" unicode="&#xb3;" horiz-adv-x="356" 
d="M308 405q0 -31 -10 -54.5t-27.5 -39t-41 -23.5t-50.5 -8q-26 0 -49 7t-41 21.5t-29 37t-12 53.5h58q2 -35 23.5 -51t49.5 -16q31 0 51.5 19t20.5 54q0 34 -18.5 53.5t-56.5 19.5h-9v50h9q35 0 51.5 18.5t16.5 49.5q0 34 -19.5 51t-46.5 17q-29 0 -47 -17t-20 -46h-57
q3 54 38 84.5t86 30.5q54 0 88.5 -32.5t34.5 -86.5q0 -35 -14 -57.5t-40 -34.5q29 -12 45 -36t16 -64z" />
    <glyph glyph-name="acute" unicode="&#xb4;" horiz-adv-x="500" 
d="M267 594h-66l88 153h86z" />
    <glyph glyph-name="mu" unicode="&#xb5;" horiz-adv-x="561" 
d="M399 0v55q-53 -61 -138 -61q-66 0 -106 37v-251h-72v712h72v-303q0 -66 32.5 -98.5t88.5 -32.5t89.5 33t33.5 98v303h72v-492h-72z" />
    <glyph glyph-name="mu" unicode="&#x3bc;" horiz-adv-x="561" 
d="M399 0v55q-53 -61 -138 -61q-66 0 -106 37v-251h-72v712h72v-303q0 -66 32.5 -98.5t88.5 -32.5t89.5 33t33.5 98v303h72v-492h-72z" />
    <glyph glyph-name="paragraph" unicode="&#xb6;" horiz-adv-x="603" 
d="M428 -220v864h-117v-864h-72v546q-45 0 -81.5 16t-62 43t-39.5 61.5t-14 71.5q0 40 14.5 75.5t42.5 61.5t68.5 41.5t91.5 15.5h241v-932h-72z" />
    <glyph glyph-name="periodcentered" unicode="&#xb7;" horiz-adv-x="272" 
d="M193 267q0 -23 -17 -40t-40 -17t-40 17t-17 40t17 39.5t40 16.5t40 -16.5t17 -39.5z" />
    <glyph glyph-name="periodcentered" unicode="&#x22c5;" horiz-adv-x="272" 
d="M193 267q0 -23 -17 -40t-40 -17t-40 17t-17 40t17 39.5t40 16.5t40 -16.5t17 -39.5z" />
    <glyph glyph-name="periodcentered" unicode="&#x2219;" horiz-adv-x="272" 
d="M193 267q0 -23 -17 -40t-40 -17t-40 17t-17 40t17 39.5t40 16.5t40 -16.5t17 -39.5z" />
    <glyph glyph-name="cedilla" unicode="&#xb8;" horiz-adv-x="500" 
d="M254 -216h-79l71 149h67z" />
    <glyph glyph-name="onesuperior" unicode="&#xb9;" horiz-adv-x="261" 
d="M126 285v363l-83 -73v66l83 71h57v-427h-57z" />
    <glyph glyph-name="ordmasculine" unicode="&#xba;" horiz-adv-x="455" 
d="M328 515q0 32 -5 65t-26 54q-28 28 -70 28t-70 -28q-21 -21 -25.5 -54t-4.5 -65t4.5 -64.5t25.5 -53.5q14 -14 32 -21.5t38 -7.5t38 7.5t32 21.5q21 21 26 53.5t5 64.5zM387 515q0 -46 -9 -85.5t-39 -70.5q-20 -20 -48 -32t-64 -12t-64 12t-48 32q-30 31 -39 70.5
t-9 85.5q0 45 9 85t39 71q20 20 48 32.5t64 12.5t64 -12.5t48 -32.5q30 -31 39 -71t9 -85z" />
    <glyph glyph-name="guillemotright" unicode="&#xbb;" horiz-adv-x="554" 
d="M78 58v89l121 121l-121 120v90l210 -210zM304 58v89l120 121l-120 120v90l210 -210z" />
    <glyph glyph-name="onequarter" unicode="&#xbc;" horiz-adv-x="777" 
d="M126 285v363l-83 -73v66l83 71h57v-427h-57zM233 0h-60l333 712h60zM690 64v-64h-56v64h-172v53l151 310h62l-150 -310h109v105h56v-105h47v-53h-47z" />
    <glyph glyph-name="onehalf" unicode="&#xbd;" horiz-adv-x="790" 
d="M126 285v363l-83 -73v66l83 71h57v-427h-57zM221 0h-60l333 712h60zM496 0v52l165 202q12 15 17.5 28t5.5 30q0 30 -17 48.5t-48 18.5q-26 0 -45.5 -15t-19.5 -52h-58q0 54 34.5 86.5t88.5 32.5t88.5 -32t34.5 -87q0 -28 -9.5 -48t-29.5 -44l-137 -168h176v-52h-246z" />
    <glyph glyph-name="threequarters" unicode="&#xbe;" horiz-adv-x="822" 
d="M285 0h-60l334 712h60zM735 64v-64h-56v64h-172v53l151 310h62l-151 -310h110v105h56v-105h47v-53h-47zM308 405q0 -31 -10 -54.5t-27.5 -39t-41 -23.5t-50.5 -8q-26 0 -49 7t-41 21.5t-29 37t-12 53.5h58q2 -35 23.5 -51t49.5 -16q31 0 51.5 19t20.5 54q0 34 -18.5 53.5
t-56.5 19.5h-9v50h9q35 0 51.5 18.5t16.5 49.5q0 34 -19.5 51t-46.5 17q-29 0 -47 -17t-20 -46h-57q3 54 38 84.5t86 30.5q54 0 88.5 -32.5t34.5 -86.5q0 -35 -14 -57.5t-40 -34.5q29 -12 45 -36t16 -64z" />
    <glyph glyph-name="questiondown" unicode="&#xbf;" horiz-adv-x="497" 
d="M284 445q0 -21 -14.5 -35.5t-35.5 -14.5t-36 14.5t-15 35.5t15 35.5t36 14.5t35.5 -14.5t14.5 -35.5zM427 -43q0 -38 -14 -71.5t-39.5 -58.5t-60 -39t-74.5 -14q-39 0 -73.5 13.5t-59.5 38t-39.5 58t-14.5 73.5q0 35 12.5 63t32.5 57l82 118q9 14 13.5 30t4.5 28v40h72
v-41q0 -29 -7.5 -50t-23.5 -44l-81 -116q-14 -21 -23.5 -40t-9.5 -45q0 -51 32 -84.5t83 -33.5q27 0 48.5 9.5t36.5 26t23 37.5t8 45h72v0z" />
    <glyph glyph-name="Agrave" unicode="&#xc0;" horiz-adv-x="611" 
d="M285 781l-108 153h86l88 -153h-66zM307 603l-134 -376h266zM518 0l-57 161h-311l-57 -161h-81l262 712h64l261 -712h-81z" />
    <glyph glyph-name="Aacute" unicode="&#xc1;" horiz-adv-x="611" 
d="M319 781h-66l88 153h86zM307 603l-134 -376h266zM518 0l-57 161h-311l-57 -161h-81l262 712h64l261 -712h-81z" />
    <glyph glyph-name="Acircumflex" unicode="&#xc2;" horiz-adv-x="611" 
d="M392 781l-90 104l-90 -104h-69l125 153h68l125 -153h-69zM307 603l-134 -376h266zM518 0l-57 161h-311l-57 -161h-81l262 712h64l261 -712h-81z" />
    <glyph glyph-name="Atilde" unicode="&#xc3;" horiz-adv-x="611" 
d="M459 846q-34 -34 -56 -42.5t-39 -8.5q-21 0 -37 6t-34 17q-14 8 -27.5 14.5t-28.5 6.5q-12 0 -24.5 -5t-34.5 -27l-37 36q17 17 30.5 27t24.5 15.5t21 7t19 1.5q22 0 37 -6.5t34 -17.5q16 -10 28.5 -15t27.5 -5q11 0 24 5t35 27l37 -36v0zM307 603l-134 -376h266zM518 0
l-57 161h-311l-57 -161h-81l262 712h64l261 -712h-81z" />
    <glyph glyph-name="Adieresis" unicode="&#xc4;" horiz-adv-x="611" 
d="M241 832q0 -19 -13 -32t-32 -13t-32 13t-13 32t13 32.5t32 13.5t32 -13.5t13 -32.5zM453 832q0 -19 -13 -32t-32 -13t-32 13t-13 32t13 32.5t32 13.5t32 -13.5t13 -32.5zM307 603l-134 -376h266zM518 0l-57 161h-311l-57 -161h-81l262 712h64l261 -712h-81z" />
    <glyph glyph-name="Aring" unicode="&#xc5;" horiz-adv-x="611" 
d="M371 867q0 29 -20 48.5t-49 19.5t-49 -19.5t-20 -48.5t20 -49t49 -20t49 20t20 49zM420 867q0 -24 -9.5 -46t-25.5 -38t-37.5 -25.5t-45.5 -9.5t-45.5 9.5t-37.5 25.5t-25.5 38t-9.5 46t9.5 45.5t25.5 37.5t37.5 25.5t45.5 9.5t45.5 -9t37.5 -25t25.5 -37.5t9.5 -46.5z
M307 603l-134 -376h266zM518 0l-57 161h-311l-57 -161h-81l262 712h64l261 -712h-81z" />
    <glyph glyph-name="AE" unicode="&#xc6;" horiz-adv-x="922" 
d="M426 644l-214 -409h214v409zM426 0v169h-247l-88 -169h-83l376 712h483v-68h-366v-253h312v-68h-312v-255h366v-68h-441z" />
    <glyph glyph-name="Ccedilla" unicode="&#xc7;" horiz-adv-x="587" 
d="M311 -216h-79l71 149h67zM525 81q-42 -40 -88 -63.5t-112 -23.5q-53 0 -99.5 19t-82.5 55q-25 25 -38.5 52t-20 60.5t-7.5 76t-1 99.5t1 99.5t7.5 76t20 60.5t38.5 52q36 36 82.5 55t99.5 19q66 0 112 -23.5t88 -63.5l-51 -51q-33 32 -65.5 51t-83.5 19q-35 0 -67.5 -13
t-55.5 -37q-17 -17 -27 -36.5t-15 -47t-6.5 -66t-1.5 -94.5t1.5 -94.5t6.5 -66t15 -47t27 -36.5q23 -24 55.5 -37t67.5 -13q51 0 83.5 19t65.5 51l51 -51v0z" />
    <glyph glyph-name="Egrave" unicode="&#xc8;" horiz-adv-x="600" 
d="M296 781l-108 153h86l88 -153h-66zM103 0v712h442v-68h-366v-251h312v-68h-312v-257h366v-68h-442z" />
    <glyph glyph-name="Eacute" unicode="&#xc9;" horiz-adv-x="600" 
d="M330 781h-66l88 153h86zM103 0v712h442v-68h-366v-251h312v-68h-312v-257h366v-68h-442z" />
    <glyph glyph-name="Ecircumflex" unicode="&#xca;" horiz-adv-x="600" 
d="M403 781l-90 104l-90 -104h-69l125 153h68l125 -153h-69zM103 0v712h442v-68h-366v-251h312v-68h-312v-257h366v-68h-442z" />
    <glyph glyph-name="Edieresis" unicode="&#xcb;" horiz-adv-x="600" 
d="M252 832q0 -19 -13 -32t-32 -13t-32 13t-13 32t13 32.5t32 13.5t32 -13.5t13 -32.5zM464 832q0 -19 -13 -32t-32 -13t-32 13t-13 32t13 32.5t32 13.5t32 -13.5t13 -32.5zM103 0v712h442v-68h-366v-251h312v-68h-312v-257h366v-68h-442z" />
    <glyph glyph-name="Igrave" unicode="&#xcc;" horiz-adv-x="282" 
d="M118 781l-108 153h86l88 -153h-66zM103 0v712h76v-712h-76z" />
    <glyph glyph-name="Iacute" unicode="&#xcd;" horiz-adv-x="282" 
d="M169 781h-66l88 153h86zM103 0v712h76v-712h-76z" />
    <glyph glyph-name="Icircumflex" unicode="&#xce;" horiz-adv-x="282" 
d="M232 781l-90 104l-90 -104h-69l125 153h68l125 -153h-69zM103 0v712h76v-712h-76z" />
    <glyph glyph-name="Idieresis" unicode="&#xcf;" horiz-adv-x="282" 
d="M82 832q0 -19 -13 -32t-32 -13t-32 13t-13 32t13 32.5t32 13.5t32 -13.5t13 -32.5zM294 832q0 -19 -13 -32t-32 -13t-32 13t-13 32t13 32.5t32 13.5t32 -13.5t13 -32.5zM103 0v712h76v-712h-76z" />
    <glyph glyph-name="Eth" unicode="&#xd0;" horiz-adv-x="687" 
d="M535 352q0 50 -1 84.5t-4.5 59t-10.5 42t-20 35.5q-29 39 -64.5 55.5t-86.5 16.5h-154v-256h161v-59h-161v-263h154q106 0 156 74q11 16 17 32t9 38.5t4 55.5t1 85zM611 356q0 -61 -1.5 -100t-6 -66t-13.5 -46t-23 -39q-32 -45 -84.5 -75t-126.5 -30h-239v330h-78v59h78
v323h245q135 0 205 -107q15 -24 24 -44t13.5 -46.5t5.5 -63.5t1 -95z" />
    <glyph glyph-name="Ntilde" unicode="&#xd1;" horiz-adv-x="732" 
d="M523 846q-34 -34 -56 -42.5t-39 -8.5q-21 0 -37 6t-34 17q-14 8 -27.5 14.5t-28.5 6.5q-12 0 -24.5 -5t-34.5 -27l-37 36q17 17 30.5 27t24.5 15.5t21 7t19 1.5q22 0 37 -6.5t34 -17.5q16 -10 28.5 -15t27.5 -5q11 0 24 5t35 27l37 -36v0zM557 0l-378 571v-571h-76v712
h72l378 -569v569h76v-712h-72z" />
    <glyph glyph-name="Ograve" unicode="&#xd2;" horiz-adv-x="650" 
d="M308 781l-108 153h86l88 -153h-66zM498 356q0 56 -1.5 94.5t-6.5 65.5t-15 46.5t-27 36.5q-23 24 -55.5 37.5t-67.5 13.5t-67.5 -13.5t-55.5 -37.5q-17 -17 -27 -36.5t-15 -46.5t-6.5 -65.5t-1.5 -94.5t1.5 -94.5t6.5 -65.5t15 -46.5t27 -36.5q23 -24 55.5 -37.5
t67.5 -13.5t67.5 13.5t55.5 37.5q17 17 27 36.5t15 46.5t6.5 65.5t1.5 94.5zM574 356q0 -57 -1 -99.5t-7.5 -76t-20 -60.5t-38.5 -52q-36 -36 -82 -55t-100 -19q-108 0 -182 74q-25 25 -38.5 52t-20 60.5t-7.5 76t-1 99.5t1 99.5t7.5 76t20 60.5t38.5 52q74 74 182 74
t182 -74q25 -25 38.5 -52t20 -60.5t7.5 -76t1 -99.5z" />
    <glyph glyph-name="Oacute" unicode="&#xd3;" horiz-adv-x="650" 
d="M342 781h-66l88 153h86zM498 356q0 56 -1.5 94.5t-6.5 65.5t-15 46.5t-27 36.5q-23 24 -55.5 37.5t-67.5 13.5t-67.5 -13.5t-55.5 -37.5q-17 -17 -27 -36.5t-15 -46.5t-6.5 -65.5t-1.5 -94.5t1.5 -94.5t6.5 -65.5t15 -46.5t27 -36.5q23 -24 55.5 -37.5t67.5 -13.5
t67.5 13.5t55.5 37.5q17 17 27 36.5t15 46.5t6.5 65.5t1.5 94.5zM574 356q0 -57 -1 -99.5t-7.5 -76t-20 -60.5t-38.5 -52q-36 -36 -82 -55t-100 -19q-108 0 -182 74q-25 25 -38.5 52t-20 60.5t-7.5 76t-1 99.5t1 99.5t7.5 76t20 60.5t38.5 52q74 74 182 74t182 -74
q25 -25 38.5 -52t20 -60.5t7.5 -76t1 -99.5z" />
    <glyph glyph-name="Ocircumflex" unicode="&#xd4;" horiz-adv-x="650" 
d="M415 781l-90 104l-90 -104h-69l125 153h68l125 -153h-69zM498 356q0 56 -1.5 94.5t-6.5 65.5t-15 46.5t-27 36.5q-23 24 -55.5 37.5t-67.5 13.5t-67.5 -13.5t-55.5 -37.5q-17 -17 -27 -36.5t-15 -46.5t-6.5 -65.5t-1.5 -94.5t1.5 -94.5t6.5 -65.5t15 -46.5t27 -36.5
q23 -24 55.5 -37.5t67.5 -13.5t67.5 13.5t55.5 37.5q17 17 27 36.5t15 46.5t6.5 65.5t1.5 94.5zM574 356q0 -57 -1 -99.5t-7.5 -76t-20 -60.5t-38.5 -52q-36 -36 -82 -55t-100 -19q-108 0 -182 74q-25 25 -38.5 52t-20 60.5t-7.5 76t-1 99.5t1 99.5t7.5 76t20 60.5t38.5 52
q74 74 182 74t182 -74q25 -25 38.5 -52t20 -60.5t7.5 -76t1 -99.5z" />
    <glyph glyph-name="Otilde" unicode="&#xd5;" horiz-adv-x="650" 
d="M482 846q-34 -34 -56 -42.5t-39 -8.5q-21 0 -37 6t-34 17q-14 8 -27.5 14.5t-28.5 6.5q-12 0 -24.5 -5t-34.5 -27l-37 36q17 17 30.5 27t24.5 15.5t21 7t19 1.5q22 0 37 -6.5t34 -17.5q16 -10 28.5 -15t27.5 -5q11 0 24 5t35 27l37 -36v0zM498 356q0 56 -1.5 94.5
t-6.5 65.5t-15 46.5t-27 36.5q-23 24 -55.5 37.5t-67.5 13.5t-67.5 -13.5t-55.5 -37.5q-17 -17 -27 -36.5t-15 -46.5t-6.5 -65.5t-1.5 -94.5t1.5 -94.5t6.5 -65.5t15 -46.5t27 -36.5q23 -24 55.5 -37.5t67.5 -13.5t67.5 13.5t55.5 37.5q17 17 27 36.5t15 46.5t6.5 65.5
t1.5 94.5zM574 356q0 -57 -1 -99.5t-7.5 -76t-20 -60.5t-38.5 -52q-36 -36 -82 -55t-100 -19q-108 0 -182 74q-25 25 -38.5 52t-20 60.5t-7.5 76t-1 99.5t1 99.5t7.5 76t20 60.5t38.5 52q74 74 182 74t182 -74q25 -25 38.5 -52t20 -60.5t7.5 -76t1 -99.5z" />
    <glyph glyph-name="Odieresis" unicode="&#xd6;" horiz-adv-x="650" 
d="M264 832q0 -19 -13 -32t-32 -13t-32 13t-13 32t13 32.5t32 13.5t32 -13.5t13 -32.5zM476 832q0 -19 -13 -32t-32 -13t-32 13t-13 32t13 32.5t32 13.5t32 -13.5t13 -32.5zM498 356q0 56 -1.5 94.5t-6.5 65.5t-15 46.5t-27 36.5q-23 24 -55.5 37.5t-67.5 13.5t-67.5 -13.5
t-55.5 -37.5q-17 -17 -27 -36.5t-15 -46.5t-6.5 -65.5t-1.5 -94.5t1.5 -94.5t6.5 -65.5t15 -46.5t27 -36.5q23 -24 55.5 -37.5t67.5 -13.5t67.5 13.5t55.5 37.5q17 17 27 36.5t15 46.5t6.5 65.5t1.5 94.5zM574 356q0 -57 -1 -99.5t-7.5 -76t-20 -60.5t-38.5 -52
q-36 -36 -82 -55t-100 -19q-108 0 -182 74q-25 25 -38.5 52t-20 60.5t-7.5 76t-1 99.5t1 99.5t7.5 76t20 60.5t38.5 52q74 74 182 74t182 -74q25 -25 38.5 -52t20 -60.5t7.5 -76t1 -99.5z" />
    <glyph glyph-name="multiply" unicode="&#xd7;" horiz-adv-x="522" 
d="M412 74l-151 151l-151 -151l-45 45l151 151l-151 151l45 45l151 -152l151 152l45 -45l-152 -151l152 -151z" />
    <glyph glyph-name="Oslash" unicode="&#xd8;" horiz-adv-x="652" 
d="M497 356q0 49 -1 84t-4.5 61.5t-10 45t-18.5 34.5l-234 -490q21 -14 45.5 -21.5t50.5 -7.5q35 0 67.5 13.5t55.5 37.5q17 17 26.5 36.5t14.5 46.5t6.5 65.5t1.5 94.5zM421 621q-21 14 -45.5 21.5t-50.5 7.5q-35 0 -67.5 -13.5t-55.5 -37.5q-17 -17 -27 -36.5t-15 -46.5
t-6.5 -65.5t-1.5 -94.5q0 -49 1 -84t5 -61.5t10.5 -45t18.5 -34.5l234 490v0zM574 356q0 -57 -1 -99.5t-7.5 -76t-20 -60.5t-38.5 -52q-36 -36 -82 -55t-100 -19q-70 0 -126 32l-33 -70h-65l50 104l-8 8q-25 25 -38.5 52t-20 60.5t-7.5 76t-1 99.5t1 99.5t7.5 76t20 60.5
t38.5 52q74 74 182 74q70 0 125 -31l34 69h65l-50 -104l4 -4l4 -4q25 -25 38.5 -52t20 -60.5t7.5 -76t1 -99.5z" />
    <glyph glyph-name="Ugrave" unicode="&#xd9;" horiz-adv-x="683" 
d="M324 781l-108 153h86l88 -153h-66zM590 235q0 -53 -18.5 -97.5t-52 -76.5t-79 -49.5t-99.5 -17.5t-99.5 17.5t-78.5 49.5t-51.5 76.5t-18.5 97.5v477h76v-471q0 -41 12 -74t34.5 -56t54.5 -36t71 -13t71 13t54.5 36t35 56t12.5 74v471h76v-477v0z" />
    <glyph glyph-name="Uacute" unicode="&#xda;" horiz-adv-x="683" 
d="M358 781h-66l88 153h86zM590 235q0 -53 -18.5 -97.5t-52 -76.5t-79 -49.5t-99.5 -17.5t-99.5 17.5t-78.5 49.5t-51.5 76.5t-18.5 97.5v477h76v-471q0 -41 12 -74t34.5 -56t54.5 -36t71 -13t71 13t54.5 36t35 56t12.5 74v471h76v-477v0z" />
    <glyph glyph-name="Ucircumflex" unicode="&#xdb;" horiz-adv-x="683" 
d="M431 781l-90 104l-90 -104h-69l125 153h68l125 -153h-69zM590 235q0 -53 -18.5 -97.5t-52 -76.5t-79 -49.5t-99.5 -17.5t-99.5 17.5t-78.5 49.5t-51.5 76.5t-18.5 97.5v477h76v-471q0 -41 12 -74t34.5 -56t54.5 -36t71 -13t71 13t54.5 36t35 56t12.5 74v471h76v-477v0z
" />
    <glyph glyph-name="Udieresis" unicode="&#xdc;" horiz-adv-x="683" 
d="M280 832q0 -19 -13 -32t-32 -13t-32 13t-13 32t13 32.5t32 13.5t32 -13.5t13 -32.5zM492 832q0 -19 -13 -32t-32 -13t-32 13t-13 32t13 32.5t32 13.5t32 -13.5t13 -32.5zM590 235q0 -53 -18.5 -97.5t-52 -76.5t-79 -49.5t-99.5 -17.5t-99.5 17.5t-78.5 49.5t-51.5 76.5
t-18.5 97.5v477h76v-471q0 -41 12 -74t34.5 -56t54.5 -36t71 -13t71 13t54.5 36t35 56t12.5 74v471h76v-477v0z" />
    <glyph glyph-name="Yacute" unicode="&#xdd;" horiz-adv-x="514" 
d="M274 781h-66l88 153h86zM296 294v-294h-76v294l-212 418h82l168 -341l166 341h82z" />
    <glyph glyph-name="Thorn" unicode="&#xde;" horiz-adv-x="642" 
d="M512 359q0 71 -42 106t-109 35h-182v-282h182q67 0 109 35t42 106zM588 359q0 -48 -16 -86.5t-45 -66t-69.5 -42t-89.5 -14.5h-189v-150h-76v712h76v-143h189q49 0 89.5 -15t69.5 -42t45 -66t16 -87z" />
    <glyph glyph-name="germandbls" unicode="&#xdf;" horiz-adv-x="556" 
d="M484 141q0 -69 -39 -105q-20 -19 -44 -27.5t-59 -8.5h-54v62h40q22 0 34 4.5t25 15.5q25 20 25 67v169q0 41 -21 62t-59 21h-44v60h36q39 0 63.5 24.5t24.5 66.5q0 22 -8.5 41.5t-22.5 33.5q-30 29 -94 29q-67 0 -95.5 -37.5t-28.5 -97.5v-521h-73v524q0 94 54 144.5
t147 50.5q40 0 75 -10t61 -30t41.5 -51.5t15.5 -74.5q0 -42 -16.5 -70.5t-46.5 -48.5q18 -10 30 -21t19.5 -25t10.5 -32t3 -42v-173v0z" />
    <glyph glyph-name="agrave" unicode="&#xe0;" horiz-adv-x="526" 
d="M235 594l-108 153h86l88 -153h-66zM369 227h-138q-110 0 -110 -87q0 -43 27 -63.5t86 -20.5q32 0 59.5 5t50.5 28q25 24 25 85v53zM369 0v47q-30 -30 -61.5 -41.5t-80.5 -11.5q-51 0 -83.5 10.5t-55.5 34.5q-18 18 -27.5 44.5t-9.5 55.5q0 65 43.5 103.5t126.5 38.5h148
v47q0 54 -29 81t-97 27q-48 0 -75 -12.5t-49 -43.5l-49 45q33 43 73.5 58t100.5 15q100 0 148.5 -41.5t48.5 -122.5v-334h-72z" />
    <glyph glyph-name="aacute" unicode="&#xe1;" horiz-adv-x="526" 
d="M269 594h-66l88 153h86zM369 227h-138q-110 0 -110 -87q0 -43 27 -63.5t86 -20.5q32 0 59.5 5t50.5 28q25 24 25 85v53zM369 0v47q-30 -30 -61.5 -41.5t-80.5 -11.5q-51 0 -83.5 10.5t-55.5 34.5q-18 18 -27.5 44.5t-9.5 55.5q0 65 43.5 103.5t126.5 38.5h148v47
q0 54 -29 81t-97 27q-48 0 -75 -12.5t-49 -43.5l-49 45q33 43 73.5 58t100.5 15q100 0 148.5 -41.5t48.5 -122.5v-334h-72z" />
    <glyph glyph-name="acircumflex" unicode="&#xe2;" horiz-adv-x="526" 
d="M342 594l-90 104l-90 -104h-69l125 153h68l125 -153h-69zM369 227h-138q-110 0 -110 -87q0 -43 27 -63.5t86 -20.5q32 0 59.5 5t50.5 28q25 24 25 85v53zM369 0v47q-30 -30 -61.5 -41.5t-80.5 -11.5q-51 0 -83.5 10.5t-55.5 34.5q-18 18 -27.5 44.5t-9.5 55.5
q0 65 43.5 103.5t126.5 38.5h148v47q0 54 -29 81t-97 27q-48 0 -75 -12.5t-49 -43.5l-49 45q33 43 73.5 58t100.5 15q100 0 148.5 -41.5t48.5 -122.5v-334h-72z" />
    <glyph glyph-name="atilde" unicode="&#xe3;" horiz-adv-x="526" 
d="M409 659q-34 -34 -56 -42.5t-39 -8.5q-21 0 -37 6t-34 17q-14 8 -27.5 14.5t-28.5 6.5q-12 0 -24.5 -5t-34.5 -27l-37 36q17 17 30.5 27t24.5 15.5t21 7t19 1.5q22 0 37 -6.5t34 -17.5q16 -10 28.5 -15t27.5 -5q11 0 24 5t35 27l37 -36v0zM369 227h-138q-110 0 -110 -87
q0 -43 27 -63.5t86 -20.5q32 0 59.5 5t50.5 28q25 24 25 85v53zM369 0v47q-30 -30 -61.5 -41.5t-80.5 -11.5q-51 0 -83.5 10.5t-55.5 34.5q-18 18 -27.5 44.5t-9.5 55.5q0 65 43.5 103.5t126.5 38.5h148v47q0 54 -29 81t-97 27q-48 0 -75 -12.5t-49 -43.5l-49 45
q33 43 73.5 58t100.5 15q100 0 148.5 -41.5t48.5 -122.5v-334h-72z" />
    <glyph glyph-name="adieresis" unicode="&#xe4;" horiz-adv-x="526" 
d="M191 645q0 -19 -13 -32t-32 -13t-32 13t-13 32t13 32.5t32 13.5t32 -13.5t13 -32.5zM403 645q0 -19 -13 -32t-32 -13t-32 13t-13 32t13 32.5t32 13.5t32 -13.5t13 -32.5zM369 227h-138q-110 0 -110 -87q0 -43 27 -63.5t86 -20.5q32 0 59.5 5t50.5 28q25 24 25 85v53z
M369 0v47q-30 -30 -61.5 -41.5t-80.5 -11.5q-51 0 -83.5 10.5t-55.5 34.5q-18 18 -27.5 44.5t-9.5 55.5q0 65 43.5 103.5t126.5 38.5h148v47q0 54 -29 81t-97 27q-48 0 -75 -12.5t-49 -43.5l-49 45q33 43 73.5 58t100.5 15q100 0 148.5 -41.5t48.5 -122.5v-334h-72z" />
    <glyph glyph-name="aring" unicode="&#xe5;" horiz-adv-x="526" 
d="M321 687q0 29 -20 48.5t-49 19.5t-49 -19.5t-20 -48.5t20 -49t49 -20t49 20t20 49zM369 227h-138q-110 0 -110 -87q0 -43 27 -63.5t86 -20.5q32 0 59.5 5t50.5 28q25 24 25 85v53zM370 687q0 -24 -9.5 -46t-25.5 -38t-37.5 -25.5t-45.5 -9.5t-45.5 9.5t-37.5 25.5
t-25.5 38t-9.5 46t9.5 45.5t25.5 37.5t37.5 25.5t45.5 9.5t45.5 -9t37.5 -25t25.5 -37.5t9.5 -46.5zM369 0v47q-30 -30 -61.5 -41.5t-80.5 -11.5q-51 0 -83.5 10.5t-55.5 34.5q-18 18 -27.5 44.5t-9.5 55.5q0 65 43.5 103.5t126.5 38.5h148v47q0 54 -29 81t-97 27
q-48 0 -75 -12.5t-49 -43.5l-49 45q33 43 73.5 58t100.5 15q100 0 148.5 -41.5t48.5 -122.5v-334h-72z" />
    <glyph glyph-name="ae" unicode="&#xe6;" horiz-adv-x="835" 
d="M701 281q-1 15 -2 26t-2.5 20t-4 17.5t-6.5 18.5q-14 34 -45 54t-70 20t-70 -20t-45 -54q-8 -20 -11 -36t-5 -46h261v0zM369 227h-138q-110 0 -110 -87q0 -43 27 -63.5t86 -20.5q32 0 59.5 5t50.5 28q25 24 25 85v53zM440 227q0 -81 37.5 -125.5t108.5 -44.5
q43 0 71 13.5t57 42.5l50 -43q-19 -19 -38 -33t-40.5 -23.5t-47 -14.5t-56.5 -5q-58 0 -103 20.5t-72 64.5q-34 -48 -75 -66.5t-105 -18.5q-51 0 -83.5 10.5t-55.5 34.5q-18 18 -27.5 44.5t-9.5 55.5q0 65 43.5 103.5t126.5 38.5h148v47q0 54 -29 81t-97 27q-48 0 -75 -12.5
t-49 -43.5l-49 45q33 43 73.5 58t100.5 15q132 0 173 -77q52 77 154 77q96 0 149 -64t53 -174v-33h-333z" />
    <glyph glyph-name="ccedilla" unicode="&#xe7;" horiz-adv-x="490" 
d="M254 -216h-79l71 149h67zM443 67q-38 -41 -74.5 -57t-87.5 -16q-47 0 -86.5 15.5t-69 47t-46 79t-16.5 110.5t16.5 110t46 78.5t69 47.5t86.5 16q51 0 87.5 -16t74.5 -57l-49 -46q-28 31 -53 43t-60 12q-36 0 -65 -14t-49 -42q-17 -24 -24.5 -54.5t-7.5 -77.5t7.5 -77.5
t24.5 -54.5q20 -28 49 -42t65 -14q35 0 60 12.5t53 43.5l49 -47v0z" />
    <glyph glyph-name="egrave" unicode="&#xe8;" 
d="M251 594l-108 153h86l88 -153h-66zM395 281q-1 15 -2 26t-2.5 20t-4 17.5t-6.5 18.5q-14 34 -45 54t-70 20t-70 -20t-45 -54q-8 -20 -11 -36t-4 -46h260v0zM135 227q0 -81 37 -125.5t108 -44.5q43 0 71.5 13.5t57.5 42.5l49 -43q-19 -19 -37.5 -33t-39.5 -23.5
t-46.5 -14.5t-56.5 -5q-49 0 -88.5 15t-67.5 46t-43.5 78.5t-15.5 112.5q0 120 54 186t148 66q96 0 149 -64t53 -174v-33h-332z" />
    <glyph glyph-name="eacute" unicode="&#xe9;" 
d="M285 594h-66l88 153h86zM395 281q-1 15 -2 26t-2.5 20t-4 17.5t-6.5 18.5q-14 34 -45 54t-70 20t-70 -20t-45 -54q-8 -20 -11 -36t-4 -46h260v0zM135 227q0 -81 37 -125.5t108 -44.5q43 0 71.5 13.5t57.5 42.5l49 -43q-19 -19 -37.5 -33t-39.5 -23.5t-46.5 -14.5
t-56.5 -5q-49 0 -88.5 15t-67.5 46t-43.5 78.5t-15.5 112.5q0 120 54 186t148 66q96 0 149 -64t53 -174v-33h-332z" />
    <glyph glyph-name="ecircumflex" unicode="&#xea;" 
d="M358 594l-90 104l-90 -104h-69l125 153h68l125 -153h-69zM395 281q-1 15 -2 26t-2.5 20t-4 17.5t-6.5 18.5q-14 34 -45 54t-70 20t-70 -20t-45 -54q-8 -20 -11 -36t-4 -46h260v0zM135 227q0 -81 37 -125.5t108 -44.5q43 0 71.5 13.5t57.5 42.5l49 -43q-19 -19 -37.5 -33
t-39.5 -23.5t-46.5 -14.5t-56.5 -5q-49 0 -88.5 15t-67.5 46t-43.5 78.5t-15.5 112.5q0 120 54 186t148 66q96 0 149 -64t53 -174v-33h-332z" />
    <glyph glyph-name="edieresis" unicode="&#xeb;" 
d="M207 645q0 -19 -13 -32t-32 -13t-32 13t-13 32t13 32.5t32 13.5t32 -13.5t13 -32.5zM419 645q0 -19 -13 -32t-32 -13t-32 13t-13 32t13 32.5t32 13.5t32 -13.5t13 -32.5zM395 281q-1 15 -2 26t-2.5 20t-4 17.5t-6.5 18.5q-14 34 -45 54t-70 20t-70 -20t-45 -54
q-8 -20 -11 -36t-4 -46h260v0zM135 227q0 -81 37 -125.5t108 -44.5q43 0 71.5 13.5t57.5 42.5l49 -43q-19 -19 -37.5 -33t-39.5 -23.5t-46.5 -14.5t-56.5 -5q-49 0 -88.5 15t-67.5 46t-43.5 78.5t-15.5 112.5q0 120 54 186t148 66q96 0 149 -64t53 -174v-33h-332z" />
    <glyph glyph-name="igrave" unicode="&#xec;" horiz-adv-x="253" 
d="M104 594l-108 153h86l88 -153h-66zM90 0v492h72v-492h-72z" />
    <glyph glyph-name="iacute" unicode="&#xed;" horiz-adv-x="253" 
d="M156 594h-66l88 153h86zM90 0v492h72v-492h-72z" />
    <glyph glyph-name="icircumflex" unicode="&#xee;" horiz-adv-x="253" 
d="M217 594l-90 104l-90 -104h-69l125 153h68l125 -153h-69zM90 0v492h72v-492h-72z" />
    <glyph glyph-name="idieresis" unicode="&#xef;" horiz-adv-x="253" 
d="M66 645q0 -19 -13 -32t-32 -13t-32 13t-13 32t13 32.5t32 13.5t32 -13.5t13 -32.5zM278 645q0 -19 -13 -32t-32 -13t-32 13t-13 32t13 32.5t32 13.5t32 -13.5t13 -32.5zM90 0v492h72v-492h-72z" />
    <glyph glyph-name="ntilde" unicode="&#xf1;" horiz-adv-x="562" 
d="M442 659q-34 -34 -56 -42.5t-39 -8.5q-21 0 -37 6t-34 17q-14 8 -27.5 14.5t-28.5 6.5q-12 0 -24.5 -5t-34.5 -27l-37 36q17 17 30.5 27t24.5 15.5t21 7t19 1.5q22 0 37 -6.5t34 -17.5q16 -10 28.5 -15t27.5 -5q11 0 24 5t35 27l37 -36v0zM405 0v303q0 66 -32.5 98.5
t-88.5 32.5t-89 -33t-33 -98v-303h-72v492h72v-54q26 30 61 45t77 15q80 0 126 -46q51 -50 51 -137v-315h-72z" />
    <glyph glyph-name="ograve" unicode="&#xf2;" 
d="M238 594l-108 153h86l88 -153h-66zM394 246q0 21 -1 42t-5 41t-12 37.5t-21 31.5q-36 36 -90 36q-53 0 -89 -36q-14 -14 -21.5 -31.5t-12 -37.5t-5.5 -41t-1 -42t1 -42t5.5 -41t12 -38t21.5 -31q36 -36 89 -36q54 0 90 36q13 13 21 31t12 38t5 41t1 42zM466 246
q0 -57 -11.5 -107.5t-48.5 -88.5q-26 -26 -61 -41t-80 -15t-80 15t-61 41q-19 19 -30.5 41.5t-18 47t-9 51.5t-2.5 56q0 28 2.5 55.5t9 52t18 47t30.5 41.5q26 26 61 41t80 15t80 -15t61 -41q37 -38 48.5 -88.5t11.5 -107.5z" />
    <glyph glyph-name="oacute" unicode="&#xf3;" 
d="M282 594h-66l88 153h86zM394 246q0 21 -1 42t-5 41t-12 37.5t-21 31.5q-36 36 -90 36q-53 0 -89 -36q-14 -14 -21.5 -31.5t-12 -37.5t-5.5 -41t-1 -42t1 -42t5.5 -41t12 -38t21.5 -31q36 -36 89 -36q54 0 90 36q13 13 21 31t12 38t5 41t1 42zM466 246q0 -57 -11.5 -107.5
t-48.5 -88.5q-26 -26 -61 -41t-80 -15t-80 15t-61 41q-19 19 -30.5 41.5t-18 47t-9 51.5t-2.5 56q0 28 2.5 55.5t9 52t18 47t30.5 41.5q26 26 61 41t80 15t80 -15t61 -41q37 -38 48.5 -88.5t11.5 -107.5z" />
    <glyph glyph-name="ocircumflex" unicode="&#xf4;" 
d="M355 594l-90 104l-90 -104h-69l125 153h68l125 -153h-69zM394 246q0 21 -1 42t-5 41t-12 37.5t-21 31.5q-36 36 -90 36q-53 0 -89 -36q-14 -14 -21.5 -31.5t-12 -37.5t-5.5 -41t-1 -42t1 -42t5.5 -41t12 -38t21.5 -31q36 -36 89 -36q54 0 90 36q13 13 21 31t12 38t5 41
t1 42zM466 246q0 -57 -11.5 -107.5t-48.5 -88.5q-26 -26 -61 -41t-80 -15t-80 15t-61 41q-19 19 -30.5 41.5t-18 47t-9 51.5t-2.5 56q0 28 2.5 55.5t9 52t18 47t30.5 41.5q26 26 61 41t80 15t80 -15t61 -41q37 -38 48.5 -88.5t11.5 -107.5z" />
    <glyph glyph-name="otilde" unicode="&#xf5;" 
d="M422 659q-34 -34 -56 -42.5t-39 -8.5q-21 0 -37 6t-34 17q-14 8 -27.5 14.5t-28.5 6.5q-12 0 -24.5 -5t-34.5 -27l-37 36q17 17 30.5 27t24.5 15.5t21 7t19 1.5q22 0 37 -6.5t34 -17.5q16 -10 28.5 -15t27.5 -5q11 0 24 5t35 27l37 -36v0zM394 246q0 21 -1 42t-5 41
t-12 37.5t-21 31.5q-36 36 -90 36q-53 0 -89 -36q-14 -14 -21.5 -31.5t-12 -37.5t-5.5 -41t-1 -42t1 -42t5.5 -41t12 -38t21.5 -31q36 -36 89 -36q54 0 90 36q13 13 21 31t12 38t5 41t1 42zM466 246q0 -57 -11.5 -107.5t-48.5 -88.5q-26 -26 -61 -41t-80 -15t-80 15t-61 41
q-19 19 -30.5 41.5t-18 47t-9 51.5t-2.5 56q0 28 2.5 55.5t9 52t18 47t30.5 41.5q26 26 61 41t80 15t80 -15t61 -41q37 -38 48.5 -88.5t11.5 -107.5z" />
    <glyph glyph-name="odieresis" unicode="&#xf6;" 
d="M204 645q0 -19 -13 -32t-32 -13t-32 13t-13 32t13 32.5t32 13.5t32 -13.5t13 -32.5zM416 645q0 -19 -13 -32t-32 -13t-32 13t-13 32t13 32.5t32 13.5t32 -13.5t13 -32.5zM394 246q0 21 -1 42t-5 41t-12 37.5t-21 31.5q-36 36 -90 36q-53 0 -89 -36q-14 -14 -21.5 -31.5
t-12 -37.5t-5.5 -41t-1 -42t1 -42t5.5 -41t12 -38t21.5 -31q36 -36 89 -36q54 0 90 36q13 13 21 31t12 38t5 41t1 42zM466 246q0 -57 -11.5 -107.5t-48.5 -88.5q-26 -26 -61 -41t-80 -15t-80 15t-61 41q-19 19 -30.5 41.5t-18 47t-9 51.5t-2.5 56q0 28 2.5 55.5t9 52t18 47
t30.5 41.5q26 26 61 41t80 15t80 -15t61 -41q37 -38 48.5 -88.5t11.5 -107.5z" />
    <glyph glyph-name="divide" unicode="&#xf7;" horiz-adv-x="522" 
d="M318 90q0 -23 -17 -40t-40 -17t-40 17t-17 40t17 40t40 17t40 -17t17 -40zM318 449q0 -23 -17 -40t-40 -17t-40 17t-17 40t17 40t40 17t40 -17t17 -40zM51 236v67h420v-67h-420z" />
    <glyph glyph-name="oslash" unicode="&#xf8;" 
d="M337 413q-30 21 -72 21q-53 0 -89 -36q-14 -14 -21.5 -31.5t-12 -37.5t-5.5 -41t-1 -42q0 -35 4 -70.5t21 -62.5l176 300v0zM394 246q0 35 -3.5 70.5t-20.5 62.5l-177 -299q31 -22 72 -22q54 0 90 36q13 13 21 31t12 38t5 41t1 42zM466 246q0 -57 -11.5 -107.5
t-48.5 -88.5q-26 -26 -61 -41t-80 -15q-31 0 -57 7t-48 20l-38 -65h-57l57 96q-36 38 -47 87.5t-11 106.5q0 28 2.5 55.5t9 52t18 47t30.5 41.5q26 26 61 41t80 15q31 0 57 -7t48 -20l39 65h56l-57 -96q36 -38 47 -87.5t11 -106.5z" />
    <glyph glyph-name="ugrave" unicode="&#xf9;" horiz-adv-x="562" 
d="M261 594l-108 153h86l88 -153h-66zM401 0v55q-26 -30 -61.5 -45.5t-77.5 -15.5q-81 0 -127 46q-26 26 -38 60.5t-12 77.5v314h72v-303q0 -66 32 -98.5t88 -32.5t89.5 33t33.5 98v303h72v-492h-71z" />
    <glyph glyph-name="uacute" unicode="&#xfa;" horiz-adv-x="562" 
d="M295 594h-66l88 153h86zM401 0v55q-26 -30 -61.5 -45.5t-77.5 -15.5q-81 0 -127 46q-26 26 -38 60.5t-12 77.5v314h72v-303q0 -66 32 -98.5t88 -32.5t89.5 33t33.5 98v303h72v-492h-71z" />
    <glyph glyph-name="ucircumflex" unicode="&#xfb;" horiz-adv-x="562" 
d="M368 594l-90 104l-90 -104h-69l125 153h68l125 -153h-69zM401 0v55q-26 -30 -61.5 -45.5t-77.5 -15.5q-81 0 -127 46q-26 26 -38 60.5t-12 77.5v314h72v-303q0 -66 32 -98.5t88 -32.5t89.5 33t33.5 98v303h72v-492h-71z" />
    <glyph glyph-name="udieresis" unicode="&#xfc;" horiz-adv-x="562" 
d="M217 645q0 -19 -13 -32t-32 -13t-32 13t-13 32t13 32.5t32 13.5t32 -13.5t13 -32.5zM429 645q0 -19 -13 -32t-32 -13t-32 13t-13 32t13 32.5t32 13.5t32 -13.5t13 -32.5zM401 0v55q-26 -30 -61.5 -45.5t-77.5 -15.5q-81 0 -127 46q-26 26 -38 60.5t-12 77.5v314h72v-303
q0 -66 32 -98.5t88 -32.5t89.5 33t33.5 98v303h72v-492h-71z" />
    <glyph glyph-name="yacute" unicode="&#xfd;" horiz-adv-x="447" 
d="M240 594h-66l88 153h86zM212 -119q-14 -39 -35 -58q-20 -19 -45 -26.5t-51 -7.5h-31v64h22q37 0 53 13.5t28 47.5l35 96l-177 482h78l135 -395l134 395h78z" />
    <glyph glyph-name="thorn" unicode="&#xfe;" horiz-adv-x="546" 
d="M409 246q0 36 -4 70t-17 60t-37.5 42t-64.5 16t-64.5 -16t-37.5 -42t-17.5 -60t-4.5 -70t4.5 -70t17.5 -60t37.5 -42t64.5 -16t64.5 16t37.5 42t17 60t4 70zM481 246q0 -29 -2.5 -58t-9 -56.5t-18 -51.5t-30.5 -43q-20 -20 -51 -31.5t-69 -11.5q-41 0 -75 13t-64 51v-278
h-72v932h72v-277q30 38 64 50.5t75 12.5q38 0 69 -11.5t51 -31.5q19 -19 30.5 -43t18 -51.5t9 -56.5t2.5 -58z" />
    <glyph glyph-name="ydieresis" unicode="&#xff;" horiz-adv-x="447" 
d="M162 645q0 -19 -13 -32t-32 -13t-32 13t-13 32t13 32.5t32 13.5t32 -13.5t13 -32.5zM374 645q0 -19 -13 -32t-32 -13t-32 13t-13 32t13 32.5t32 13.5t32 -13.5t13 -32.5zM212 -119q-14 -39 -35 -58q-20 -19 -45 -26.5t-51 -7.5h-31v64h22q37 0 53 13.5t28 47.5l35 96
l-177 482h78l135 -395l134 395h78z" />
    <glyph glyph-name="eth" unicode="&#xf0;" 
d="M393 244q0 21 -1 42t-5 40.5t-12 37t-21 31.5q-36 36 -89 36q-52 0 -88 -36q-14 -14 -21.5 -31.5t-11.5 -37t-5 -40.5t-1 -42q0 -42 6 -82.5t33 -67.5q36 -36 88 -36q53 0 89 36q27 27 33 67.5t6 82.5zM465 244q0 -57 -11 -107t-49 -88q-25 -26 -60 -40.5t-80 -14.5
t-80 14.5t-60 40.5q-38 38 -48.5 88t-10.5 107t10.5 107t48.5 88q46 47 122 52q19 1 38.5 -0.5t36.5 -9.5l-58 99h-116v52h88l-47 82h75l47 -82h82v-52h-54l63 -111q20 -35 32.5 -62t19 -52.5t9 -51.5t2.5 -59z" />
    <glyph glyph-name="Lslash" unicode="&#x141;" horiz-adv-x="582" 
d="M112 0v289l-73 -46v67l73 46v356h77v-308l154 98v-66l-154 -98v-270h363v-68h-440z" />
    <glyph glyph-name="lslash" unicode="&#x142;" horiz-adv-x="315" 
d="M226 0q-65 0 -95.5 37.5t-30.5 93.5v211l-63 -39v62l63 39v308h72v-264l81 50v-62l-81 -50v-252q0 -36 14 -54t52 -18h40v-62h-52z" />
    <glyph glyph-name="minus" unicode="&#x2212;" horiz-adv-x="522" 
d="M52 236v67h418v-67h-418z" />
    <glyph glyph-name="fraction" unicode="&#x2215;" horiz-adv-x="185" 
d="M-44 0h-60l333 712h60z" />
    <glyph glyph-name="fi" unicode="&#xfb01;" horiz-adv-x="560" 
d="M483 677q0 -20 -14.5 -34.5t-34.5 -14.5t-35 14.5t-15 34.5t15 34.5t35 14.5t34.5 -14.5t14.5 -34.5zM398 0v489h72v-489h-72zM175 434v-434h-72v434h-63v55h63v93q0 27 8 51t23.5 42t39 28.5t55.5 10.5h52v-62h-39q-35 0 -51 -19t-16 -53v-91h106v-55h-106z" />
    <glyph glyph-name="fl" unicode="&#xfb02;" horiz-adv-x="602" 
d="M521 0q-65 0 -95.5 37.5t-30.5 93.5v581h72v-578q0 -36 14 -54t52 -18h40v-62h-52zM177 434v-434h-72v434h-63v55h63v93q0 27 7.5 51t23.5 42t39 28.5t55 10.5h52v-62h-39q-35 0 -50.5 -19t-15.5 -53v-91h105v-55h-105z" />
    <glyph glyph-name="dotlessi" unicode="&#x131;" horiz-adv-x="253" 
d="M90 0v492h72v-492h-72z" />
    <glyph glyph-name="breve" unicode="&#x2d8;" horiz-adv-x="500" 
d="M415 727q-12 -139 -163 -139q-155 0 -167 139h58q5 -39 34 -60.5t75 -21.5t74.5 21.5t33.5 60.5h55v0z" />
    <glyph glyph-name="dotaccent" unicode="&#x2d9;" horiz-adv-x="500" 
d="M210 634v74h80v-74h-80z" />
    <glyph glyph-name="ring" unicode="&#x2da;" horiz-adv-x="500" 
d="M319 687q0 29 -20 48.5t-49 19.5t-49 -19.5t-20 -48.5t20 -49t49 -20t49 20t20 49zM368 687q0 -24 -9.5 -46t-25.5 -38t-37.5 -25.5t-45.5 -9.5t-45.5 9.5t-37.5 25.5t-25.5 38t-9.5 46t9.5 45.5t25.5 37.5t37.5 25.5t45.5 9.5t45.5 -9t37.5 -25t25.5 -37.5t9.5 -46.5z
" />
    <glyph glyph-name="hungarumlaut" unicode="&#x2dd;" horiz-adv-x="500" 
d="M338 594h-65l89 153h85zM176 594h-66l89 153h85z" />
    <glyph glyph-name="ogonek" unicode="&#x2db;" horiz-adv-x="500" 
d="M245 -216l-59 149h66l71 -149h-78z" />
    <glyph glyph-name="caron" unicode="&#x2c7;" horiz-adv-x="500" 
d="M284 594h-68l-125 153h69l90 -105l90 105h69z" />
    </font>
</defs>
</svg>
