<svg id="_001-file" data-name="001-file" xmlns="http://www.w3.org/2000/svg" width="32.57" height="30.554" viewBox="0 0 32.57 30.554">
  <path id="Path_1603" data-name="Path 1603" d="M78.044,30.7a4.143,4.143,0,0,0,4.023-3.4,6.9,6.9,0,0,1-6.149-9,.45.45,0,0,1-.274.093H73.412a.453.453,0,0,1,0-.906h2.232a.453.453,0,0,1,.44.347,6.89,6.89,0,0,1,6.058-4.31V2.53A3.278,3.278,0,0,1,83.167.148H63.428a2.8,2.8,0,0,0-2.786,2.758l-.165,20.135H73.5a.453.453,0,0,1,.453.453v3.011A4.152,4.152,0,0,0,78.044,30.7ZM77.52,6.817h1.087a.453.453,0,1,1,0,.906H77.52a.453.453,0,1,1,0-.906Zm-8.305,0h6.4a.453.453,0,0,1,0,.906h-6.4a.453.453,0,0,1,0-.906Zm2.293,5.788a.453.453,0,0,1-.453.453H69.29a.453.453,0,1,1,0-.906h1.765a.453.453,0,0,1,.453.453ZM63.545,6.817h3.786a.453.453,0,0,1,0,.906H63.545a.453.453,0,1,1,0-.906Zm0,5.335h3.8a.453.453,0,0,1,0,.906h-3.8a.453.453,0,1,1,0-.906Zm7.949,6.241H63.545a.453.453,0,1,1,0-.906h7.949a.453.453,0,1,1,0,.906Zm1.024-5.788a.453.453,0,0,1,.453-.453h5.637a.453.453,0,1,1,0,.906H72.971a.453.453,0,0,1-.453-.453Zm0,0" transform="translate(-55.91 -0.148)" fill="#fff"/>
  <path id="Path_1604" data-name="Path 1604" d="M4.1,322.063h15.2a5.129,5.129,0,0,1-2.162-4.2v-2.558H0v2.558A4.152,4.152,0,0,0,4.1,322.063Zm0,0" transform="translate(0 -291.508)" fill="#fff"/>
  <path id="Path_1605" data-name="Path 1605" d="M282.725,190.863a6,6,0,1,0-4.244,10.235l.09,0h0a5.994,5.994,0,0,0,4.154-10.233Zm-4.239,3.752a1.963,1.963,0,0,1,.453,3.874v.5a.453.453,0,0,1-.906,0v-.5a1.967,1.967,0,0,1-1.51-1.91.453.453,0,1,1,.906,0,1.059,1.059,0,0,0,1.047,1.057h.02a1.057,1.057,0,0,0-.01-2.114,1.963,1.963,0,0,1-.453-3.874v-.43a.453.453,0,1,1,.906,0v.43a1.966,1.966,0,0,1,1.51,1.91.453.453,0,1,1-.906,0,1.057,1.057,0,1,0-1.057,1.057Zm0,0" transform="translate(-251.912 -174.837)" fill="#fff"/>
  <path id="Path_1606" data-name="Path 1606" d="M359.375,2.7V8.254h4.764V2.7a2.382,2.382,0,0,0-4.764,0Zm0,0" transform="translate(-332.236 -0.315)" fill="#fff"/>
  <path id="Path_1607" data-name="Path 1607" d="M346.352,222.935a.453.453,0,0,0,.453-.453v-.388a1.952,1.952,0,0,0-.906,0v.388A.453.453,0,0,0,346.352,222.935Zm0,0" transform="translate(-319.777 -205.283)" fill="#fff"/>
</svg>
