<svg xmlns="http://www.w3.org/2000/svg" xmlns:xlink="http://www.w3.org/1999/xlink" width="22.651" height="22.65" viewBox="0 0 22.651 22.65">
  <defs>
    <clipPath id="clip-path">
      <rect id="Rectangle_1" data-name="Rectangle 1" width="22.651" height="22.65" transform="translate(1581.759 580.847)" fill="none"/>
    </clipPath>
  </defs>
  <g id="Group_2" data-name="Group 2" transform="translate(-1581.759 -580.847)">
    <g id="Group_1" data-name="Group 1" clip-path="url(#clip-path)">
      <path id="Path_2" data-name="Path 2" d="M1591.091,587.147a2.8,2.8,0,1,1-2.8-2.8,2.8,2.8,0,0,1,2.8,2.8"/>
      <path id="Path_3" data-name="Path 3" d="M1596.984,590.541l-1.141-.278a1.147,1.147,0,0,0-.656-.264l-.11-.492,2.307.564Zm3.833-5.757-7.854,1.961v2.246l1.552.389.161.689a1.106,1.106,0,0,0-.406.264L1592,592.6h-1.05a2.8,2.8,0,0,0-5.446.854v6.77h5.588v-5.29h1.4a1.166,1.166,0,0,0,.826-.34l2.607-2.608a1.164,1.164,0,0,0,.3-1.1l.7.172h.095a.363.363,0,0,0,.278-.13l.619-.724,2.892.724a.276.276,0,0,0,.315-.23l0-.022v-5.652a.252.252,0,0,0-.258-.246.278.278,0,0,0-.057.008"/>
      <path id="Path_4" data-name="Path 4" d="M1592.155,588.832a.341.341,0,0,0,.341-.341v-1.4a.341.341,0,0,0-.682,0v1.4a.341.341,0,0,0,.341.341"/>
    </g>
  </g>
</svg>
