<svg xmlns="http://www.w3.org/2000/svg" width="24.293" height="148.672" viewBox="0 0 24.293 148.672">
  <g id="Group_390" data-name="Group 390" transform="translate(-201.15 -566.95)">
    <path id="Rectangle_290" data-name="Rectangle 290" d="M10,0H24.293a0,0,0,0,1,0,0V148.672a0,0,0,0,1,0,0H10a10,10,0,0,1-10-10V10A10,10,0,0,1,10,0Z" transform="translate(201.15 566.95)" fill="#7badde"/>
    <path id="Path_472" data-name="Path 472" d="M0,.152H3.563A10.292,10.292,0,0,1,5.14.24a2.318,2.318,0,0,1,.93.368,2.287,2.287,0,0,1,.684.745A2.018,2.018,0,0,1,7.028,2.4,2.113,2.113,0,0,1,5.775,4.329a2.345,2.345,0,0,1,1.252.809,2.146,2.146,0,0,1,.438,1.344,2.649,2.649,0,0,1-.283,1.182,2.382,2.382,0,0,1-.772.918A2.55,2.55,0,0,1,5.2,9q-.45.049-2.17.061H0ZM1.8,1.635V3.7H2.979q1.052,0,1.307-.03a1.189,1.189,0,0,0,.726-.319.941.941,0,0,0,.264-.7.978.978,0,0,0-.228-.672,1.032,1.032,0,0,0-.678-.313q-.267-.03-1.538-.03Zm0,3.544V7.563H3.465A8.141,8.141,0,0,0,4.7,7.508a1.115,1.115,0,0,0,.654-.356A1.1,1.1,0,0,0,5.605,6.4a1.163,1.163,0,0,0-.195-.681,1.1,1.1,0,0,0-.562-.407,6.113,6.113,0,0,0-1.6-.128ZM16.724,9.064H14.766L13.988,7.04H10.425L9.69,9.064H7.781L11.252.152h1.9ZM13.41,5.538,12.182,2.231l-1.2,3.307ZM17.59,9.064V.225h1.8V7.563h4.474v1.5Zm15.768,0H31.4L30.622,7.04H27.059l-.736,2.024H24.415L27.886.152h1.9ZM30.044,5.538,28.816,2.231l-1.2,3.307Zm4.174,3.526V.152h1.751L39.617,6.1V.152h1.672V9.064H39.483L35.89,3.252V9.064ZM48.695,5.788l1.745.553a3.913,3.913,0,0,1-1.334,2.167A4.2,4.2,0,0,1,43.819,8a4.641,4.641,0,0,1-1.143-3.316,4.872,4.872,0,0,1,1.149-3.456A3.94,3.94,0,0,1,46.847,0,3.707,3.707,0,0,1,49.5.967a3.515,3.515,0,0,1,.912,1.641l-1.781.426a1.841,1.841,0,0,0-1.879-1.5,2.028,2.028,0,0,0-1.608.711,3.487,3.487,0,0,0-.617,2.3,3.738,3.738,0,0,0,.608,2.407,1.974,1.974,0,0,0,1.581.717,1.8,1.8,0,0,0,1.234-.456A2.649,2.649,0,0,0,48.695,5.788Zm3,3.277V.152h6.608V1.66H53.5V3.635h4.474v1.5H53.5V7.563h4.979v1.5Zm11.084-2.9,1.751-.17a2.136,2.136,0,0,0,.641,1.295,1.939,1.939,0,0,0,1.3.413,2,2,0,0,0,1.31-.368,1.094,1.094,0,0,0,.441-.86.811.811,0,0,0-.185-.538A1.482,1.482,0,0,0,67.4,5.55q-.316-.109-1.441-.389a4.888,4.888,0,0,1-2.031-.882A2.319,2.319,0,0,1,63.1,2.486a2.291,2.291,0,0,1,.386-1.274A2.417,2.417,0,0,1,64.6.31,4.459,4.459,0,0,1,66.356,0a3.762,3.762,0,0,1,2.526.736A2.6,2.6,0,0,1,69.772,2.7l-1.8.079a1.528,1.528,0,0,0-.5-.988,1.814,1.814,0,0,0-1.14-.3,2.056,2.056,0,0,0-1.228.322.649.649,0,0,0-.286.553.685.685,0,0,0,.267.541,4.731,4.731,0,0,0,1.654.6,8.726,8.726,0,0,1,1.942.641,2.5,2.5,0,0,1,.985.906,2.649,2.649,0,0,1,.356,1.42A2.625,2.625,0,0,1,69.6,7.9a2.55,2.55,0,0,1-1.2.994,5.048,5.048,0,0,1-1.939.325,3.861,3.861,0,0,1-2.6-.781A3.4,3.4,0,0,1,62.781,6.165Zm8.58,2.9V.152h1.8V3.66h3.526V.152h1.8V9.064h-1.8v-3.9H73.16v3.9Zm8.848,0V.152h6.608V1.66H82.009V3.635h4.474v1.5H82.009V7.563h4.979v1.5Zm8.155,0V.152h6.608V1.66H90.164V3.635h4.474v1.5H90.164V7.563h4.979v1.5Zm10.149,0V1.66H95.868V.152h7.083V1.66h-2.638v7.4Z" transform="translate(211.054 692.604) rotate(-90)" fill="#0063aa"/>
  </g>
</svg>
