<svg xmlns="http://www.w3.org/2000/svg" width="16.505" height="21.415" viewBox="0 0 16.505 21.415">
  <path id="Path_367" data-name="Path 367" d="M1094.22,66.561h-1.613V64.3h1.613Zm0-3.047h-1.613V61.256h1.613Zm0-3.046h-1.613V58.21h1.613Zm0-3.046h-1.613V55.163h1.613Zm0-3.047h-1.613V52.116h1.613Zm-2.394,12.186h-1.613V64.3h1.613Zm0-3.047h-1.613V61.256h1.613Zm0-3.046h-1.613V58.21h1.613Zm0-3.046h-1.613V55.163h1.613Zm0-3.047h-1.613V52.116h1.613Zm-2.394,13.234h-1.613V64.3h1.613Zm0-4.094h-1.613V61.256h1.613Zm0-3.046h-1.613V58.21h1.613Zm0-3.046h-1.613V55.163h1.613Zm0-3.047h-1.613V52.116h1.613Zm-2.393,12.186h-1.613V64.3h1.613Zm0-3.047h-1.613V61.256h1.613Zm0-3.046h-1.613V58.21h1.613Zm0-3.046h-1.613V55.163h1.613Zm0-3.047h-1.613V52.116h1.613Zm-2.394,12.186h-1.613V64.3h1.613Zm0-3.047h-1.613V61.256h1.613Zm0-3.046h-1.613V58.21h1.613Zm0-3.046h-1.613V55.163h1.613Zm0-3.047h-1.613V52.116h1.613Zm11.781,13.386v-16.1l-3.59-3.591h-6.148v-.721h-.6v.721h-.272v-.721h-.6v.721h-.816l-3.482,3.482V67.76Z" transform="translate(-1080.421 -46.845)" fill="none" stroke="#fff" stroke-miterlimit="10" stroke-width="1"/>
</svg>
