<svg id="Page-1" xmlns="http://www.w3.org/2000/svg" width="30.395" height="30.395" viewBox="0 0 30.395 30.395">
  <g id="_053---Calculator" data-name="053---Calculator" transform="translate(0)">
    <rect id="Rectangle-path" width="4" height="4" rx="1" transform="translate(17.279 10.218)" fill="#fff"/>
    <rect id="Rectangle-path-2" data-name="Rectangle-path" width="4" height="4" rx="1" transform="translate(17.279 17.218)" fill="#fff"/>
    <path id="Shape" d="M13.569,36.722c-1.62.841-4.709,1.1-6.785,1.1-.471,0-.935-.011-1.384-.033a.543.543,0,1,1,.054-1.086c.431.021.878.032,1.33.032,4.161,0,6.664-.9,6.785-1.364V33.462a8.243,8.243,0,0,1-2.063.672.526.526,0,0,1-.11.012.543.543,0,0,1-.109-1.074c1.791-.376,2.256-.846,2.283-.951V30.209c-1.623.841-4.712,1.1-6.788,1.1-.471,0-.935-.011-1.384-.033a.543.543,0,0,1,.054-1.086c.431.021.878.032,1.33.032,4.159,0,6.662-.9,6.785-1.363V26.949a8.224,8.224,0,0,1-2.063.672.526.526,0,0,1-.11.012.543.543,0,0,1-.109-1.074c1.787-.375,2.254-.844,2.28-.95V23.7c-1.621.841-4.709,1.1-6.785,1.1-.471,0-.935-.011-1.384-.033a.543.543,0,0,1,.054-1.086c.431.021.878.032,1.33.032,4.162,0,6.665-.9,6.785-1.365C13.45,21.9,10.947,21,6.785,21S.125,21.9,0,22.363v0c.037.112.613.651,2.807,1.036a.544.544,0,0,1-.186,1.072A9.339,9.339,0,0,1,0,23.694v1.915c.128.464,2.63,1.362,6.785,1.362.643,0,1.268-.022,1.861-.064a.543.543,0,1,1,.077,1.082c-.618.045-1.27.067-1.938.067-2.076,0-5.164-.263-6.785-1.1v1.913c.04.129.618.669,2.807,1.05a.543.543,0,0,1-.093,1.077.606.606,0,0,1-.093-.008A9.339,9.339,0,0,1,0,30.207v1.915c.128.464,2.63,1.362,6.785,1.362.643,0,1.268-.022,1.861-.064A.543.543,0,1,1,8.723,34.5c-.618.045-1.27.067-1.938.067-2.076,0-5.164-.263-6.785-1.1v1.913c.04.129.618.669,2.807,1.05a.543.543,0,0,1-.093,1.077A.607.607,0,0,1,2.62,37.5,9.339,9.339,0,0,1,0,36.72v1.92C.119,39.1,2.623,40,6.785,40s6.665-.9,6.785-1.365Z" transform="translate(0 -9.602)" fill="#fff"/>
    <rect id="Rectangle-path-3" data-name="Rectangle-path" width="4" height="4" rx="1" transform="translate(24.279 10.218)" fill="#fff"/>
    <rect id="Rectangle-path-4" data-name="Rectangle-path" width="11" height="4" rx="1" transform="translate(17.279 24.218)" fill="#fff"/>
    <rect id="Rectangle-path-5" data-name="Rectangle-path" width="4" height="4" rx="1" transform="translate(24.279 17.218)" fill="#fff"/>
    <path id="Shape-2" data-name="Shape" d="M43.921,8.342h3.842a.543.543,0,0,0,.543-.543V4.543A.543.543,0,0,0,47.763,4h-.8Z" transform="translate(-20.082 -1.829)" fill="#fff"/>
    <path id="Shape-3" data-name="Shape" d="M19,4.543V7.8a.543.543,0,0,0,.543.543h8.4L30.984,4H19.543A.543.543,0,0,0,19,4.543Z" transform="translate(-8.687 -1.829)" fill="#fff"/>
    <path id="Shape-4" data-name="Shape" d="M36.168,0H16.086A1.086,1.086,0,0,0,15,1.086v9.263c2.879.141,6.513.754,6.513,2.407V29.038c0,.568-.434,1.011-1.119,1.357H36.168a1.086,1.086,0,0,0,1.086-1.086V1.086A1.086,1.086,0,0,0,36.168,0Zm0,27.681A1.628,1.628,0,0,1,34.54,29.31H24.77a1.628,1.628,0,0,1-1.628-1.628V24.967a1.628,1.628,0,0,1,1.628-1.628h9.77a1.628,1.628,0,0,1,1.628,1.628Zm-11.4-11.4h2.714a1.628,1.628,0,0,1,1.628,1.628v2.714a1.628,1.628,0,0,1-1.628,1.628H24.77a1.628,1.628,0,0,1-1.628-1.628V17.911A1.628,1.628,0,0,1,24.77,16.283Zm-1.628-2.714V10.855A1.628,1.628,0,0,1,24.77,9.227h2.714a1.628,1.628,0,0,1,1.628,1.628v2.714A1.628,1.628,0,0,1,27.484,15.2H24.77A1.628,1.628,0,0,1,23.142,13.569Zm13.026,7.056a1.628,1.628,0,0,1-1.628,1.628H31.826A1.628,1.628,0,0,1,30.2,20.625V17.911a1.628,1.628,0,0,1,1.628-1.628H34.54a1.628,1.628,0,0,1,1.628,1.628Zm0-7.056A1.628,1.628,0,0,1,34.54,15.2H31.826A1.628,1.628,0,0,1,30.2,13.569V10.855a1.628,1.628,0,0,1,1.628-1.628H34.54a1.628,1.628,0,0,1,1.628,1.628Zm0-7.056A1.086,1.086,0,0,1,35.082,7.6H17.171a1.086,1.086,0,0,1-1.086-1.086V2.171a1.086,1.086,0,0,1,1.086-1.086H35.082a1.086,1.086,0,0,1,1.086,1.086Z" transform="translate(-6.858)" fill="#fff"/>
  </g>
</svg>
