<svg xmlns="http://www.w3.org/2000/svg" width="19.33" height="7.881" viewBox="0 0 19.33 7.881">
  <g id="Group_1" data-name="Group 1" transform="translate(-497.967 -164.401)">
    <path id="Path_369" data-name="Path 369" d="M1524.521,498.944h4.173l0-1.869h-3.728Zm4.847,0h4.96l-.774-1.869h-4.187Zm-7.451.175c.737-.254,2-.564,2-.564l.569-2.036h9.447l.94,2.163s4.37.787,4.72,1.005.022,2.513.022,2.513v.016h-1.822a1.749,1.749,0,1,0-3.3,0l-7.956,0a1.728,1.728,0,0,0,.1-.561,1.749,1.749,0,1,0-3.5,0,1.73,1.73,0,0,0,.1.56H1521.5S1521.2,499.367,1521.917,499.119Z" transform="translate(-1022.954 -331.618)" fill="none" stroke="#fff" stroke-miterlimit="3.864" stroke-width="1"/>
    <path id="Path_370" data-name="Path 370" d="M1563.26,508.273a1.749,1.749,0,1,0-1.749,1.749A1.749,1.749,0,0,0,1563.26,508.273Z" transform="translate(-1048.319 -338.24)" fill="none" stroke="#fff" stroke-miterlimit="3.864" stroke-width="1"/>
    <path id="Path_371" data-name="Path 371" d="M1564.014,509.818a.962.962,0,1,0-.962.962A.961.961,0,0,0,1564.014,509.818Z" transform="translate(-1049.86 -339.783)" fill="none" stroke="#fff" stroke-miterlimit="3.864" stroke-width="1"/>
    <path id="Path_372" data-name="Path 372" d="M1529.983,508.273a1.749,1.749,0,1,0-1.749,1.749A1.749,1.749,0,0,0,1529.983,508.273Z" transform="translate(-1026.295 -338.24)" fill="none" stroke="#fff" stroke-miterlimit="3.864" stroke-width="1"/>
    <path id="Path_373" data-name="Path 373" d="M1530.737,509.818a.962.962,0,1,0-.962.962A.962.962,0,0,0,1530.737,509.818Z" transform="translate(-1027.837 -339.783)" fill="none" stroke="#fff" stroke-miterlimit="3.864" stroke-width="1"/>
  </g>
</svg>
