<svg xmlns="http://www.w3.org/2000/svg" xmlns:xlink="http://www.w3.org/1999/xlink" width="39.639" height="39.636" viewBox="0 0 39.639 39.636">
  <defs>
    <clipPath id="clip-path">
      <rect id="Rectangle_2" data-name="Rectangle 2" width="39.639" height="39.636" transform="translate(1754.414 746.128)" fill="none"/>
    </clipPath>
  </defs>
  <g id="Group_4" data-name="Group 4" transform="translate(-1754.414 -746.128)">
    <g id="Group_3" data-name="Group 3" clip-path="url(#clip-path)">
      <path id="Path_5" data-name="Path 5" d="M1767.894,771.862a3.268,3.268,0,1,1-3.268-3.268,3.268,3.268,0,0,1,3.268,3.268"/>
      <path id="Path_6" data-name="Path 6" d="M1787.5,771.862a3.268,3.268,0,1,1-3.268-3.268,3.268,3.268,0,0,1,3.268,3.268"/>
      <path id="Path_7" data-name="Path 7" d="M1788.317,763.692h-3.39a1.482,1.482,0,0,1-1.144-.49l-5.147-5.106a3.238,3.238,0,0,0-2.328-.939H1764.34a3.31,3.31,0,0,0-2.328.939l-5.065,5.106a1.636,1.636,0,0,0-.49,1.185v4.207a3.277,3.277,0,0,0,3.267,3.268h.409a4.493,4.493,0,1,1,8.986,0h10.62a4.493,4.493,0,0,1,8.987,0h2.042a1.638,1.638,0,0,0,1.634-1.634v-2.451a4.1,4.1,0,0,0-4.085-4.085m-19.2,0h-10.334l4.411-4.411a1.613,1.613,0,0,1,1.144-.49h4.779Zm1.634,0v-4.9h5.6a1.484,1.484,0,0,1,1.144.49l4.411,4.411Z"/>
    </g>
  </g>
</svg>
