<svg xmlns="http://www.w3.org/2000/svg" width="10.912" height="7.807" viewBox="0 0 10.912 7.807">
  <path id="Path_1" data-name="Path 1" d="M2269.7,501.6h-9.948v-5.932h9.948Zm.479.2V495.47a.313.313,0,0,0-.319-.32h-10.267a.313.313,0,0,0-.319.32v6.337a.313.313,0,0,0,.319.32h10.267a.313.313,0,0,0,.319-.32m.006.887v-.355h-4.706a.268.268,0,0,1-.25.17h-1.007a.237.237,0,0,1-.246-.17h-4.7v.355a.258.258,0,0,0,.263.263h10.386a.258.258,0,0,0,.263-.263" transform="translate(-2259.269 -495.15)" fill="#fff"/>
</svg>
