<svg xmlns="http://www.w3.org/2000/svg" width="53" height="47.88" viewBox="0 0 53 47.88">
  <g id="Group_4247" data-name="Group 4247" transform="translate(-44 -802.12)">
    <g id="Group_2987" data-name="Group 2987" transform="translate(-49 282.12)">
      <path id="Path_253" data-name="Path 253" d="M34.7,202H80.6q2.727,0,2.727,2.431v41.344q0,2.431-2.727,2.431H34.7q-2.7,0-2.7-2.431V204.431Q32,202,34.7,202m0,.963q-1.631,0-1.631,1.468v29.456l.936.842-.936.818v2.382l1.5,1.348-1.5,1.348v5.15q0,1.468,1.631,1.468h4.7l1.176-1.059,1.176,1.059H80.6q1.657,0,1.657-1.468v-2.743l-2.192-1.973,2.192-2V212.516L80.6,211.024l1.657-1.516v-5.078q0-1.468-1.657-1.468H59.988l-1.524,1.4-1.55-1.4H34.7" transform="translate(61.838 318.838)" fill="#faf2e1"/>
      <path id="Path_255" data-name="Path 255" d="M35.646,204H58.069l1.565,1.4,1.538-1.4h20.8q1.673,0,1.673,1.476v5.106l-1.673,1.525,1.673,1.5V240.3l-2.213,2.009,2.213,1.984v2.759q0,1.476-1.673,1.476H42.77l-1.187-1.065L40.4,248.53H35.646Q34,248.53,34,247.054v-5.179l1.511-1.355L34,239.164v-2.4l.944-.823L34,235.1V205.476Q34,204,35.646,204" transform="translate(60.675 317.675)" fill="#ece3ce"/>
      <path id="Path_254" data-name="Path 254" d="M33.736,200h45.5a3.833,3.833,0,0,1,2.782.886,3.051,3.051,0,0,1,.981,2.49V244.5a3.051,3.051,0,0,1-.981,2.49,3.833,3.833,0,0,1-2.782.886h-45.5Q30,247.88,30,244.5V203.376Q30,200,33.736,200m0,.958q-2.676,0-2.677,2.418V244.5q0,2.418,2.677,2.418h45.5q2.7,0,2.7-2.418V203.376q0-2.418-2.7-2.418h-45.5" transform="translate(63 320)" fill="#d3bf8f"/>
    </g>
    <g id="Icon_ionic-ios-chatboxes" data-name="Icon ionic-ios-chatboxes" transform="translate(51.617 809.061)">
      <path id="Path_513" data-name="Path 513" d="M29.946,11.981H14.365a2.683,2.683,0,0,0-2.679,2.679V25.509a2.677,2.677,0,0,0,2.679,2.672H23.28a.768.768,0,0,1,.534.225l4.43,4.085c.246.239.654.141.654-.2V28.73c0-.422.267-.555.689-.555h.07a2.927,2.927,0,0,0,2.96-2.672V14.66A2.668,2.668,0,0,0,29.946,11.981Z" fill="#0a51a1"/>
      <path id="Path_514" data-name="Path 514" d="M12.262,10.259H24.736V5.667a2.293,2.293,0,0,0-2.292-2.292H5.667A2.293,2.293,0,0,0,3.375,5.667V17.283a2.293,2.293,0,0,0,2.292,2.292h4.3V12.551A2.3,2.3,0,0,1,12.262,10.259Z" fill="#0a51a1"/>
    </g>
  </g>
</svg>
