<svg xmlns="http://www.w3.org/2000/svg" width="35.221" height="93.928" viewBox="0 0 35.221 93.928">
  <g id="Icon_ionic-md-man" data-name="Icon ionic-md-man" transform="translate(-12.094 -2.25)">
    <path id="Path_1788" data-name="Path 1788" d="M23.2,17.89a7.82,7.82,0,1,0-7.82-7.82A7.793,7.793,0,0,0,23.2,17.89Z" transform="translate(6.507 0)" fill="#e3e3e3"/>
    <path id="Path_1789" data-name="Path 1789" d="M37.545,8.086H21.863c-5.912,0-9.77,5.2-9.77,10.147V42.049a3.256,3.256,0,1,0,6.5,0V20.036h1.258V79.912c0,6.373,8.805,6.164,9.015,0V45.4h1.677V79.933a4.511,4.511,0,1,0,9.015-.021V20.036h1.048V42.049a3.356,3.356,0,1,0,6.709,0V18.233C47.315,13.306,43.436,8.086,37.545,8.086Z" transform="translate(0 11.565)" fill="#e3e3e3"/>
  </g>
</svg>
