<svg xmlns="http://www.w3.org/2000/svg" width="27.933" height="27.11" viewBox="0 0 27.933 27.11">
  <g id="Group_4778" data-name="Group 4778" transform="translate(0)">
    <rect id="Rectangle_3138" data-name="Rectangle 3138" width="17.441" height="6.317" transform="translate(10.492 20.56)" fill="#fff"/>
    <path id="Path_1600" data-name="Path 1600" d="M354.185,217.561a3.388,3.388,0,1,1-3.389-3.387A3.391,3.391,0,0,1,354.185,217.561Z" transform="translate(-347.409 -193.842)" fill="#fff"/>
    <rect id="Rectangle_3139" data-name="Rectangle 3139" width="17.441" height="6.318" transform="translate(10.492 10.394)" fill="#fff"/>
    <path id="Path_1601" data-name="Path 1601" d="M354.185,209.261a3.388,3.388,0,1,1-3.389-3.388A3.389,3.389,0,0,1,354.185,209.261Z" transform="translate(-347.409 -195.708)" fill="#fff"/>
    <rect id="Rectangle_3140" data-name="Rectangle 3140" width="17.441" height="6.317" transform="translate(10.492 0.227)" fill="#fff"/>
    <path id="Path_1602" data-name="Path 1602" d="M354.185,200.959a3.388,3.388,0,1,1-3.389-3.385A3.39,3.39,0,0,1,354.185,200.959Z" transform="translate(-347.409 -197.574)" fill="#fff"/>
  </g>
</svg>
