<svg xmlns="http://www.w3.org/2000/svg" width="41.346" height="41.252" viewBox="0 0 41.346 41.252">
  <g id="Group_389" data-name="Group 389" transform="translate(-66.979 -596.787)">
    <path id="Path_467" data-name="Path 467" d="M22.652,714.039A19.626,19.626,0,1,0,2.979,694.413a19.65,19.65,0,0,0,19.673,19.626" transform="translate(65 -77)" fill="#fff"/>
    <ellipse id="Ellipse_215" data-name="Ellipse 215" cx="19.673" cy="19.626" rx="19.673" ry="19.626" transform="translate(67.979 597.787)" fill="none" stroke="#7c7b7b" stroke-width="2"/>
    <path id="Path_468" data-name="Path 468" d="M22.652,693.413a4.67,4.67,0,1,0-4.669-4.669,4.669,4.669,0,0,0,4.669,4.669" transform="translate(65 -77)" fill="#fff"/>
    <path id="Path_469" data-name="Path 469" d="M22.652,693.413a4.67,4.67,0,1,0-4.669-4.669A4.669,4.669,0,0,0,22.652,693.413Z" transform="translate(65 -77)" fill="none" stroke="#7c7b7b" stroke-width="2"/>
    <path id="Path_470" data-name="Path 470" d="M34.516,702.134c0-3.32-5.312-6.012-11.864-6.012s-11.864,2.692-11.864,6.012" transform="translate(65 -77)" fill="#fff"/>
    <path id="Path_471" data-name="Path 471" d="M34.516,702.134c0-3.32-5.312-6.012-11.864-6.012s-11.864,2.692-11.864,6.012" transform="translate(65 -77)" fill="none" stroke="#7c7b7b" stroke-width="2"/>
    <ellipse id="Ellipse_216" data-name="Ellipse 216" cx="14.591" cy="14.555" rx="14.591" ry="14.555" transform="translate(73.061 602.858)" fill="none" stroke="#7c7b7b" stroke-width="2"/>
  </g>
</svg>
