<svg xmlns="http://www.w3.org/2000/svg" width="23.826" height="23.817" viewBox="0 0 23.826 23.817">
  <g id="Icon_ionic-ios-images" data-name="Icon ionic-ios-images" transform="translate(-2.25 -2.249)">
    <path id="Path_265" data-name="Path 265" d="M16.716,13.966a.252.252,0,0,0-.409-.037l-4.886,6.5a.249.249,0,0,0,.17.409l8.566.744A.253.253,0,0,0,20.4,21.2Z" transform="translate(-2.221 -2.826)" fill="#094a94"/>
    <path id="Path_266" data-name="Path 266" d="M25.242,18.529a.252.252,0,0,0-.409-.037l-1.319,1.335a.249.249,0,0,0-.027.287l1.351,2.632a.248.248,0,0,0,.2.122l2.387.207a.253.253,0,0,0,.239-.378Z" transform="translate(-5.169 -3.938)" fill="#094a94"/>
    <path id="Path_267" data-name="Path 267" d="M26.172,14.967a1.258,1.258,0,1,0-1.26-1.494A1.267,1.267,0,0,0,26.172,14.967Z" transform="translate(-5.519 -2.488)" fill="#094a94"/>
    <path id="Path_268" data-name="Path 268" d="M24.752,7.423l-3.5-.3-.324-3.562a1.436,1.436,0,0,0-1.569-1.3L3.563,3.68A1.442,1.442,0,0,0,2.255,5.243L3.68,21.008a1.436,1.436,0,0,0,1.569,1.3l.835-.074L6,23.125a1.438,1.438,0,0,0,1.313,1.558L23.125,26.06a1.442,1.442,0,0,0,1.563-1.308L26.07,8.981A1.449,1.449,0,0,0,24.752,7.423ZM5.206,16.537a.366.366,0,0,1-.393-.324L3.856,5.578A.358.358,0,0,1,4.18,5.19L19.025,3.855a.366.366,0,0,1,.393.324l.255,2.807L8.949,6.046A1.442,1.442,0,0,0,7.386,7.354l-.792,9.055Zm19.258-7.21-.93,10.634a.362.362,0,0,1-.388.33l-.989-.085L8.3,19a.362.362,0,0,1-.33-.388l.2-2.334.728-8.3a.362.362,0,0,1,.388-.33l10.528.92,1.579.138,2.744.239A.347.347,0,0,1,24.465,9.327Z" transform="translate(0 0)" fill="#094a94"/>
  </g>
</svg>
