<svg xmlns="http://www.w3.org/2000/svg" width="56.693" height="238.819" viewBox="0 0 56.693 238.819">
  <g id="Group_390" data-name="Group 390" transform="translate(-198.15 -476.803)">
    <path id="Rectangle_290" data-name="Rectangle 290" d="M15,0H56.693a0,0,0,0,1,0,0V238.819a0,0,0,0,1,0,0H15a15,15,0,0,1-15-15V15A15,15,0,0,1,15,0Z" transform="translate(198.15 476.803)" fill="#7badde"/>
    <path id="Path_473" data-name="Path 473" d="M1.367,0V-14.316H4.258V0ZM6.9,0V-14.316H9.714l5.859,9.561v-9.561h2.686V0h-2.9L9.587-9.336V0ZM30.155-5.264l2.8.889A6.286,6.286,0,0,1,30.814-.894a6.114,6.114,0,0,1-3.8,1.138A6.158,6.158,0,0,1,22.323-1.7a7.455,7.455,0,0,1-1.836-5.327,7.826,7.826,0,0,1,1.846-5.552,6.329,6.329,0,0,1,4.854-1.978,5.955,5.955,0,0,1,4.268,1.553,5.647,5.647,0,0,1,1.465,2.637l-2.861.684A3.035,3.035,0,0,0,29-11.445a3.036,3.036,0,0,0-1.958-.645,3.257,3.257,0,0,0-2.583,1.143,5.6,5.6,0,0,0-.991,3.7,6.005,6.005,0,0,0,.977,3.867,3.171,3.171,0,0,0,2.539,1.152,2.9,2.9,0,0,0,1.982-.732A4.254,4.254,0,0,0,30.155-5.264Zm4.2-1.807a9.105,9.105,0,0,1,.654-3.672,6.738,6.738,0,0,1,1.333-1.963,5.574,5.574,0,0,1,1.851-1.289,7.86,7.86,0,0,1,3.086-.566A6.722,6.722,0,0,1,46.34-12.6a7.523,7.523,0,0,1,1.9,5.459,7.5,7.5,0,0,1-1.885,5.425A6.67,6.67,0,0,1,41.315.244,6.738,6.738,0,0,1,36.237-1.7,7.394,7.394,0,0,1,34.353-7.07Zm2.979-.1a5.364,5.364,0,0,0,1.123,3.687,3.659,3.659,0,0,0,2.852,1.255,3.628,3.628,0,0,0,2.837-1.245,5.471,5.471,0,0,0,1.108-3.735,5.383,5.383,0,0,0-1.079-3.672,3.651,3.651,0,0,0-2.866-1.211,3.675,3.675,0,0,0-2.881,1.226A5.409,5.409,0,0,0,37.331-7.168ZM50.3,0V-14.316h4.326l2.6,9.766,2.568-9.766h4.336V0H61.439V-11.27L58.6,0H55.814L52.982-11.27V0ZM66.835,0V-14.316H77.45v2.422H69.726v3.174h7.188v2.412H69.726v3.9h8V0Zm17.8-4.658,2.813-.273a3.431,3.431,0,0,0,1.03,2.08,3.115,3.115,0,0,0,2.095.664,3.219,3.219,0,0,0,2.1-.591,1.758,1.758,0,0,0,.708-1.382,1.3,1.3,0,0,0-.3-.864,2.381,2.381,0,0,0-1.04-.62q-.508-.176-2.314-.625a7.852,7.852,0,0,1-3.262-1.416,3.725,3.725,0,0,1-1.318-2.881,3.68,3.68,0,0,1,.62-2.046,3.883,3.883,0,0,1,1.787-1.45,7.163,7.163,0,0,1,2.817-.5,6.043,6.043,0,0,1,4.058,1.182,4.171,4.171,0,0,1,1.431,3.154l-2.891.127a2.455,2.455,0,0,0-.8-1.587,2.914,2.914,0,0,0-1.831-.483,3.3,3.3,0,0,0-1.973.518,1.043,1.043,0,0,0-.459.889,1.1,1.1,0,0,0,.43.869,7.6,7.6,0,0,0,2.656.957,14.018,14.018,0,0,1,3.12,1.03A4.021,4.021,0,0,1,95.709-6.45a4.256,4.256,0,0,1,.571,2.28,4.216,4.216,0,0,1-.684,2.3,4.1,4.1,0,0,1-1.934,1.6,8.109,8.109,0,0,1-3.115.522A6.2,6.2,0,0,1,86.378-1,5.459,5.459,0,0,1,84.639-4.658ZM101.494,0V-11.895H97.246v-2.422h11.377v2.422h-4.238V0Zm18.66,0H117.01l-1.25-3.252h-5.723L108.855,0h-3.066l5.576-14.316h3.057Zm-5.322-5.664-1.973-5.312-1.934,5.313ZM121.626,0V-11.895h-4.248v-2.422h11.377v2.422h-4.238V0Zm8.654,0V-14.316H140.9v2.422H133.17v3.174h7.188v2.412H133.17v3.9h8V0Zm13.081,0V-14.316h4.326l2.6,9.766,2.568-9.766h4.336V0H154.5V-11.27L151.661,0h-2.783l-2.832-11.27V0ZM159.9,0V-14.316h10.615v2.422H162.79v3.174h7.188v2.412H162.79v3.9h8V0Zm13.109,0V-14.316h2.813l5.859,9.561v-9.561h2.686V0h-2.9l-5.771-9.336V0Zm17.217,0V-11.895h-4.248v-2.422h11.377v2.422h-4.238V0Z" transform="translate(233.941 695.839) rotate(-90)" fill="#0063aa"/>
  </g>
</svg>
