<svg xmlns="http://www.w3.org/2000/svg" width="4.344" height="68.046" viewBox="0 0 4.344 68.046">
  <path id="Path_1" data-name="Path 1" d="M.5,0V-4.272h.834V0Zm5.2,0L4-2.622V0H3.168V-4.272h.744L5.6-1.656V-4.272h.834V0Zm5.22-.456a1.822,1.822,0,0,1-.5.36,1.58,1.58,0,0,1-.684.132,1.632,1.632,0,0,1-.639-.12,1.6,1.6,0,0,1-.513-.348,1.246,1.246,0,0,1-.249-.345A1.5,1.5,0,0,1,8.2-1.17a3.129,3.129,0,0,1-.042-.45q-.006-.24-.006-.516t.006-.516A3.129,3.129,0,0,1,8.2-3.1a1.5,1.5,0,0,1,.123-.393,1.246,1.246,0,0,1,.249-.345,1.6,1.6,0,0,1,.513-.348,1.632,1.632,0,0,1,.639-.12,1.55,1.55,0,0,1,.684.135,1.944,1.944,0,0,1,.5.357l-.552.552a1.392,1.392,0,0,0-.276-.219.706.706,0,0,0-.36-.081.733.733,0,0,0-.306.06.651.651,0,0,0-.222.162.689.689,0,0,0-.1.147.767.767,0,0,0-.066.213A2.569,2.569,0,0,0,9-2.646q-.009.2-.009.51T9-1.626a2.569,2.569,0,0,0,.033.336.767.767,0,0,0,.066.213.689.689,0,0,0,.1.147.651.651,0,0,0,.222.162.733.733,0,0,0,.306.06.706.706,0,0,0,.36-.081,1.392,1.392,0,0,0,.276-.219Zm3.516-1.68q0-.306-.009-.507a2.553,2.553,0,0,0-.033-.333.767.767,0,0,0-.066-.213.689.689,0,0,0-.1-.147.677.677,0,0,0-.225-.165.723.723,0,0,0-.309-.063.743.743,0,0,0-.312.063.67.67,0,0,0-.228.165.612.612,0,0,0-.1.147.85.85,0,0,0-.063.213,2.553,2.553,0,0,0-.033.333q-.009.2-.009.507t.009.507a2.553,2.553,0,0,0,.033.333.85.85,0,0,0,.063.213.612.612,0,0,0,.1.147.67.67,0,0,0,.228.165.743.743,0,0,0,.312.063.723.723,0,0,0,.309-.063.677.677,0,0,0,.225-.165.689.689,0,0,0,.1-.147.767.767,0,0,0,.066-.213,2.553,2.553,0,0,0,.033-.333Q14.43-1.83,14.43-2.136Zm.834,0q0,.276-.006.516a2.857,2.857,0,0,1-.045.45,1.585,1.585,0,0,1-.126.393,1.246,1.246,0,0,1-.249.345,1.618,1.618,0,0,1-.507.348,1.62,1.62,0,0,1-.645.12,1.642,1.642,0,0,1-.648-.12,1.608,1.608,0,0,1-.51-.348,1.246,1.246,0,0,1-.249-.345,1.5,1.5,0,0,1-.123-.393,3.129,3.129,0,0,1-.042-.45q-.006-.24-.006-.516t.006-.516a3.129,3.129,0,0,1,.042-.45,1.5,1.5,0,0,1,.123-.393,1.246,1.246,0,0,1,.249-.345,1.608,1.608,0,0,1,.51-.348,1.642,1.642,0,0,1,.648-.12,1.62,1.62,0,0,1,.645.12,1.618,1.618,0,0,1,.507.348,1.246,1.246,0,0,1,.249.345,1.585,1.585,0,0,1,.126.393,2.857,2.857,0,0,1,.045.45Q15.264-2.412,15.264-2.136ZM20.01,0V-2.49L19.194-.87H18.63l-.822-1.62V0h-.834V-4.272H17.8l1.116,2.31,1.11-2.31h.822V0Zm2.67,0V-4.272h2.814v.744h-1.98v1H25.2v.744H23.514V-.744h1.98V0Zm9.576-1.26a1.194,1.194,0,0,1-.123.552A1.2,1.2,0,0,1,31.8-.3a1.533,1.533,0,0,1-.5.252,2.149,2.149,0,0,1-.624.087A2.819,2.819,0,0,1,29.8-.087a1.7,1.7,0,0,1-.693-.441l.54-.54a1.092,1.092,0,0,0,.468.282,1.981,1.981,0,0,0,.564.078.978.978,0,0,0,.564-.135.45.45,0,0,0,.192-.393.474.474,0,0,0-.132-.36.494.494,0,0,0-.147-.093,1.1,1.1,0,0,0-.231-.057l-.516-.072a1.443,1.443,0,0,1-.828-.354,1.135,1.135,0,0,1-.306-.84,1.315,1.315,0,0,1,.1-.525,1.147,1.147,0,0,1,.294-.408,1.371,1.371,0,0,1,.468-.267,1.893,1.893,0,0,1,.624-.1,2.373,2.373,0,0,1,.774.114,1.621,1.621,0,0,1,.606.384l-.528.522a.926.926,0,0,0-.435-.243,2.047,2.047,0,0,0-.441-.051.686.686,0,0,0-.5.159.515.515,0,0,0-.162.381.448.448,0,0,0,.03.162.413.413,0,0,0,.1.144.632.632,0,0,0,.165.105.827.827,0,0,0,.231.063l.5.072a1.992,1.992,0,0,1,.486.123,1.143,1.143,0,0,1,.33.207.94.94,0,0,1,.252.39A1.589,1.589,0,0,1,32.256-1.26Zm3.36-2.268V0h-.834V-3.528H33.666v-.744h3.066v.744Zm3.432.516-.54,1.554H39.57Zm1,3.012-.252-.756H38.274L38.016,0h-.87L38.7-4.272h.654L40.914,0Zm3.228-3.528V0h-.834V-3.528H41.322v-.744h3.066v.744ZM45.954,0V-4.272h2.814v.744h-1.98v1h1.686v.744H46.788V-.744h1.98V0Zm7.524,0V-2.49L52.662-.87H52.1l-.822-1.62V0h-.834V-4.272h.822l1.116,2.31,1.11-2.31h.822V0Zm2.67,0V-4.272h2.814v.744h-1.98v1h1.686v.744H56.982V-.744h1.98V0Zm7.02,0L61.476-2.622V0h-.834V-4.272h.744l1.692,2.616V-4.272h.834V0Zm4.26-3.528V0h-.834V-3.528H65.478v-.744h3.066v.744Z" transform="translate(4.308 68.544) rotate(-90)" fill="#094a94"/>
</svg>
