<svg xmlns="http://www.w3.org/2000/svg" xmlns:xlink="http://www.w3.org/1999/xlink" width="28.313" height="28.312" viewBox="0 0 28.313 28.312">
  <defs>
    <clipPath id="clip-path">
      <rect id="Rectangle_1" data-name="Rectangle 1" width="28.313" height="28.312" transform="translate(960.081 83.94)" fill="none"/>
    </clipPath>
  </defs>
  <g id="Group_2" data-name="Group 2" transform="translate(-960.081 -83.94)">
    <g id="Group_1" data-name="Group 1" clip-path="url(#clip-path)">
      <path id="Path_1" data-name="Path 1" d="M987.008,95.033a.584.584,0,0,0-.466-.531l-3.085-.63a.579.579,0,0,0-.529.159l-.623.623-4.143-4.143a2.621,2.621,0,0,1-1.23,2.071l3.722,3.722-.6.6a.583.583,0,0,0-.161.522l.6,3.117a.584.584,0,0,0,.534.473l3.094.206h.04a.584.584,0,0,0,.038-1.167l-2.645-.175-.454-2.371,2.436-2.435,2.341.477.177,2.651a.584.584,0,0,0,1.165-.078Z"/>
      <path id="Path_2" data-name="Path 2" d="M972.9,99.1a4.916,4.916,0,0,0-.773-2.647l-2.059,2.46a3.011,3.011,0,1,1-4.241-4.241l.076-.064a4.938,4.938,0,0,0-2.888,4.492v5.561H972.9Z"/>
      <path id="Path_3" data-name="Path 3" d="M968.52,97.042a.583.583,0,1,1,0-.825h0a.583.583,0,0,1,0,.825m4.4-6.683a2.608,2.608,0,0,1,.054-.529l-6.583,5.508a2.136,2.136,0,0,0,2.743,3.274,2.082,2.082,0,0,0,.266-.265l4.8-5.738a2.623,2.623,0,0,1-1.28-2.25"/>
      <path id="Path_4" data-name="Path 4" d="M972.919,105.823H963a1.167,1.167,0,0,0-1.167,1.167v1.167h12.254V106.99a1.167,1.167,0,0,0-1.167-1.167"/>
      <path id="Path_5" data-name="Path 5" d="M975.545,90.8a.438.438,0,1,1,.437-.437.438.438,0,0,1-.437.437m0-2.188a1.75,1.75,0,1,0,1.75,1.751,1.751,1.751,0,0,0-1.75-1.751"/>
    </g>
  </g>
</svg>
