<svg xmlns="http://www.w3.org/2000/svg" width="36.243" height="36.009" viewBox="0 0 36.243 36.009">
  <g id="presentation" transform="translate(0 -1.5)">
    <g id="Group_4816" data-name="Group 4816" transform="translate(0 1.5)">
      <g id="Group_4815" data-name="Group 4815">
        <path id="Path_1634" data-name="Path 1634" d="M34.369,1.5H1.875a1.875,1.875,0,1,0,0,3.749V30.87a.625.625,0,0,0,.625.625H9.948L5.761,36.728l.976.781,4.812-6.015H17.5v1.365a1.875,1.875,0,1,0,1.25,0V31.495h5.948l4.812,6.015.976-.781L26.3,31.495h7.448a.625.625,0,0,0,.625-.625V5.249a1.875,1.875,0,1,0,0-3.749ZM18.122,35.244a.625.625,0,1,1,.625-.625A.625.625,0,0,1,18.122,35.244Zm15-5H3.124v-25H33.119ZM34.369,4H1.875a.625.625,0,0,1,0-1.25H34.369a.625.625,0,1,1,0,1.25Z" transform="translate(0 -1.5)" fill="#fff"/>
      </g>
    </g>
    <g id="Group_4818" data-name="Group 4818" transform="translate(5.627 21.433)">
      <g id="Group_4817" data-name="Group 4817" transform="translate(0 0)">
        <rect id="Rectangle_3153" data-name="Rectangle 3153" width="9" height="2" transform="translate(0.373 0.077)" fill="#fff"/>
      </g>
    </g>
    <g id="Group_4820" data-name="Group 4820" transform="translate(5.627 23.844)">
      <g id="Group_4819" data-name="Group 4819" transform="translate(0 0)">
        <rect id="Rectangle_3154" data-name="Rectangle 3154" width="9" height="2" transform="translate(0.373 -0.335)" fill="#fff"/>
      </g>
    </g>
    <g id="Group_4822" data-name="Group 4822" transform="translate(5.627 26.256)">
      <g id="Group_4821" data-name="Group 4821" transform="translate(0 0)">
        <rect id="Rectangle_3155" data-name="Rectangle 3155" width="7" height="1" transform="translate(0.373 0.254)" fill="#fff"/>
      </g>
    </g>
    <g id="Group_4824" data-name="Group 4824" transform="translate(10.45 19.021)">
      <g id="Group_4823" data-name="Group 4823" transform="translate(0 0)">
        <rect id="Rectangle_3156" data-name="Rectangle 3156" width="5" height="1" transform="translate(-0.45 0.488)" fill="#fff"/>
      </g>
    </g>
    <g id="Group_4826" data-name="Group 4826" transform="translate(20.9 10.179)">
      <g id="Group_4825" data-name="Group 4825" transform="translate(0 0)">
        <rect id="Rectangle_3157" data-name="Rectangle 3157" width="10" height="1" transform="translate(0.1 0.33)" fill="#fff"/>
      </g>
    </g>
    <g id="Group_4828" data-name="Group 4828" transform="translate(20.9 12.59)">
      <g id="Group_4827" data-name="Group 4827" transform="translate(0 0)">
        <rect id="Rectangle_3158" data-name="Rectangle 3158" width="10" height="2" transform="translate(0.1 -0.081)" fill="#fff"/>
      </g>
    </g>
    <g id="Group_4830" data-name="Group 4830" transform="translate(20.9 15.002)">
      <g id="Group_4829" data-name="Group 4829" transform="translate(0 0)">
        <rect id="Rectangle_3159" data-name="Rectangle 3159" width="7" height="2" transform="translate(0.1 -0.493)" fill="#fff"/>
      </g>
    </g>
    <g id="Group_4832" data-name="Group 4832" transform="translate(25.723 7.767)">
      <g id="Group_4831" data-name="Group 4831" transform="translate(0 0)">
        <rect id="Rectangle_3160" data-name="Rectangle 3160" width="5" height="2" transform="translate(0.277 -0.258)" fill="#fff"/>
      </g>
    </g>
    <g id="Group_4834" data-name="Group 4834" transform="translate(5.624 7.124)">
      <g id="Group_4833" data-name="Group 4833" transform="translate(0 0)">
        <path id="Path_1635" data-name="Path 1635" d="M77,73.5a5,5,0,1,0,5,5A5,5,0,0,0,77,73.5Zm.644,1.31a3.745,3.745,0,0,1,2.378,1.48l-2.4,1.2Zm-2.8.632a3.739,3.739,0,0,1,1.558-.635l-.023,3.443-2.437,2.4A3.74,3.74,0,0,1,74.838,75.441Zm3.254,6.644a3.73,3.73,0,0,1-3.28-.547l2.567-2.531,3.205-1.6A3.749,3.749,0,0,1,78.092,82.085Z" transform="translate(-72 -73.5)" fill="#fff"/>
      </g>
    </g>
    <g id="Group_4836" data-name="Group 4836" transform="translate(19.292 24.648)">
      <g id="Group_4835" data-name="Group 4835" transform="translate(0 0)">
        <rect id="Rectangle_3161" data-name="Rectangle 3161" width="2" height="3" transform="translate(-0.292 -0.139)" fill="#fff"/>
      </g>
    </g>
    <g id="Group_4838" data-name="Group 4838" transform="translate(29.742 23.04)">
      <g id="Group_4837" data-name="Group 4837" transform="translate(0 0)">
        <rect id="Rectangle_3162" data-name="Rectangle 3162" width="1" height="4" transform="translate(0.258 0.469)" fill="#fff"/>
      </g>
    </g>
    <g id="Group_4840" data-name="Group 4840" transform="translate(21.703 23.04)">
      <g id="Group_4839" data-name="Group 4839" transform="translate(0 0)">
        <rect id="Rectangle_3163" data-name="Rectangle 3163" width="1" height="4" transform="translate(0.297 0.469)" fill="#fff"/>
      </g>
    </g>
    <g id="Group_4842" data-name="Group 4842" transform="translate(24.115 20.629)">
      <g id="Group_4841" data-name="Group 4841" transform="translate(0 0)">
        <rect id="Rectangle_3164" data-name="Rectangle 3164" width="2" height="7" transform="translate(-0.115 -0.12)" fill="#fff"/>
      </g>
    </g>
    <g id="Group_4844" data-name="Group 4844" transform="translate(26.526 22.236)">
      <g id="Group_4843" data-name="Group 4843" transform="translate(0 0)">
        <rect id="Rectangle_3165" data-name="Rectangle 3165" width="1" height="5" transform="translate(0.474 0.273)" fill="#fff"/>
      </g>
    </g>
    <g id="Group_4846" data-name="Group 4846" transform="translate(8.038 19.021)">
      <g id="Group_4845" data-name="Group 4845" transform="translate(0 0)">
        <rect id="Rectangle_3166" data-name="Rectangle 3166" width="2" height="1" transform="translate(-0.038 0.488)" fill="#fff"/>
      </g>
    </g>
    <g id="Group_4848" data-name="Group 4848" transform="translate(23.311 7.767)">
      <g id="Group_4847" data-name="Group 4847" transform="translate(0 0)">
        <rect id="Rectangle_3167" data-name="Rectangle 3167" width="1" height="2" transform="translate(-0.311 -0.258)" fill="#fff"/>
      </g>
    </g>
  </g>
</svg>
