<svg xmlns="http://www.w3.org/2000/svg" xmlns:xlink="http://www.w3.org/1999/xlink" width="81.254" height="76.318" viewBox="0 0 81.254 76.318">
  <defs>
    <filter id="Subtraction_1" x="0" y="0" width="81.254" height="76.318" filterUnits="userSpaceOnUse">
      <feOffset dy="1" input="SourceAlpha"/>
      <feGaussianBlur stdDeviation="1" result="blur"/>
      <feFlood flood-opacity="0.161"/>
      <feComposite operator="in" in2="blur"/>
      <feComposite in="SourceGraphic"/>
    </filter>
  </defs>
  <g id="Group_4861" data-name="Group 4861" transform="translate(-644.413 -233.151)">
    <g transform="matrix(1, 0, 0, 1, 644.41, 233.15)" filter="url(#Subtraction_1)">
      <path id="Subtraction_1-2" data-name="Subtraction 1" d="M37.82,70.318h0L0,46.911V0H75.254V46.911L37.82,70.318Z" transform="translate(3 2)" fill="#fff"/>
    </g>
    <path id="Path_1638" data-name="Path 1638" d="M1.248-11.424V0H8.816V-1.28H2.768V-11.424Zm9.776,5.712a6.586,6.586,0,0,1,.224-1.7,4.628,4.628,0,0,1,.7-1.512,3.6,3.6,0,0,1,1.232-1.08,3.706,3.706,0,0,1,1.792-.408,3.706,3.706,0,0,1,1.792.408A3.6,3.6,0,0,1,18-8.928a4.628,4.628,0,0,1,.7,1.512,6.586,6.586,0,0,1,.224,1.7,6.586,6.586,0,0,1-.224,1.7A4.628,4.628,0,0,1,18-2.5a3.6,3.6,0,0,1-1.232,1.08,3.706,3.706,0,0,1-1.792.408,3.706,3.706,0,0,1-1.792-.408A3.6,3.6,0,0,1,11.952-2.5a4.628,4.628,0,0,1-.7-1.512A6.586,6.586,0,0,1,11.024-5.712Zm-1.52,0a7.362,7.362,0,0,0,.344,2.248A5.665,5.665,0,0,0,10.88-1.552a4.952,4.952,0,0,0,1.712,1.32,5.484,5.484,0,0,0,2.384.488A5.484,5.484,0,0,0,17.36-.232a4.952,4.952,0,0,0,1.712-1.32A5.665,5.665,0,0,0,20.1-3.464a7.362,7.362,0,0,0,.344-2.248A7.362,7.362,0,0,0,20.1-7.96a5.665,5.665,0,0,0-1.032-1.912A5.037,5.037,0,0,0,17.36-11.2a5.409,5.409,0,0,0-2.384-.5,5.409,5.409,0,0,0-2.384.5A5.037,5.037,0,0,0,10.88-9.872,5.665,5.665,0,0,0,9.848-7.96,7.362,7.362,0,0,0,9.5-5.712ZM30.848-1.424,31.248,0h.96V-6.016H27.2v1.28h3.648a3.884,3.884,0,0,1-.208,1.464,3.332,3.332,0,0,1-.712,1.184,3.322,3.322,0,0,1-1.16.792,4.074,4.074,0,0,1-1.584.288A3.628,3.628,0,0,1,25.5-1.384a3.686,3.686,0,0,1-1.224-1.008,4.492,4.492,0,0,1-.752-1.456,5.764,5.764,0,0,1-.256-1.72,7.142,7.142,0,0,1,.224-1.784,4.781,4.781,0,0,1,.7-1.552A3.59,3.59,0,0,1,25.4-10a3.6,3.6,0,0,1,1.784-.416,4.656,4.656,0,0,1,1.208.152,3.324,3.324,0,0,1,1.016.456,2.677,2.677,0,0,1,.752.776A2.989,2.989,0,0,1,30.576-7.9H32.1a4.618,4.618,0,0,0-.6-1.72A4.036,4.036,0,0,0,30.408-10.8a4.434,4.434,0,0,0-1.472-.68,6.886,6.886,0,0,0-1.752-.216,5.285,5.285,0,0,0-2.376.5,4.976,4.976,0,0,0-1.7,1.352,5.849,5.849,0,0,0-1.024,1.976,8.1,8.1,0,0,0-.344,2.376,6.428,6.428,0,0,0,.368,2.16,5.566,5.566,0,0,0,1.072,1.84A5.171,5.171,0,0,0,24.9-.216a5.334,5.334,0,0,0,2.288.472,5.4,5.4,0,0,0,2-.392A3.8,3.8,0,0,0,30.848-1.424Zm3.664-10V0h1.52V-11.424Zm4.064,0V0h1.44V-9.168h.032L46.016,0H47.68V-11.424H46.24V-2.16h-.032l-6.016-9.264Z" transform="translate(659.888 274.331)" fill="#1c98c8"/>
  </g>
</svg>
