<svg xmlns="http://www.w3.org/2000/svg" xmlns:xlink="http://www.w3.org/1999/xlink" width="166.788" height="32.248" viewBox="0 0 166.788 32.248">
  <defs>
    <clipPath id="clip-path">
      <rect id="Rectangle_2029" data-name="Rectangle 2029" width="166.788" height="32.248" fill="none"/>
    </clipPath>
  </defs>
  <g id="Group_3489" data-name="Group 3489" transform="translate(-498.225 -382.361)">
    <g id="Group_1" data-name="Group 1" transform="translate(-97 155.09)">
      <g id="Group_3485" data-name="Group 3485" transform="translate(595.225 227.271)" clip-path="url(#clip-path)">
        <path id="Path_501" data-name="Path 501" d="M1842.81,1575.917c6.783,0,7.519,2.985,14.961,2.985,6.977,0,10.427-4.109,11.008-4.884a17.556,17.556,0,0,1-5.039,6.977,14.894,14.894,0,0,1-9.5,3.023c-5.077,0-8.449-3.139-13.876-3.139a13.683,13.683,0,0,0-9.186,3.062c.7-2.171,3.45-8.024,11.629-8.024" transform="translate(-1831.181 -1559.715)" fill="#0a51a1"/>
        <path id="Path_502" data-name="Path 502" d="M1855.073,1554.6c6.783,0,7.52,2.984,14.962,2.984,6.977,0,10.427-4.108,11.008-4.884a17.558,17.558,0,0,1-5.039,6.977,14.892,14.892,0,0,1-9.5,3.023c-5.078,0-8.45-3.14-13.877-3.14a13.684,13.684,0,0,0-9.187,3.062c.7-2.17,3.45-8.023,11.628-8.023" transform="translate(-1839.298 -1545.605)" fill="#80a2cc"/>
        <path id="Path_503" data-name="Path 503" d="M1866.764,1533.621c6.783,0,7.52,2.985,14.962,2.985,6.977,0,10.427-4.109,11.008-4.883a17.553,17.553,0,0,1-5.039,6.977,14.891,14.891,0,0,1-9.5,3.023c-5.078,0-8.45-3.14-13.876-3.14a13.685,13.685,0,0,0-9.187,3.063c.7-2.17,3.45-8.024,11.629-8.024" transform="translate(-1847.035 -1531.723)" fill="#c7daea"/>
        <path id="Path_504" data-name="Path 504" d="M1963.289,1581.439c.349,1.162-.853,1.55-1.4,1.782a12.452,12.452,0,0,1-4.69.853c-6.241,0-8.877-4.147-8.877-8.954,0-6.55,4.807-13.023,11.822-13.023a10.16,10.16,0,0,1,4.923,1.2c.659.349,1.084.814,1.084,1.357a1.132,1.132,0,0,1-.232.659l-1.473,2.247a1.262,1.262,0,0,1-1.086.7c-.5,0-.737-.233-1.356-.426a5.139,5.139,0,0,0-1.9-.35c-2.442,0-5.194,2.6-5.194,7.288,0,2.829,1.512,3.876,3.643,3.876a6.918,6.918,0,0,0,2.055-.349c.543-.156,1.59-.581,1.938.62Z" transform="translate(-1908.713 -1551.826)" fill="#0a51a1"/>
        <path id="Path_505" data-name="Path 505" d="M2010.007,1562.1c-7.4,0-11.9,6.163-12.056,13.179-.116,4.922,2.907,8.8,8.838,8.8,7.752,0,11.938-6.24,12.092-13.256.079-4.884-2.983-8.721-8.875-8.721m-2.675,16.629c-2.016,0-2.869-1.551-2.83-3.837.077-4.109,2.209-7.442,4.961-7.442,2.015,0,2.868,1.55,2.83,3.876-.078,4.264-2.209,7.4-4.961,7.4" transform="translate(-1941.555 -1551.825)" fill="#0a51a1"/>
        <path id="Path_506" data-name="Path 506" d="M2068.2,1581.9c-.193,1.047-.7,1.666-1.706,1.666h-3.642c-.815,0-1.318-.5-1.124-1.473l2.945-15.466a3.483,3.483,0,0,1,2.21-2.791,19.644,19.644,0,0,1,8.178-1.744c6.551,0,8.644,4.264,7.675,9.652l-1.822,10.155c-.194,1.047-.7,1.666-1.706,1.666h-3.644c-.814,0-1.278-.5-1.123-1.473l1.9-10.853a6.514,6.514,0,0,0,.116-1.124c0-1.473-.659-2.481-2.325-2.481a12.4,12.4,0,0,0-1.862.155c-1.24.193-1.588.581-1.821,1.666Z" transform="translate(-1983.739 -1551.825)" fill="#0a51a1"/>
        <path id="Path_507" data-name="Path 507" d="M2152.218,1535.5a29.229,29.229,0,0,0-3.643.5,1.754,1.754,0,0,0-1.706,1.511l-1.318,7.6a11.984,11.984,0,0,0-3.332-.542c-7.326,0-12.093,6.123-12.093,13.411,0,5.736,4.263,8.488,8.76,8.488,6.006,0,9.767-2.79,10.736-8.372l3.76-21.357c.155-.932-.427-1.28-1.164-1.242m-8.953,22.249c-.466,2.636-2.132,3.45-3.722,3.411-1.589,0-3.023-1.24-3.023-3.8,0-2.985,1.357-7.558,5.5-7.558a6.215,6.215,0,0,1,2.6.466Z" transform="translate(-2029.036 -1534.218)" fill="#0a51a1"/>
        <path id="Path_508" data-name="Path 508" d="M2204.379,1562.1a17.091,17.091,0,0,0-6.705,1.357,1.325,1.325,0,0,0-.891,1.977l.891,2.053c.5,1.125,1.356.776,1.821.582a11.819,11.819,0,0,1,3.916-.93c2.481,0,3.72,1.007,3.41,2.984l-.077.466a21.813,21.813,0,0,0-3.179-.233c-5.194,0-10.233,1.939-9.962,7.83.156,3.8,3.644,5.891,7.442,5.891,6.008,0,9.614-2.558,10.466-7.442l.969-5.388a12.59,12.59,0,0,0,.193-2.054c0-4.457-3.062-7.093-8.294-7.093m1.356,14.263c-.271,1.861-1.9,2.753-3.991,2.753-1.512,0-2.4-.737-2.4-1.977,0-2.055,2.094-2.6,4.109-2.6a16,16,0,0,1,2.558.233Z" transform="translate(-2071.041 -1551.825)" fill="#0a51a1"/>
        <path id="Path_509" data-name="Path 509" d="M2254.822,1564.678a1.753,1.753,0,0,1,1.705-1.512,31.416,31.416,0,0,1,3.759-.5c.737-.038,1.318.31,1.162,1.241l-3.217,18.373c-.194,1.047-.7,1.667-1.7,1.667h-3.721c-.814,0-1.279-.5-1.125-1.473Z" transform="translate(-2109.467 -1552.198)" fill="#0a51a1"/>
      </g>
      <g id="Group_3488" data-name="Group 3488" transform="translate(595.225 227.271)">
        <g id="Group_3487" data-name="Group 3487" clip-path="url(#clip-path)">
          <path id="Path_510" data-name="Path 510" d="M2266.626,1535.272a3.192,3.192,0,0,1,3.333,3.722,3.926,3.926,0,0,1-4.069,3.334,3.208,3.208,0,0,1-3.45-3.721,4.153,4.153,0,0,1,4.187-3.334" transform="translate(-2116.582 -1534.072)" fill="#0a51a1"/>
          <path id="Path_511" data-name="Path 511" d="M2282.2,1569.022c.89-4.961,4.418-6.589,8.372-6.589a18.424,18.424,0,0,1,3.178.155c.97.155,1.279.66,1.125,1.474l-.5,2.753c-.155.93-.892.967-1.707.967h-.773c-2.094,0-3.1.815-3.49,2.986l-1.977,11.357c-.192,1.047-.7,1.667-1.705,1.667H2281c-.814,0-1.28-.5-1.124-1.473Z" transform="translate(-2128.129 -1552.046)" fill="#0a51a1"/>
        </g>
      </g>
    </g>
  </g>
</svg>
