<svg xmlns="http://www.w3.org/2000/svg" width="31.007" height="7.768" viewBox="0 0 31.007 7.768">
  <g id="Group_3" data-name="Group 3" transform="translate(-612.829 -275.132)">
    <g id="Group_2" data-name="Group 2">
      <g id="Group_1" data-name="Group 1">
        <text id="FINANCE_CONDAIR" data-name="FINANCE@CONDAIR" transform="translate(617.87 277.132)" fill="#c2daf3" font-size="2" font-family="DIN-BoldAlternate" font-weight="700"><tspan x="0" y="0" letter-spacing="0.16em">F</tspan><tspan y="0" letter-spacing="0.155em">I</tspan><tspan y="0" letter-spacing="0.176em">NA</tspan><tspan y="0" letter-spacing="0.16em">N</tspan><tspan y="0" letter-spacing="0.158em">C</tspan><tspan y="0" letter-spacing="0.166em">E</tspan><tspan y="0" letter-spacing="0.171em">@</tspan><tspan y="0" letter-spacing="0.145em">C</tspan><tspan y="0" letter-spacing="0.159em">O</tspan><tspan y="0" letter-spacing="0.156em">N</tspan><tspan y="0" letter-spacing="0.155em">D</tspan><tspan y="0" letter-spacing="0.176em">A</tspan><tspan y="0" letter-spacing="0.155em">I</tspan><tspan y="0">R</tspan></text>
        <path id="Path_1" data-name="Path 1" d="M402.712,39.912c.407,0,.737.165.737.37s-.33.369-.737.369-.737-.165-.737-.369.33-.37.737-.37" transform="translate(211.976 242.196)" fill="#fff"/>
        <path id="Path_2" data-name="Path 2" d="M404.687,36.741c.646,0,1.17.262,1.17.587s-.524.587-1.17.587-1.17-.263-1.17-.587.524-.587,1.17-.587" transform="translate(210.901 244.405)" fill="#fff"/>
        <path id="Path_3" data-name="Path 3" d="M400.238,30.946c1.083,0,1.96.44,1.96.983s-.878.983-1.96.983-1.96-.44-1.96-.983.878-.983,1.96-.983" transform="translate(214.551 248.442)" fill="#fff"/>
        <path id="Path_4" data-name="Path 4" d="M399.075,40.794c.288,0,.522.117.522.262s-.234.262-.522.262-.522-.117-.522-.262.234-.262.522-.262" transform="translate(214.359 241.582)" fill="#fff"/>
        <path id="Path_5" data-name="Path 5" d="M433.082,29.179h-.477v1.9h.477Zm-16.5.9c0,.252-.033.5-.316.5s-.312-.245-.312-.5.029-.493.312-.493.316.241.316.493m.477.935V29.179h-.462v.179a.561.561,0,0,0-.466-.2.646.646,0,0,0-.458.168.979.979,0,0,0-.194.752.989.989,0,0,0,.194.756.638.638,0,0,0,.455.168.56.56,0,0,0,.455-.19v.194a.361.361,0,0,1-.385.395.488.488,0,0,1-.374-.146l-.3.3a.894.894,0,0,0,.693.248.775.775,0,0,0,.84-.789m1.375-.632a.313.313,0,0,1-.07.241.379.379,0,0,1-.3.091c-.187,0-.275-.088-.275-.219s.1-.215.268-.215h.378Zm.011.7h.466V29.829c0-.446-.279-.672-.814-.672a.8.8,0,0,0-.69.263l.3.3a.411.411,0,0,1,.367-.157c.253,0,.356.091.356.3v.095h-.451c-.444,0-.653.248-.653.552a.609.609,0,0,0,.158.427.654.654,0,0,0,.488.168.582.582,0,0,0,.469-.183Zm3.055,0h.477V29.866a.716.716,0,0,0-.209-.541.668.668,0,0,0-.47-.168.73.73,0,0,0-.572.241.593.593,0,0,0-.506-.241.67.67,0,0,0-.477.2v-.175h-.466v1.9h.477V29.932a.318.318,0,1,1,.634,0v1.151h.477V29.921a.318.318,0,1,1,.634.011Zm1.218-1.129a.519.519,0,0,1,.044-.2.356.356,0,0,1,.638,0,.519.519,0,0,1,.044.2Zm0,.325h1.2v-.212a.82.82,0,0,0-.833-.91c-.5,0-.832.351-.832.972,0,.771.433.975.884.975a.912.912,0,0,0,.726-.3l-.29-.281a.53.53,0,0,1-.433.179.394.394,0,0,1-.418-.424m2.563-.548c0-.095.081-.183.272-.183a.666.666,0,0,1,.444.128l.293-.3a1.018,1.018,0,0,0-.73-.223c-.389,0-.737.212-.737.606,0,.351.213.5.558.533l.3.029c.15.015.2.08.2.175,0,.143-.172.2-.337.2a.7.7,0,0,1-.51-.179l-.312.311a1.041,1.041,0,0,0,.814.274c.451,0,.81-.2.81-.621,0-.322-.191-.522-.568-.559l-.3-.029c-.169-.015-.2-.095-.2-.164m2.4.4a.651.651,0,0,1-.11.464.3.3,0,0,1-.224.084.293.293,0,0,1-.22-.084.651.651,0,0,1-.11-.464.641.641,0,0,1,.11-.46.293.293,0,0,1,.22-.084.3.3,0,0,1,.224.084.641.641,0,0,1,.11.46m.261.742a1.373,1.373,0,0,0,0-1.48.793.793,0,0,0-.594-.234.784.784,0,0,0-.59.234,1.373,1.373,0,0,0,0,1.48.785.785,0,0,0,.59.234.794.794,0,0,0,.594-.234m1.063.212h.272v-.4h-.183c-.121,0-.169-.058-.169-.172V28.481h-.477v2.057a.518.518,0,0,0,.557.544m1.606,0h.466v-1.9H430.6V30.33a.318.318,0,1,1-.634,0V29.179h-.477V30.4a.7.7,0,0,0,.194.541.622.622,0,0,0,.451.168.655.655,0,0,0,.477-.2Zm1.453,0h.26v-.4h-.173c-.113,0-.165-.062-.165-.172V29.6h.337v-.362h-.337v-.563h-.477v.563h-.2V29.6h.2v.943a.517.517,0,0,0,.554.544m1.082-2.44a.3.3,0,0,0-.6,0,.3.3,0,1,0,.6,0m1.386,1.487a.649.649,0,0,1-.11.464.3.3,0,0,1-.224.084.292.292,0,0,1-.22-.084.65.65,0,0,1-.11-.464.64.64,0,0,1,.11-.46.292.292,0,0,1,.22-.084.3.3,0,0,1,.224.084.639.639,0,0,1,.11.46m.26.742a1.371,1.371,0,0,0,0-1.48.793.793,0,0,0-.594-.234.783.783,0,0,0-.59.234,1.372,1.372,0,0,0,0,1.48.784.784,0,0,0,.59.234.794.794,0,0,0,.594-.234m1.617.212h.477V29.866a.7.7,0,0,0-.194-.541.621.621,0,0,0-.451-.168.654.654,0,0,0-.477.2v-.175h-.466v1.9h.477V29.932a.318.318,0,1,1,.634,0Zm2.516-.7a.313.313,0,0,1-.069.241.379.379,0,0,1-.3.091c-.187,0-.275-.088-.275-.219s.1-.215.268-.215h.378Zm.011.7h.466V29.829c0-.446-.279-.672-.814-.672a.8.8,0,0,0-.69.263l.3.3a.411.411,0,0,1,.367-.157c.253,0,.356.091.356.3v.095h-.451c-.444,0-.653.248-.653.552a.609.609,0,0,0,.158.427.654.654,0,0,0,.488.168.583.583,0,0,0,.47-.183Zm1.855-1c0,.252-.033.5-.315.5s-.312-.245-.312-.5.029-.493.312-.493.315.241.315.493m.477.935V29.179H440.8v.179a.561.561,0,0,0-.466-.2.646.646,0,0,0-.459.168.979.979,0,0,0-.194.752.989.989,0,0,0,.194.756.638.638,0,0,0,.455.168.56.56,0,0,0,.454-.19v.194a.36.36,0,0,1-.385.395.488.488,0,0,1-.374-.146l-.3.3a.9.9,0,0,0,.693.248.775.775,0,0,0,.84-.789" transform="translate(202.571 250.254)" fill="#f58720"/>
      </g>
    </g>
  </g>
</svg>
