<svg xmlns="http://www.w3.org/2000/svg" xmlns:xlink="http://www.w3.org/1999/xlink" width="53.373" height="10.32" viewBox="0 0 53.373 10.32">
  <defs>
    <clipPath id="clip-path">
      <rect id="Rectangle_2126" data-name="Rectangle 2126" width="53.373" height="10.32" fill="none"/>
    </clipPath>
  </defs>
  <g id="Group_3584" data-name="Group 3584" transform="translate(-555.61 -392.352)">
    <g id="Group_1" data-name="Group 1" transform="translate(555.61 392.352)">
      <g id="Group_3581" data-name="Group 3581" clip-path="url(#clip-path)">
        <path id="Path_624" data-name="Path 624" d="M213.394,798.057c2.171,0,2.406.955,4.787.955a4.378,4.378,0,0,0,3.523-1.563,5.618,5.618,0,0,1-1.612,2.233,4.765,4.765,0,0,1-3.039.967c-1.625,0-2.7-1-4.44-1a4.381,4.381,0,0,0-2.94.98,3.7,3.7,0,0,1,3.721-2.567" transform="translate(-209.673 -792.872)" fill="#0058a7"/>
        <path id="Path_625" data-name="Path 625" d="M217.768,790.453c2.171,0,2.407.955,4.788.955a4.378,4.378,0,0,0,3.523-1.563,5.623,5.623,0,0,1-1.613,2.233,4.765,4.765,0,0,1-3.039.967c-1.625,0-2.7-1-4.441-1a4.379,4.379,0,0,0-2.94.98,3.7,3.7,0,0,1,3.721-2.567" transform="translate(-212.72 -787.575)" fill="#70a3d9"/>
        <path id="Path_626" data-name="Path 626" d="M221.939,782.97c2.171,0,2.406.955,4.788.955a4.378,4.378,0,0,0,3.523-1.563,5.618,5.618,0,0,1-1.612,2.233,4.766,4.766,0,0,1-3.039.967c-1.625,0-2.7-1-4.441-1a4.378,4.378,0,0,0-2.94.98,3.7,3.7,0,0,1,3.721-2.568" transform="translate(-215.626 -782.363)" fill="#c2daf3"/>
        <path id="Path_627" data-name="Path 627" d="M256.245,799.386c.112.372-.273.5-.447.57a3.985,3.985,0,0,1-1.5.273,2.634,2.634,0,0,1-2.841-2.865,4.015,4.015,0,0,1,3.783-4.168,3.253,3.253,0,0,1,1.575.385c.211.112.347.261.347.434a.365.365,0,0,1-.074.211l-.472.719a.4.4,0,0,1-.347.224c-.161,0-.235-.075-.434-.137a1.646,1.646,0,0,0-.608-.112c-.782,0-1.662.831-1.662,2.332,0,.905.484,1.24,1.166,1.24a2.217,2.217,0,0,0,.657-.112c.174-.05.509-.186.62.2Z" transform="translate(-238.781 -789.909)" fill="#0058a7"/>
        <path id="Path_628" data-name="Path 628" d="M273.016,793.2c-2.369,0-3.808,1.972-3.858,4.217a2.6,2.6,0,0,0,2.828,2.816c2.481,0,3.82-2,3.87-4.242a2.61,2.61,0,0,0-2.84-2.791m-.856,5.321c-.645,0-.918-.5-.906-1.228.025-1.315.707-2.381,1.588-2.381.645,0,.918.5.906,1.24-.025,1.364-.707,2.369-1.588,2.369" transform="translate(-251.111 -789.91)" fill="#0058a7"/>
        <path id="Path_629" data-name="Path 629" d="M293.977,799.535c-.062.335-.223.533-.546.533h-1.166c-.261,0-.422-.161-.36-.471l.942-4.949a1.114,1.114,0,0,1,.707-.893,6.288,6.288,0,0,1,2.617-.558c2.1,0,2.766,1.364,2.456,3.089l-.583,3.25c-.062.335-.223.533-.546.533h-1.166c-.261,0-.409-.161-.359-.471l.607-3.473a2.069,2.069,0,0,0,.037-.359c0-.471-.211-.794-.744-.794a3.972,3.972,0,0,0-.6.05c-.4.062-.508.186-.583.533Z" transform="translate(-266.949 -789.91)" fill="#0058a7"/>
        <path id="Path_630" data-name="Path 630" d="M323.373,783.709a9.328,9.328,0,0,0-1.166.162.561.561,0,0,0-.546.484l-.422,2.431a3.837,3.837,0,0,0-1.066-.173c-2.345,0-3.87,1.959-3.87,4.292a2.621,2.621,0,0,0,2.8,2.716c1.922,0,3.125-.893,3.435-2.679l1.2-6.834c.049-.3-.137-.41-.373-.4m-2.865,7.12a1.144,1.144,0,0,1-1.191,1.092c-.508,0-.967-.4-.967-1.216,0-.955.434-2.419,1.761-2.419a1.987,1.987,0,0,1,.831.149Z" transform="translate(-283.954 -783.3)" fill="#0058a7"/>
        <path id="Path_631" data-name="Path 631" d="M342.393,793.2a5.473,5.473,0,0,0-2.146.434.424.424,0,0,0-.285.633l.285.657c.161.36.434.248.583.186a3.785,3.785,0,0,1,1.253-.3c.794,0,1.19.323,1.091.955l-.025.149a6.987,6.987,0,0,0-1.017-.075c-1.662,0-3.275.62-3.188,2.506a2.146,2.146,0,0,0,2.382,1.885c1.922,0,3.076-.819,3.349-2.381l.31-1.724a4.036,4.036,0,0,0,.062-.657c0-1.426-.98-2.27-2.654-2.27m.434,4.564c-.086.6-.607.881-1.277.881-.484,0-.769-.236-.769-.632,0-.658.67-.831,1.315-.831a5.112,5.112,0,0,1,.819.075Z" transform="translate(-299.724 -789.91)" fill="#0058a7"/>
        <path id="Path_632" data-name="Path 632" d="M360.665,794.044a.561.561,0,0,1,.545-.484,10.022,10.022,0,0,1,1.2-.161c.236-.012.422.1.372.4l-1.03,5.879c-.062.335-.223.533-.545.533H360.02c-.261,0-.409-.161-.36-.471Z" transform="translate(-314.151 -790.05)" fill="#0058a7"/>
      </g>
    </g>
    <g id="Group_2" data-name="Group 2" transform="translate(555.61 392.352)">
      <g id="Group_3583" data-name="Group 3583" clip-path="url(#clip-path)">
        <path id="Path_633" data-name="Path 633" d="M364.837,783.629a1.021,1.021,0,0,1,1.066,1.191,1.256,1.256,0,0,1-1.3,1.067,1.026,1.026,0,0,1-1.1-1.191,1.329,1.329,0,0,1,1.34-1.067" transform="translate(-316.822 -783.245)" fill="#0058a7"/>
        <path id="Path_634" data-name="Path 634" d="M370.462,795.426a2.434,2.434,0,0,1,2.679-2.108,5.9,5.9,0,0,1,1.017.049c.31.05.41.211.36.471l-.161.881c-.05.3-.286.31-.546.31h-.248a.981.981,0,0,0-1.117.955l-.633,3.635c-.062.335-.223.533-.546.533h-1.191c-.26,0-.409-.161-.359-.471Z" transform="translate(-321.157 -789.994)" fill="#0058a7"/>
      </g>
    </g>
  </g>
</svg>
