<svg xmlns="http://www.w3.org/2000/svg" width="144.687" height="20.371" viewBox="0 0 144.687 20.371">
  <g id="Group_4247" data-name="Group 4247" transform="translate(-791.371 -423.595)">
    <path id="Path_2" data-name="Path 2" d="M2.22-5.88v1.75H5.03v1.24H2.22V0H.83V-7.12H5.52v1.24ZM9.84,0V-7.12h1.39V0ZM20.15,0,17.33-4.37V0H15.94V-7.12h1.24L20-2.76V-7.12h1.39V0Zm8.56-5.02-.9,2.59h1.77ZM30.37,0l-.42-1.26H27.42L26.99,0H25.54l2.59-7.12h1.09L31.82,0Zm9.81,0L37.36-4.37V0H35.97V-7.12h1.24l2.82,4.36V-7.12h1.39V0ZM50.54-.76a3.037,3.037,0,0,1-.84.6,2.633,2.633,0,0,1-1.14.22,2.72,2.72,0,0,1-1.065-.2,2.663,2.663,0,0,1-.855-.58,2.077,2.077,0,0,1-.415-.575,2.5,2.5,0,0,1-.205-.655,5.215,5.215,0,0,1-.07-.75q-.01-.4-.01-.86t.01-.86a5.215,5.215,0,0,1,.07-.75,2.5,2.5,0,0,1,.205-.655A2.077,2.077,0,0,1,46.64-6.4a2.663,2.663,0,0,1,.855-.58,2.72,2.72,0,0,1,1.065-.2,2.583,2.583,0,0,1,1.14.225,3.24,3.24,0,0,1,.84.6l-.92.92a2.32,2.32,0,0,0-.46-.365,1.176,1.176,0,0,0-.6-.135,1.221,1.221,0,0,0-.51.1,1.084,1.084,0,0,0-.37.27,1.148,1.148,0,0,0-.17.245,1.278,1.278,0,0,0-.11.355,4.282,4.282,0,0,0-.055.56q-.015.34-.015.85t.015.85a4.282,4.282,0,0,0,.055.56,1.278,1.278,0,0,0,.11.355,1.148,1.148,0,0,0,.17.245,1.084,1.084,0,0,0,.37.27,1.221,1.221,0,0,0,.51.1,1.176,1.176,0,0,0,.6-.135,2.32,2.32,0,0,0,.46-.365ZM54.88,0V-7.12h4.69v1.24h-3.3v1.67h2.81v1.24H56.27v1.73h3.3V0ZM69.02-2.31a2.081,2.081,0,0,0-.175-.94.668.668,0,0,0-.655-.34.657.657,0,0,0-.65.34,2.134,2.134,0,0,0-.17.94,2.168,2.168,0,0,0,.17.945.655.655,0,0,0,.65.345.666.666,0,0,0,.655-.345A2.114,2.114,0,0,0,69.02-2.31ZM69.05,0V-.46a1.708,1.708,0,0,1-.51.39,1.592,1.592,0,0,1-.69.13,1.647,1.647,0,0,1-1.26-.5,1.473,1.473,0,0,1-.245-.35A1.8,1.8,0,0,1,66.2-1.2a3.073,3.073,0,0,1-.065-.5q-.015-.27-.015-.61a6.112,6.112,0,0,1,.08-1.1,1.523,1.523,0,0,1,.38-.755,1.516,1.516,0,0,1,.545-.375,1.846,1.846,0,0,1,.715-.135,1.7,1.7,0,0,1,.665.12,1.477,1.477,0,0,1,.515.37v-.45a1.985,1.985,0,0,0-.075-.57,1.064,1.064,0,0,0-.275-.45,1.064,1.064,0,0,0-.45-.275A1.908,1.908,0,0,0,67.67-6H66.43a1.981,1.981,0,0,0-.545.07,1.053,1.053,0,0,0-.455.28,1.043,1.043,0,0,0-.285.46,2.154,2.154,0,0,0-.065.56v2.89a2.26,2.26,0,0,0,.02.325.872.872,0,0,0,.075.25.888.888,0,0,0,.14.21q.085.095.205.2l-.9.9a3.694,3.694,0,0,1-.36-.37,1.7,1.7,0,0,1-.245-.39,1.944,1.944,0,0,1-.14-.465,3.462,3.462,0,0,1-.045-.595V-4.66a3.867,3.867,0,0,1,.135-1.075,1.877,1.877,0,0,1,.485-.815,1.837,1.837,0,0,1,.81-.48,3.951,3.951,0,0,1,1.07-.13h1.44a3.979,3.979,0,0,1,1.06.13,1.833,1.833,0,0,1,.82.48,1.837,1.837,0,0,1,.48.81,3.994,3.994,0,0,1,.13,1.08V.03ZM79.24-.76a3.037,3.037,0,0,1-.84.6,2.633,2.633,0,0,1-1.14.22,2.72,2.72,0,0,1-1.065-.2,2.663,2.663,0,0,1-.855-.58,2.077,2.077,0,0,1-.415-.575,2.5,2.5,0,0,1-.205-.655,5.214,5.214,0,0,1-.07-.75q-.01-.4-.01-.86t.01-.86a5.214,5.214,0,0,1,.07-.75,2.5,2.5,0,0,1,.205-.655A2.077,2.077,0,0,1,75.34-6.4a2.663,2.663,0,0,1,.855-.58,2.72,2.72,0,0,1,1.065-.2,2.583,2.583,0,0,1,1.14.225,3.24,3.24,0,0,1,.84.6l-.92.92a2.32,2.32,0,0,0-.46-.365,1.176,1.176,0,0,0-.6-.135,1.221,1.221,0,0,0-.51.1,1.084,1.084,0,0,0-.37.27,1.148,1.148,0,0,0-.17.245,1.278,1.278,0,0,0-.11.355,4.283,4.283,0,0,0-.055.56q-.015.34-.015.85t.015.85a4.283,4.283,0,0,0,.055.56,1.278,1.278,0,0,0,.11.355,1.148,1.148,0,0,0,.17.245,1.084,1.084,0,0,0,.37.27,1.221,1.221,0,0,0,.51.1,1.176,1.176,0,0,0,.6-.135,2.32,2.32,0,0,0,.46-.365Zm7.51-2.8q0-.51-.015-.845a4.256,4.256,0,0,0-.055-.555,1.278,1.278,0,0,0-.11-.355,1.148,1.148,0,0,0-.17-.245,1.129,1.129,0,0,0-.375-.275,1.2,1.2,0,0,0-.515-.1,1.239,1.239,0,0,0-.52.1,1.117,1.117,0,0,0-.38.275,1.02,1.02,0,0,0-.165.245,1.417,1.417,0,0,0-.1.355,4.256,4.256,0,0,0-.055.555q-.015.335-.015.845t.015.845a4.256,4.256,0,0,0,.055.555,1.417,1.417,0,0,0,.1.355,1.02,1.02,0,0,0,.165.245,1.117,1.117,0,0,0,.38.275,1.239,1.239,0,0,0,.52.1,1.2,1.2,0,0,0,.515-.1A1.129,1.129,0,0,0,86.4-1.56a1.148,1.148,0,0,0,.17-.245,1.278,1.278,0,0,0,.11-.355,4.256,4.256,0,0,0,.055-.555Q86.75-3.05,86.75-3.56Zm1.39,0q0,.46-.01.86a4.761,4.761,0,0,1-.075.75,2.642,2.642,0,0,1-.21.655,2.077,2.077,0,0,1-.415.575,2.7,2.7,0,0,1-.845.58,2.7,2.7,0,0,1-1.075.2,2.737,2.737,0,0,1-1.08-.2,2.68,2.68,0,0,1-.85-.58,2.077,2.077,0,0,1-.415-.575,2.5,2.5,0,0,1-.205-.655,5.214,5.214,0,0,1-.07-.75q-.01-.4-.01-.86t.01-.86a5.214,5.214,0,0,1,.07-.75,2.5,2.5,0,0,1,.205-.655A2.077,2.077,0,0,1,83.58-6.4a2.68,2.68,0,0,1,.85-.58,2.737,2.737,0,0,1,1.08-.2,2.7,2.7,0,0,1,1.075.2,2.7,2.7,0,0,1,.845.58,2.077,2.077,0,0,1,.415.575,2.642,2.642,0,0,1,.21.655,4.761,4.761,0,0,1,.075.75Q88.14-4.02,88.14-3.56ZM96.87,0,94.05-4.37V0H92.66V-7.12H93.9l2.82,4.36V-7.12h1.39V0Zm9.73-3.59q0-.4-.01-.695a5.156,5.156,0,0,0-.04-.515,1.582,1.582,0,0,0-.09-.37,1,1,0,0,0-.16-.27,1.147,1.147,0,0,0-.43-.33,1.512,1.512,0,0,0-.61-.11h-1.05v4.64h1.05a1.512,1.512,0,0,0,.61-.11,1.147,1.147,0,0,0,.43-.33,1.338,1.338,0,0,0,.245-.67A10.493,10.493,0,0,0,106.6-3.59Zm1.39,0v.8a4.741,4.741,0,0,1-.06.76,2.9,2.9,0,0,1-.21.71,2.116,2.116,0,0,1-.45.64,2.136,2.136,0,0,1-.835.515A3.224,3.224,0,0,1,105.39,0h-2.57V-7.12h2.57a3.224,3.224,0,0,1,1.045.165,2.136,2.136,0,0,1,.835.515,2.162,2.162,0,0,1,.45.63,2.755,2.755,0,0,1,.21.69,4.557,4.557,0,0,1,.06.75Zm6.77-1.43-.9,2.59h1.77ZM116.42,0,116-1.26h-2.53L113.04,0h-1.45l2.59-7.12h1.09L117.87,0Zm5.6,0V-7.12h1.39V0Zm9.82-4.94a.893.893,0,0,0-.275-.68,1.026,1.026,0,0,0-.735-.26h-1.31V-4h1.31a1.026,1.026,0,0,0,.735-.26A.893.893,0,0,0,131.84-4.94ZM131.91,0l-1.39-2.84h-1V0h-1.39V-7.12h2.79a2.553,2.553,0,0,1,.97.175,2.221,2.221,0,0,1,.73.47,1.962,1.962,0,0,1,.455.69,2.292,2.292,0,0,1,.155.845,2.051,2.051,0,0,1-.1.68,1.91,1.91,0,0,1-.285.535,1.886,1.886,0,0,1-.415.4,1.994,1.994,0,0,1-.495.255L133.52,0Z" transform="translate(802.538 430.775)" fill="#c7daea"/>
    <g id="Group_4246" data-name="Group 4246" transform="translate(179 256.09)">
      <path id="Path_491" data-name="Path 491" d="M1819.951,1392.265c.907,0,1.643.369,1.643.824s-.736.823-1.643.823-1.642-.368-1.642-.823.735-.824,1.642-.824" transform="translate(-1203.437 -1206.152)" fill="#fff"/>
      <path id="Path_492" data-name="Path 492" d="M1824,1385.924c1.441,0,2.609.585,2.609,1.308s-1.168,1.308-2.609,1.308-2.609-.586-2.609-1.308,1.168-1.308,2.609-1.308" transform="translate(-1205.478 -1201.956)" fill="#fff"/>
      <path id="Path_493" data-name="Path 493" d="M1815.284,1374.334c2.413,0,4.37.981,4.37,2.191s-1.956,2.192-4.37,2.192-4.37-.981-4.37-2.192,1.957-2.191,4.37-2.191" transform="translate(-1198.543 -1194.285)" fill="#fff"/>
      <path id="Path_494" data-name="Path 494" d="M1812.625,1394.03c.643,0,1.163.261,1.163.583s-.521.583-1.163.583-1.164-.261-1.164-.583.521-.583,1.164-.583" transform="translate(-1198.904 -1207.321)" fill="#fff"/>
      <path id="Path_495" data-name="Path 495" d="M1884.557,1370.992h-1.062v4.243h1.063Zm-36.79,2c0,.562-.074,1.108-.7,1.108s-.695-.546-.695-1.108.065-1.1.695-1.1.7.538.7,1.1m1.062,2.085v-4.088h-1.03v.4a1.248,1.248,0,0,0-1.038-.448,1.44,1.44,0,0,0-1.022.375,3.48,3.48,0,0,0,0,3.364,1.419,1.419,0,0,0,1.013.375,1.252,1.252,0,0,0,1.014-.423v.431a.8.8,0,0,1-.859.879,1.085,1.085,0,0,1-.834-.326l-.662.668a2,2,0,0,0,1.545.554,1.726,1.726,0,0,0,1.872-1.759m3.066-1.409a.694.694,0,0,1-.156.537.844.844,0,0,1-.67.2c-.417,0-.613-.2-.613-.489s.213-.481.6-.481h.842Zm.024,1.564h1.038v-2.794c0-.993-.622-1.5-1.815-1.5a1.794,1.794,0,0,0-1.537.586l.679.659a.916.916,0,0,1,.818-.35c.564,0,.793.2.793.667v.212h-1.006c-.989,0-1.456.554-1.456,1.23a1.357,1.357,0,0,0,.352.953,1.457,1.457,0,0,0,1.087.375,1.3,1.3,0,0,0,1.046-.407Zm6.81,0h1.063v-2.712a1.6,1.6,0,0,0-.466-1.205,1.491,1.491,0,0,0-1.047-.375,1.627,1.627,0,0,0-1.275.537,1.322,1.322,0,0,0-1.128-.537,1.494,1.494,0,0,0-1.063.44v-.391h-1.038v4.243h1.063v-2.565a.71.71,0,1,1,1.415,0v2.565h1.062v-2.59a.709.709,0,1,1,1.415.024Zm2.715-2.517a1.163,1.163,0,0,1,.1-.456.795.795,0,0,1,1.423,0,1.164,1.164,0,0,1,.1.456Zm0,.725h2.665v-.472a1.828,1.828,0,0,0-1.856-2.028c-1.1,0-1.856.781-1.856,2.166,0,1.719.965,2.174,1.97,2.174a2.031,2.031,0,0,0,1.619-.668l-.646-.627a1.182,1.182,0,0,1-.965.4.878.878,0,0,1-.932-.945m5.715-1.221c0-.212.18-.407.6-.407a1.487,1.487,0,0,1,.99.285l.654-.66a2.269,2.269,0,0,0-1.627-.5c-.867,0-1.644.472-1.644,1.352,0,.782.474,1.116,1.243,1.189l.67.065c.335.033.45.179.45.391,0,.318-.384.44-.752.44a1.549,1.549,0,0,1-1.136-.4l-.7.693a2.322,2.322,0,0,0,1.815.611c1.006,0,1.807-.448,1.807-1.384,0-.717-.425-1.165-1.267-1.246l-.671-.065c-.376-.033-.441-.212-.441-.367m5.347.888a1.45,1.45,0,0,1-.246,1.034.673.673,0,0,1-.5.187.654.654,0,0,1-.49-.187,1.453,1.453,0,0,1-.245-1.034,1.43,1.43,0,0,1,.245-1.026.653.653,0,0,1,.49-.187.672.672,0,0,1,.5.188,1.427,1.427,0,0,1,.246,1.026m.58,1.653a3.059,3.059,0,0,0,0-3.3,1.768,1.768,0,0,0-1.324-.521,1.747,1.747,0,0,0-1.316.521,3.06,3.06,0,0,0,0,3.3,1.748,1.748,0,0,0,1.316.521,1.769,1.769,0,0,0,1.324-.521m2.371.472h.6v-.9h-.409c-.27,0-.376-.131-.376-.383v-4.52h-1.063v4.585a1.156,1.156,0,0,0,1.243,1.214m3.581,0h1.038v-4.243h-1.063v2.565a.71.71,0,1,1-1.415,0v-2.565h-1.063v2.712a1.57,1.57,0,0,0,.433,1.205,1.385,1.385,0,0,0,1.006.375,1.461,1.461,0,0,0,1.063-.439Zm3.238,0h.58v-.9h-.384c-.253,0-.368-.139-.368-.383v-2.036h.752v-.806h-.752v-1.254h-1.063v1.254h-.45v.806h.45v2.1a1.153,1.153,0,0,0,1.235,1.214m2.412-5.44a.658.658,0,0,0-.662-.66.665.665,0,0,0-.67.66.672.672,0,0,0,.67.668.665.665,0,0,0,.662-.668m3.09,3.314a1.45,1.45,0,0,1-.246,1.034.673.673,0,0,1-.5.187.654.654,0,0,1-.49-.187,1.453,1.453,0,0,1-.245-1.034,1.43,1.43,0,0,1,.245-1.026.653.653,0,0,1,.49-.187.672.672,0,0,1,.5.188,1.427,1.427,0,0,1,.246,1.026m.581,1.653a3.06,3.06,0,0,0,0-3.3,1.769,1.769,0,0,0-1.325-.521,1.748,1.748,0,0,0-1.316.521,3.06,3.06,0,0,0,0,3.3,1.749,1.749,0,0,0,1.316.521,1.77,1.77,0,0,0,1.325-.521m3.605.472h1.063v-2.712a1.57,1.57,0,0,0-.434-1.205,1.386,1.386,0,0,0-1.005-.375,1.461,1.461,0,0,0-1.063.44v-.391h-1.038v4.243h1.063v-2.565a.71.71,0,1,1,1.415,0Zm5.609-1.564a.7.7,0,0,1-.156.537.844.844,0,0,1-.67.2c-.417,0-.613-.2-.613-.489s.213-.481.6-.481h.842Zm.024,1.564h1.038v-2.794c0-.993-.621-1.5-1.815-1.5a1.794,1.794,0,0,0-1.537.586l.678.659a.917.917,0,0,1,.818-.35c.564,0,.793.2.793.667v.212h-1.006c-.989,0-1.455.554-1.455,1.23a1.356,1.356,0,0,0,.351.953,1.457,1.457,0,0,0,1.087.375,1.3,1.3,0,0,0,1.047-.407Zm4.137-2.24c0,.562-.074,1.108-.7,1.108s-.695-.546-.695-1.108.065-1.1.695-1.1.7.538.7,1.1m1.063,2.085v-4.088h-1.03v.4a1.248,1.248,0,0,0-1.038-.448,1.44,1.44,0,0,0-1.022.375,3.478,3.478,0,0,0,0,3.364,1.419,1.419,0,0,0,1.014.375,1.25,1.25,0,0,0,1.014-.423v.431a.8.8,0,0,1-.859.879,1.085,1.085,0,0,1-.834-.326l-.662.668a2,2,0,0,0,1.545.554,1.727,1.727,0,0,0,1.872-1.759" transform="translate(-1221.305 -1190.844)" fill="#fe8a1e"/>
    </g>
  </g>
</svg>
