<svg xmlns="http://www.w3.org/2000/svg" xmlns:xlink="http://www.w3.org/1999/xlink" width="483.376" height="93.46" viewBox="0 0 483.376 93.46">
  <defs>
    <clipPath id="clip-path">
      <rect id="Rectangle_2029" data-name="Rectangle 2029" width="483.376" height="93.46" fill="none"/>
    </clipPath>
    <clipPath id="clip-path-2">
      <rect id="Rectangle_2030" data-name="Rectangle 2030" width="483.375" height="93.46" fill="none"/>
    </clipPath>
  </defs>
  <g id="Group_3944" data-name="Group 3944" transform="translate(-14.225 -17.361)">
    <g id="Group_3485" data-name="Group 3485" transform="translate(14.225 17.361)" clip-path="url(#clip-path)">
      <path id="Path_501" data-name="Path 501" d="M1864.882,1579.522c19.657,0,21.792,8.65,43.36,8.65,20.221,0,30.22-11.908,31.9-14.154a50.879,50.879,0,0,1-14.6,20.22c-7.528,6.065-17.187,8.762-27.523,8.762-14.715,0-24.488-9.1-40.216-9.1-13.03,0-22.354,4.829-26.623,8.873,2.021-6.291,10-23.253,33.7-23.253" transform="translate(-1831.181 -1532.567)" fill="#0a51a1"/>
      <path id="Path_502" data-name="Path 502" d="M1877.145,1558.2c19.659,0,21.794,8.648,43.362,8.648,20.222,0,30.218-11.905,31.9-14.153a50.893,50.893,0,0,1-14.6,20.221c-7.525,6.064-17.187,8.761-27.52,8.761-14.718,0-24.491-9.1-40.216-9.1-13.033,0-22.357,4.831-26.625,8.874,2.022-6.29,10-23.252,33.7-23.252" transform="translate(-1831.426 -1532.141)" fill="#80a2cc"/>
      <path id="Path_503" data-name="Path 503" d="M1888.838,1537.224c19.658,0,21.792,8.652,43.361,8.652,20.219,0,30.218-11.908,31.9-14.153a50.876,50.876,0,0,1-14.6,20.219c-7.525,6.065-17.19,8.761-27.521,8.761-14.716,0-24.49-9.1-40.216-9.1-13.033,0-22.355,4.833-26.626,8.877,2.024-6.29,10-23.255,33.7-23.255" transform="translate(-1831.66 -1531.722)" fill="#c7daea"/>
      <path id="Path_504" data-name="Path 504" d="M1991.688,1618.153c1.012,3.369-2.472,4.492-4.043,5.165a36.087,36.087,0,0,1-13.592,2.472c-18.086,0-25.726-12.02-25.726-25.949,0-18.982,13.93-37.744,34.262-37.744a29.446,29.446,0,0,1,14.267,3.482c1.91,1.012,3.143,2.359,3.143,3.932a3.279,3.279,0,0,1-.671,1.909l-4.27,6.513a3.658,3.658,0,0,1-3.146,2.025c-1.459,0-2.134-.675-3.93-1.235a14.9,14.9,0,0,0-5.5-1.015c-7.079,0-15.053,7.528-15.053,21.122,0,8.2,4.381,11.232,10.559,11.232a20.056,20.056,0,0,0,5.955-1.01c1.573-.452,4.608-1.684,5.618,1.8Z" transform="translate(-1833.521 -1532.329)" fill="#0a51a1"/>
      <path id="Path_505" data-name="Path 505" d="M2032.9,1562.1c-21.457,0-34.487,17.862-34.939,38.2-.335,14.265,8.426,25.5,25.614,25.5,22.467,0,34.6-18.083,35.045-38.417.228-14.154-8.645-25.276-25.72-25.276m-7.751,48.192c-5.842,0-8.314-4.494-8.2-11.121.224-11.909,6.4-21.568,14.378-21.568,5.841,0,8.311,4.492,8.2,11.232-.227,12.357-6.4,21.456-14.379,21.456" transform="translate(-1834.512 -1532.329)" fill="#0a51a1"/>
      <path id="Path_506" data-name="Path 506" d="M2080.564,1619.5c-.56,3.035-2.023,4.829-4.944,4.829h-10.556c-2.361,0-3.82-1.458-3.258-4.268l8.534-44.822c1.013-5.055,3.482-6.629,6.406-8.088,6.18-3.145,15.61-5.055,23.7-5.055,18.986,0,25.051,12.358,22.244,27.974l-5.28,29.429c-.562,3.035-2.021,4.829-4.945,4.829h-10.559c-2.358,0-3.705-1.458-3.255-4.268l5.5-31.454a18.846,18.846,0,0,0,.337-3.256c0-4.268-1.909-7.19-6.739-7.19a35.975,35.975,0,0,0-5.4.45c-3.593.561-4.6,1.684-5.276,4.829Z" transform="translate(-1835.786 -1532.329)" fill="#0a51a1"/>
      <path id="Path_507" data-name="Path 507" d="M2194.152,1535.5a84.722,84.722,0,0,0-10.557,1.463c-1.8.334-4.27.786-4.944,4.38l-3.821,22.018a34.732,34.732,0,0,0-9.658-1.57c-21.233,0-35.047,17.746-35.047,38.866,0,16.624,12.354,24.6,25.387,24.6,17.406,0,28.306-8.086,31.115-24.263l10.9-61.894c.449-2.7-1.237-3.709-3.373-3.6m-25.946,64.481c-1.35,7.639-6.179,10-10.787,9.886-4.6,0-8.762-3.594-8.762-11.01,0-8.65,3.932-21.905,15.952-21.905a18.014,18.014,0,0,1,7.526,1.35Z" transform="translate(-1837.153 -1531.797)" fill="#0a51a1"/>
      <path id="Path_508" data-name="Path 508" d="M2224.853,1562.1c-7.637,0-13.032,1.458-19.433,3.933-1.8.672-4.157,2.134-2.583,5.731l2.583,5.949c1.459,3.26,3.931,2.249,5.278,1.688,3.257-1.236,7.526-2.695,11.348-2.695,7.189,0,10.781,2.918,9.883,8.647l-.223,1.35a63.23,63.23,0,0,0-9.212-.676c-15.052,0-29.656,5.619-28.87,22.693.452,11.009,10.56,17.073,21.567,17.073,17.413,0,27.861-7.414,30.333-21.566l2.807-15.616a36.44,36.44,0,0,0,.561-5.954c0-12.917-8.875-20.557-24.039-20.557m3.929,41.337c-.784,5.4-5.5,7.978-11.566,7.978-4.383,0-6.966-2.134-6.966-5.728,0-5.955,6.067-7.527,11.908-7.527a46.381,46.381,0,0,1,7.413.674Z" transform="translate(-1838.421 -1532.329)" fill="#0a51a1"/>
      <path id="Path_509" data-name="Path 509" d="M2260.839,1568.51c.67-3.6,3.143-4.044,4.942-4.381a90.991,90.991,0,0,1,10.9-1.461c2.137-.11,3.819.9,3.369,3.6l-9.323,53.247c-.563,3.034-2.023,4.83-4.94,4.83H2255c-2.36,0-3.707-1.458-3.26-4.268Z" transform="translate(-1839.581 -1532.34)" fill="#0a51a1"/>
    </g>
    <g id="Group_3488" data-name="Group 3488" transform="translate(14.225 17.361)">
      <g id="Group_3487" data-name="Group 3487" clip-path="url(#clip-path-2)">
        <path id="Path_510" data-name="Path 510" d="M2274.646,1535.272c6.177,0,10.446,4.607,9.659,10.786-.9,5.391-5.168,9.661-11.792,9.661-6.18,0-10.9-4.271-10-10.784.787-5.056,5.617-9.663,12.134-9.663" transform="translate(-1839.795 -1531.793)" fill="#0a51a1"/>
        <path id="Path_511" data-name="Path 511" d="M2286.675,1581.535c2.581-14.378,12.8-19.1,24.264-19.1a53.412,53.412,0,0,1,9.209.448c2.811.45,3.708,1.912,3.261,4.271l-1.46,7.978c-.448,2.695-2.586,2.8-4.947,2.8h-2.241c-6.068,0-8.989,2.362-10.114,8.653l-5.729,32.913c-.558,3.034-2.023,4.83-4.942,4.83h-10.784c-2.358,0-3.708-1.459-3.256-4.268Z" transform="translate(-1840.145 -1532.335)" fill="#0a51a1"/>
      </g>
    </g>
  </g>
</svg>
