<svg xmlns="http://www.w3.org/2000/svg" xmlns:xlink="http://www.w3.org/1999/xlink" width="223.937" height="65.514" viewBox="0 0 223.937 65.514">
  <defs>
    <clipPath id="clip-path">
      <rect id="Rectangle_1" data-name="Rectangle 1" width="223.937" height="43.298" transform="translate(279.212 229.962)" fill="none"/>
    </clipPath>
  </defs>
  <g id="Group_4" data-name="Group 4" transform="translate(-373 -361)">
    <g id="Group_3" data-name="Group 3" transform="translate(93.788 131.038)">
      <g id="Group_2" data-name="Group 2">
        <g id="Group_1" data-name="Group 1" clip-path="url(#clip-path)">
          <path id="Path_1" data-name="Path 1" d="M294.825,251.715c9.107,0,10.1,4.007,20.088,4.007,9.368,0,14-5.517,14.78-6.557a23.576,23.576,0,0,1-6.765,9.368,20,20,0,0,1-12.751,4.058c-6.817,0-11.345-4.214-18.631-4.214-6.036,0-10.356,2.237-12.334,4.111.937-2.915,4.632-10.773,15.613-10.773" fill="#0069b4"/>
          <path id="Path_2" data-name="Path 2" d="M300.393,242.036c9.108,0,10.1,4.007,20.089,4.007,9.368,0,14-5.516,14.78-6.557a23.588,23.588,0,0,1-6.766,9.368,20,20,0,0,1-12.75,4.058c-6.818,0-11.346-4.215-18.631-4.215-6.038,0-10.358,2.238-12.334,4.111.936-2.914,4.631-10.772,15.612-10.772" fill="#8ab2df"/>
          <path id="Path_3" data-name="Path 3" d="M305.7,232.511c9.107,0,10.1,4.008,20.088,4.008,9.367,0,14-5.517,14.78-6.557a23.558,23.558,0,0,1-6.765,9.367,19.991,19.991,0,0,1-12.75,4.059c-6.818,0-11.346-4.216-18.632-4.216-6.037,0-10.356,2.239-12.335,4.113.938-2.914,4.633-10.774,15.614-10.774" fill="#cfe0f5"/>
          <path id="Path_4" data-name="Path 4" d="M352.488,269.722c.469,1.56-1.146,2.081-1.873,2.393a16.715,16.715,0,0,1-6.3,1.145c-8.379,0-11.918-5.569-11.918-12.022,0-8.794,6.453-17.486,15.872-17.486a13.645,13.645,0,0,1,6.61,1.613c.885.47,1.456,1.094,1.456,1.823a1.522,1.522,0,0,1-.311.884l-1.978,3.017a1.694,1.694,0,0,1-1.457.938c-.676,0-.989-.312-1.822-.572a6.886,6.886,0,0,0-2.549-.47c-3.28,0-6.974,3.488-6.974,9.786,0,3.8,2.029,5.2,4.891,5.2a9.288,9.288,0,0,0,2.759-.468c.729-.209,2.135-.78,2.6.833Z" fill="#0069b4"/>
          <path id="Path_5" data-name="Path 5" d="M371.12,243.753c-9.941,0-15.977,8.275-16.186,17.694-.156,6.609,3.9,11.813,11.866,11.813,10.409,0,16.028-8.378,16.236-17.8.1-6.557-4.005-11.709-11.916-11.709m-3.591,22.326c-2.707,0-3.852-2.082-3.8-5.152.1-5.517,2.967-9.992,6.662-9.992,2.706,0,3.85,2.081,3.8,5.2-.1,5.725-2.966,9.94-6.661,9.94" fill="#0069b4"/>
          <path id="Path_6" data-name="Path 6" d="M392.613,270.346c-.26,1.406-.937,2.237-2.29,2.237h-4.891c-1.094,0-1.77-.675-1.509-1.977l3.953-20.764a4.679,4.679,0,0,1,2.967-3.748,26.393,26.393,0,0,1,10.981-2.341c8.8,0,11.6,5.725,10.3,12.959l-2.447,13.634c-.259,1.406-.935,2.237-2.29,2.237H402.5c-1.093,0-1.717-.675-1.508-1.977l2.549-14.572a8.746,8.746,0,0,0,.157-1.509c0-1.977-.885-3.33-3.122-3.33a16.7,16.7,0,0,0-2.5.208c-1.665.26-2.132.78-2.445,2.237Z" fill="#0069b4"/>
          <path id="Path_7" data-name="Path 7" d="M444.6,231.678a39.325,39.325,0,0,0-4.891.678,2.354,2.354,0,0,0-2.29,2.029l-1.77,10.2a16.1,16.1,0,0,0-4.474-.727c-9.837,0-16.237,8.221-16.237,18.005,0,7.7,5.723,11.4,11.761,11.4,8.065,0,13.114-3.746,14.415-11.241l5.049-28.674c.208-1.251-.574-1.718-1.563-1.667m-12.02,29.873c-.625,3.539-2.862,4.632-5,4.58-2.133,0-4.059-1.665-4.059-5.1,0-4.007,1.821-10.148,7.39-10.148a8.338,8.338,0,0,1,3.487.625Z" fill="#0069b4"/>
          <path id="Path_8" data-name="Path 8" d="M458.238,243.752a22.954,22.954,0,0,0-9,1.822,1.779,1.779,0,0,0-1.2,2.655l1.2,2.756c.676,1.511,1.821,1.042,2.445.782a15.864,15.864,0,0,1,5.257-1.249c3.331,0,4.995,1.353,4.579,4.007l-.1.625a29.326,29.326,0,0,0-4.268-.313c-6.974,0-13.739,2.6-13.375,10.513.209,5.1,4.892,7.91,9.992,7.91,8.067,0,12.908-3.435,14.052-9.991l1.3-7.235a16.8,16.8,0,0,0,.26-2.758c0-5.984-4.111-9.524-11.136-9.524m1.82,19.151c-.363,2.5-2.549,3.7-5.358,3.7-2.031,0-3.228-.989-3.228-2.654,0-2.759,2.811-3.487,5.517-3.487a21.4,21.4,0,0,1,3.434.313Z" fill="#0069b4"/>
          <path id="Path_9" data-name="Path 9" d="M474.373,246.719a2.353,2.353,0,0,1,2.289-2.029,42.175,42.175,0,0,1,5.047-.678c.99-.05,1.77.417,1.561,1.667l-4.319,24.667c-.261,1.406-.937,2.238-2.289,2.238h-5c-1.094,0-1.717-.676-1.51-1.977Z" fill="#0069b4"/>
          <path id="Path_10" data-name="Path 10" d="M480.669,231.574a4.286,4.286,0,0,1,4.475,5,5.273,5.273,0,0,1-5.464,4.476c-2.862,0-5.049-1.979-4.632-5a5.576,5.576,0,0,1,5.621-4.476" fill="#0069b4"/>
          <path id="Path_11" data-name="Path 11" d="M486.081,252.755c1.2-6.661,5.932-8.847,11.241-8.847a24.707,24.707,0,0,1,4.267.208c1.3.208,1.717.885,1.51,1.978l-.676,3.7c-.208,1.248-1.2,1.3-2.292,1.3h-1.038c-2.812,0-4.165,1.094-4.686,4.009l-2.654,15.248c-.259,1.4-.937,2.237-2.289,2.237h-5c-1.092,0-1.717-.676-1.508-1.977Z" fill="#0069b4"/>
        </g>
      </g>
      <path id="Path_12" data-name="Path 12" d="M1.032,0V-10.021H7.9v1.7H3.056v2.372H7.239v1.7H3.056V0ZM9.145,0V-10.021h2.023V0ZM13.06,0V-10.021h1.969l4.1,6.692v-6.692h1.88V0H18.98L14.94-6.535V0ZM32.075,0h-2.2L29-2.276H24.993L24.166,0H22.02l3.9-10.021h2.14ZM28.35-3.965,26.969-7.684,25.615-3.965ZM33.071,0V-10.021H35.04l4.1,6.692v-6.692h1.88V0h-2.03l-4.04-6.535V0ZM49.377-3.685l1.962.622a4.4,4.4,0,0,1-1.5,2.437,4.28,4.28,0,0,1-2.663.8,4.311,4.311,0,0,1-3.281-1.364A5.218,5.218,0,0,1,42.61-4.922,5.478,5.478,0,0,1,43.9-8.808a4.43,4.43,0,0,1,3.4-1.384,4.168,4.168,0,0,1,2.987,1.087A3.953,3.953,0,0,1,51.312-7.26l-2,.479a2.124,2.124,0,0,0-.742-1.23A2.125,2.125,0,0,0,47.2-8.463a2.28,2.28,0,0,0-1.808.8,3.921,3.921,0,0,0-.694,2.591,4.2,4.2,0,0,0,.684,2.707,2.22,2.22,0,0,0,1.777.807,2.027,2.027,0,0,0,1.388-.513A2.978,2.978,0,0,0,49.377-3.685ZM52.781,0V-10.021h7.431v1.7H54.8V-6.1h5.031v1.688H54.8v2.728h5.6V0Zm20.3-.13h1.456a4.953,4.953,0,0,1-2.1,2.174,8.014,8.014,0,0,1-3.951.9,9.179,9.179,0,0,1-3.9-.762A5.13,5.13,0,0,1,62.15-.065a6.725,6.725,0,0,1-.8-3.237,7.324,7.324,0,0,1,.909-3.579,5.98,5.98,0,0,1,2.488-2.488,7.637,7.637,0,0,1,3.609-.831,6.757,6.757,0,0,1,3.063.67,4.737,4.737,0,0,1,2.047,1.9,5.327,5.327,0,0,1,.708,2.7A5.071,5.071,0,0,1,73.1-1.777,4.151,4.151,0,0,1,69.649,0a1.508,1.508,0,0,1-.854-.2.958.958,0,0,1-.383-.581A2.6,2.6,0,0,1,66.552,0a2.5,2.5,0,0,1-1.883-.783,2.886,2.886,0,0,1-.749-2.082,5.1,5.1,0,0,1,.9-2.933,3.275,3.275,0,0,1,2.8-1.613,1.97,1.97,0,0,1,1.8.93l.171-.759h1.8l-1.032,4.9a3.99,3.99,0,0,0-.1.6.367.367,0,0,0,.079.256.247.247,0,0,0,.188.085,1.559,1.559,0,0,0,.848-.4,3.784,3.784,0,0,0,1.128-1.395A4.055,4.055,0,0,0,72.943-5,3.684,3.684,0,0,0,71.727-7.81a4.8,4.8,0,0,0-3.4-1.131,6.113,6.113,0,0,0-3.141.755A4.8,4.8,0,0,0,63.247-6.06a6.561,6.561,0,0,0-.653,2.854,4.908,4.908,0,0,0,.728,2.625,4.233,4.233,0,0,0,2.044,1.726,7.834,7.834,0,0,0,3.011.543,7.792,7.792,0,0,0,2.81-.455A4.355,4.355,0,0,0,73.08-.13Zm-7.39-2.81a1.933,1.933,0,0,0,.352,1.278,1.1,1.1,0,0,0,.872.41,1.473,1.473,0,0,0,.731-.191,1.8,1.8,0,0,0,.513-.431,3.549,3.549,0,0,0,.625-1.217,4.786,4.786,0,0,0,.263-1.49,1.757,1.757,0,0,0-.359-1.186,1.148,1.148,0,0,0-.906-.414,1.584,1.584,0,0,0-1.087.455,2.8,2.8,0,0,0-.752,1.3A5.253,5.253,0,0,0,65.691-2.939Zm16.226-.745,1.962.622a4.4,4.4,0,0,1-1.5,2.437,4.28,4.28,0,0,1-2.663.8,4.311,4.311,0,0,1-3.281-1.364,5.218,5.218,0,0,1-1.285-3.729,5.478,5.478,0,0,1,1.292-3.886,4.43,4.43,0,0,1,3.4-1.384,4.168,4.168,0,0,1,2.987,1.087A3.953,3.953,0,0,1,83.851-7.26l-2,.479a2.124,2.124,0,0,0-.742-1.23,2.125,2.125,0,0,0-1.371-.451,2.28,2.28,0,0,0-1.808.8,3.921,3.921,0,0,0-.694,2.591,4.2,4.2,0,0,0,.684,2.707,2.22,2.22,0,0,0,1.777.807,2.027,2.027,0,0,0,1.388-.513A2.978,2.978,0,0,0,81.917-3.685Zm2.966-1.265a6.374,6.374,0,0,1,.458-2.57,4.717,4.717,0,0,1,.933-1.374,3.9,3.9,0,0,1,1.3-.9,5.5,5.5,0,0,1,2.16-.4,4.705,4.705,0,0,1,3.544,1.374A5.266,5.266,0,0,1,94.6-5a5.249,5.249,0,0,1-1.319,3.8A4.669,4.669,0,0,1,89.757.171,4.717,4.717,0,0,1,86.2-1.193,5.175,5.175,0,0,1,84.883-4.949Zm2.085-.068a3.755,3.755,0,0,0,.786,2.581,2.561,2.561,0,0,0,2,.878,2.539,2.539,0,0,0,1.986-.872,3.83,3.83,0,0,0,.776-2.615,3.768,3.768,0,0,0-.755-2.57,2.556,2.556,0,0,0-2.006-.848,2.573,2.573,0,0,0-2.017.858A3.786,3.786,0,0,0,86.968-5.018ZM96.091,0V-10.021H98.06l4.1,6.692v-6.692h1.88V0h-2.03l-4.04-6.535V0Zm9.943-10.021h3.7a7.222,7.222,0,0,1,1.907.191,3.351,3.351,0,0,1,1.511.923,4.378,4.378,0,0,1,.957,1.624,7.4,7.4,0,0,1,.328,2.369,6.586,6.586,0,0,1-.308,2.133,4.418,4.418,0,0,1-1.073,1.771,3.557,3.557,0,0,1-1.422.8A6.122,6.122,0,0,1,109.842,0h-3.808Zm2.023,1.7v6.638h1.511a5.513,5.513,0,0,0,1.224-.1,1.868,1.868,0,0,0,.817-.417,2.122,2.122,0,0,0,.53-.967A6.538,6.538,0,0,0,112.344-5a5.987,5.987,0,0,0-.205-1.784,2.293,2.293,0,0,0-.574-.971,1.926,1.926,0,0,0-.937-.472,9.174,9.174,0,0,0-1.661-.1ZM124.642,0h-2.2l-.875-2.276H117.56L116.733,0h-2.146l3.9-10.021h2.14Zm-3.726-3.965-1.381-3.719-1.354,3.719ZM125.584,0V-10.021h2.023V0Zm3.9,0V-10.021h4.259a7.289,7.289,0,0,1,2.334.27,2.3,2.3,0,0,1,1.166.96,2.887,2.887,0,0,1,.438,1.579,2.675,2.675,0,0,1-.663,1.863,3.184,3.184,0,0,1-1.982.926,4.721,4.721,0,0,1,1.083.841,11.421,11.421,0,0,1,1.152,1.627L138.5,0h-2.42l-1.463-2.181a14.145,14.145,0,0,0-1.066-1.473,1.553,1.553,0,0,0-.608-.417,3.335,3.335,0,0,0-1.019-.113h-.41V0Zm2.023-5.783h1.5a7.731,7.731,0,0,0,1.818-.123,1.09,1.09,0,0,0,.567-.424,1.3,1.3,0,0,0,.205-.752,1.2,1.2,0,0,0-.27-.817,1.239,1.239,0,0,0-.762-.393q-.246-.034-1.477-.034H131.51Z" transform="translate(354.152 292.529)" fill="#0063aa"/>
    </g>
  </g>
</svg>
