<svg id="Page-1" xmlns="http://www.w3.org/2000/svg" width="34.602" height="34.544" viewBox="0 0 34.602 34.544">
  <g id="_013---Research-Market-Data" data-name="013---Research-Market-Data" transform="translate(0 0)">
    <path id="Shape" d="M29.851,22a6.8,6.8,0,1,0,6.8,6.8A6.8,6.8,0,0,0,29.851,22Zm-4.761,5.123,3.089-3.089a.618.618,0,1,1,.874.874L25.963,28a.618.618,0,0,1-.874-.874Zm7.669-2.215-6.8,6.8a.618.618,0,0,1-.874-.874l6.8-6.8a.618.618,0,0,1,.874.874Z" transform="translate(-9.427 -8.462)" fill="#fff"/>
    <path id="Shape-2" data-name="Shape" d="M26.709,10.536a10.306,10.306,0,0,1,7.029,0h.81A11.106,11.106,0,0,0,24.7.089a.613.613,0,0,0-.67.618l.014,9.828Z" transform="translate(-9.8 -0.087)" fill="#fff"/>
    <path id="Shape-3" data-name="Shape" d="M11.529,4.73a.623.623,0,0,0-.708-.613A11.23,11.23,0,0,0,3.634,7.985a11.072,11.072,0,0,0,.221,14.6l7.674-7.671ZM2.886,15.78a.618.618,0,1,1,.618-.618A.618.618,0,0,1,2.886,15.78ZM9.27,7.008A8.682,8.682,0,0,0,5.554,9.57a8.539,8.539,0,0,0-1.742,3.283.618.618,0,1,1-1.192-.328A9.779,9.779,0,0,1,4.612,8.771,9.924,9.924,0,0,1,8.857,5.846.618.618,0,1,1,9.27,7.01Z" transform="translate(-0.996 -1.625)" fill="#fff"/>
    <path id="Shape-4" data-name="Shape" d="M52.8,49.588l-3.777-3.035-1.434,1.438,3.023,3.791a1.572,1.572,0,0,0,1.142.605,1.525,1.525,0,0,0,1.187-.452,1.548,1.548,0,0,0,.46-1.2,1.581,1.581,0,0,0-.6-1.145Z" transform="translate(-18.805 -17.846)" fill="#fff"/>
    <path id="Shape-5" data-name="Shape" d="M15.256,23H14.72L7.043,30.677a11.044,11.044,0,0,0,6.139,2.755q.494.054.988.066A10.414,10.414,0,0,1,15.256,23Z" transform="translate(-3.307 -8.844)" fill="#fff"/>
    <path id="Shape-6" data-name="Shape" d="M28.322,18a9.267,9.267,0,1,0,9.267,9.267A9.267,9.267,0,0,0,28.322,18Zm0,17.3a8.031,8.031,0,1,1,8.031-8.031A8.031,8.031,0,0,1,28.322,35.3Z" transform="translate(-7.898 -6.933)" fill="#fff"/>
    <path id="Shape-7" data-name="Shape" d="M46.228,44.119a10.639,10.639,0,0,1-1.062,1.062l.723.908,1.241-1.244Z" transform="translate(-17.878 -16.916)" fill="#fff"/>
  </g>
</svg>
