<svg id="Group_1" data-name="Group 1" xmlns="http://www.w3.org/2000/svg" xmlns:xlink="http://www.w3.org/1999/xlink" width="15.011" height="15.011" viewBox="0 0 15.011 15.011">
  <defs>
    <clipPath id="clip-path">
      <rect id="Rectangle_2685" data-name="Rectangle 2685" width="15.011" height="15.011" fill="none"/>
    </clipPath>
  </defs>
  <g id="Group_4050" data-name="Group 4050" clip-path="url(#clip-path)">
    <path id="Path_812" data-name="Path 812" d="M16.786,58.564V58.09c0-.743-.585-1.28-1.723-1.58a8.793,8.793,0,0,0-1.47-.253.97.97,0,0,0,.016-.221,1.288,1.288,0,0,0-.632-1.106V53.666c0-.742-.585-1.28-1.723-1.58a10.506,10.506,0,0,0-2.7-.316c-1.328,0-4.424.19-4.424,1.9v1.58a1.288,1.288,0,0,0,.632,1.106v.3a1.341,1.341,0,0,0-.632,1.122v1.58c0,.743.585,1.28,1.722,1.58a10.485,10.485,0,0,0,2.7.316c0,.742.585,1.279,1.722,1.58a10.485,10.485,0,0,0,2.7.316c1.327,0,4.424-.19,4.424-1.9v-1.58a1.239,1.239,0,0,0-.616-1.106m-.948-.474c0,.521-1.549.948-3.477.948s-3.477-.427-3.477-.948,1.549-.948,3.477-.948,3.477.426,3.477.948M7.621,56.162V55.53c.205.016.411.032.632.032v.632c-.221-.015-.427-.015-.632-.031m1.264.031v-.632c.19,0,.411-.016.632-.032v.632c-.205.016-.411.016-.632.031m1.265-.11v-.616c.2-.032.426-.063.632-.095v.6c-.19.047-.411.079-.632.111m1.264-.3v-.569a3.807,3.807,0,0,0,.632-.253v.284c0,.205-.237.4-.632.538m-1.9,4.424c-.4-.158-.632-.348-.632-.538v-.284a3.31,3.31,0,0,0,.632.237Zm-.948-7.489c1.928,0,3.476.426,3.476.948s-1.548.948-3.476.948-3.477-.427-3.477-.948,1.548-.948,3.477-.948m-1.58,2.749V56.1c-.221-.031-.443-.063-.632-.11v-.616c.205.032.411.063.632.095m-1.9-.506a3.275,3.275,0,0,0,.632.237v.585c-.4-.158-.632-.348-.632-.538Zm.632,4.93c-.4-.158-.632-.348-.632-.538v-.284a3.274,3.274,0,0,0,.632.237Zm0-2.275v-.284a3.282,3.282,0,0,0,.632.237v.585c-.4-.142-.632-.332-.632-.537m1.264,2.575c-.221-.032-.443-.064-.632-.111v-.616c.205.032.411.079.632.095Zm0-2.449c.205.032.411.079.632.095v.632c-.221-.032-.442-.064-.632-.111Zm.632,1.9c.111,0,.205.015.316.015v.016a1.16,1.16,0,0,0,.158.616c-.158,0-.316-.016-.474-.032Zm2.529,2.148c-.4-.158-.632-.347-.632-.537v-.032h.016a.368.368,0,0,0,.127.032,4.52,4.52,0,0,0,.49.111Zm0-1.39V59.78c.2.032.41.079.632.095v.632c-.221-.031-.442-.063-.632-.11m1.264,1.69c-.221-.032-.443-.063-.632-.111V61.47c.205.032.411.048.632.064Zm0-2.133c.205.016.41.032.632.032v.632c-.221,0-.426-.016-.632-.031ZM12.678,62.2c-.221,0-.427-.016-.632-.032v-.6h.632Zm0-1.58v-.632c.19,0,.411-.016.632-.032v.632c-.205.015-.411.015-.632.031m1.264,1.548c-.205.016-.411.032-.632.032v-.632c.19,0,.411-.015.632-.031Zm0-2.275.632-.095v.6c-.19.047-.41.079-.632.11Zm1.264,2.085c-.19.048-.411.079-.632.111V61.47l.632-.095Zm0-1.769v-.569a3.813,3.813,0,0,0,.632-.253v.284c0,.205-.237.4-.632.538M16.47,61.25c0,.205-.237.4-.632.537v-.569a3.76,3.76,0,0,0,.632-.253Z" transform="translate(-2.881 -49.874)" fill="#d0dfe5"/>
  </g>
</svg>
