<svg xmlns="http://www.w3.org/2000/svg" width="127.562" height="76.535" viewBox="0 0 127.562 76.535">
  <g id="Group_1" data-name="Group 1" transform="translate(-1116.15 -186.417)">
    <path id="Path_1" data-name="Path 1" d="M1885.62,397.258l-14.79.132V377.4s8.353.928,11.264,5.754C1884.911,387.825,1885.62,397.258,1885.62,397.258Zm-.763-15.573c-5.68-9.421-23.57-12.849-23.57-12.849v41.443h-89.955v14.306h.056a11.5,11.5,0,0,1,22.947,0h3.813a11.5,11.5,0,0,1,22.947,0h42.135a11.5,11.5,0,0,1,22.947,0h3.976S1890.354,390.8,1884.857,381.685Z" transform="translate(-647 -175)" fill="none" stroke="#0063aa" stroke-miterlimit="3.864" stroke-width="1.109"/>
    <path id="Path_2" data-name="Path 2" d="M1798.121,425.673A11.483,11.483,0,1,1,1809.6,437.4,11.605,11.605,0,0,1,1798.121,425.673Z" transform="translate(-647 -175)" fill="none" stroke="#0063aa" stroke-miterlimit="3.864" stroke-width="1.109"/>
    <path id="Path_3" data-name="Path 3" d="M1863.264,425.673a11.483,11.483,0,1,1,11.481,11.725A11.605,11.605,0,0,1,1863.264,425.673Z" transform="translate(-647 -175)" fill="none" stroke="#0063aa" stroke-miterlimit="3.864" stroke-width="1.109"/>
    <path id="Path_4" data-name="Path 4" d="M1771.337,425.673a11.483,11.483,0,1,1,11.479,11.725A11.6,11.6,0,0,1,1771.337,425.673Z" transform="translate(-647 -175)" fill="none" stroke="#0063aa" stroke-miterlimit="3.864" stroke-width="1.109"/>
    <rect id="Rectangle_1" data-name="Rectangle 1" width="94.91" height="45.586" transform="translate(1116.704 186.972)" fill="none" stroke="#0063aa" stroke-miterlimit="3.864" stroke-width="1.109"/>
  </g>
</svg>
