<svg xmlns="http://www.w3.org/2000/svg" width="23.351" height="23.352" viewBox="0 0 23.351 23.352">
  <path id="Icon_ionic-ios-person" data-name="Icon ionic-ios-person" d="M27.84,27.262c-.438-1.934-2.937-2.876-3.8-3.181a28.337,28.337,0,0,0-3.168-.608,3.219,3.219,0,0,1-1.466-.675,12.809,12.809,0,0,1-.1-3A9.02,9.02,0,0,0,20,18.481a17.022,17.022,0,0,0,.511-2.3s.5,0,.675-.876a8.616,8.616,0,0,0,.45-2.037c-.036-.7-.42-.681-.42-.681a10.662,10.662,0,0,0,.414-3.12c.055-2.5-1.9-4.962-5.449-4.962-3.594,0-5.51,2.463-5.455,4.962a11.121,11.121,0,0,0,.407,3.12s-.383-.018-.42.681a8.616,8.616,0,0,0,.45,2.037c.17.876.675.876.675.876a17.021,17.021,0,0,0,.511,2.3,9.02,9.02,0,0,0,.693,1.32,12.809,12.809,0,0,1-.1,3,3.219,3.219,0,0,1-1.466.675,28.337,28.337,0,0,0-3.168.608c-.864.3-3.363,1.247-3.8,3.181a.486.486,0,0,0,.48.59H27.366A.485.485,0,0,0,27.84,27.262Z" transform="translate(-4.501 -4.5)" fill="#094a94"/>
</svg>
