<svg xmlns="http://www.w3.org/2000/svg" xmlns:xlink="http://www.w3.org/1999/xlink" width="28.313" height="28.312" viewBox="0 0 28.313 28.312">
  <defs>
    <clipPath id="clip-path">
      <rect id="Rectangle_2" data-name="Rectangle 2" width="28.313" height="28.312" transform="translate(958.144 113.42)" fill="none"/>
    </clipPath>
  </defs>
  <g id="Group_4" data-name="Group 4" transform="translate(-958.144 -113.42)">
    <g id="Group_3" data-name="Group 3" clip-path="url(#clip-path)">
      <path id="Path_6" data-name="Path 6" d="M974.806,120.56a7.583,7.583,0,0,1,4.864,4.668l-.9-.534a.583.583,0,0,0-.662.961.558.558,0,0,0,.079.046l2.042,1.211a.584.584,0,0,0,.365.128h.131a.579.579,0,0,0,.356-.269l1.278-2.15a.584.584,0,0,0-1.007-.583l-.539.919a8.739,8.739,0,0,0-3.825-4.695,8.889,8.889,0,0,0-1.835-.817.584.584,0,0,0-.348,1.115"/>
      <path id="Path_7" data-name="Path 7" d="M964.02,129.806a.582.582,0,0,0,.569.449.554.554,0,0,0,.134-.017.584.584,0,0,0,.423-.7,7.559,7.559,0,0,1,.875-5.6,7.755,7.755,0,0,1,.8-1.114l.017.017v1.068a.583.583,0,1,0,1.167,0l.024-2.474a.583.583,0,0,0-.584-.584l-2.477-.023a.584.584,0,0,0,0,1.167H966a8.869,8.869,0,0,0-1,1.342,8.709,8.709,0,0,0-.98,6.466"/>
      <path id="Path_8" data-name="Path 8" d="M977.756,133.3a7.607,7.607,0,0,1-6.638,1.941l.928-.526a.584.584,0,1,0-.583-1.012l-2.145,1.217a.583.583,0,0,0-.219.795h0l1.229,2.151a.586.586,0,0,0,1.015-.584l-.522-.91a8.753,8.753,0,0,0,7.746-2.227.583.583,0,0,0-.767-.879l-.035.033Z"/>
      <path id="Path_9" data-name="Path 9" d="M968.355,132.864a2.334,2.334,0,1,1-2.334-2.334,2.334,2.334,0,0,1,2.334,2.334"/>
      <path id="Path_10" data-name="Path 10" d="M982.506,130.868a2.334,2.334,0,1,1-2.334-2.334,2.334,2.334,0,0,1,2.334,2.334"/>
      <path id="Path_11" data-name="Path 11" d="M973.826,119.725a2.334,2.334,0,1,1-2.334-2.334,2.334,2.334,0,0,1,2.334,2.334"/>
    </g>
  </g>
</svg>
