<svg id="_001-analysis" data-name="001-analysis" xmlns="http://www.w3.org/2000/svg" width="33.758" height="31.723" viewBox="0 0 33.758 31.723">
  <path id="Path_1608" data-name="Path 1608" d="M183.911,9.826l.248.7h6.393L190.3,9.266A11.53,11.53,0,0,0,181.262.256L180,0V6.368A5.681,5.681,0,0,1,183.911,9.826Z" transform="translate(-167.367 0)" fill="#fff"/>
  <path id="Path_1609" data-name="Path 1609" d="M59.46,187.843a11.576,11.576,0,0,0,18.756-6.581L78.472,180H72.079c-.085.12-.952,4.211-5.212,4.211a5.229,5.229,0,0,1-2.9-.874Z" transform="translate(-55.287 -167.367)" fill="#fff"/>
  <path id="Path_1610" data-name="Path 1610" d="M7.19,14.482a5.235,5.235,0,0,1-.873-2.9c0-4.16,4.186-5.194,4.211-5.212V0L9.266.256A11.555,11.555,0,0,0,2.685,18.987Z" fill="#fff"/>
  <path id="Path_1611" data-name="Path 1611" d="M391,242h6.317v14.739H391Z" transform="translate(-363.558 -225.016)" fill="#fff"/>
  <path id="Path_1612" data-name="Path 1612" d="M271,392h6.316v4.211H271Z" transform="translate(-251.98 -364.488)" fill="#fff"/>
  <path id="Path_1613" data-name="Path 1613" d="M151,362h6.317v6.316H151Z" transform="translate(-140.402 -336.594)" fill="#fff"/>
  <path id="Path_1614" data-name="Path 1614" d="M31,422h6.317v2.106H31Z" transform="translate(-28.824 -392.383)" fill="#fff"/>
</svg>
