<svg xmlns="http://www.w3.org/2000/svg" width="19.205" height="19.205" viewBox="0 0 19.205 19.205">
  <g id="settings" transform="translate(0 0)">
    <path id="Path_1632" data-name="Path 1632" d="M10.2,19.2H9a1.77,1.77,0,0,1-1.768-1.768v-.408a7.753,7.753,0,0,1-1.2-.5l-.289.289a1.768,1.768,0,0,1-2.5,0l-.852-.852a1.768,1.768,0,0,1,0-2.5l.289-.289a7.754,7.754,0,0,1-.5-1.2H1.768A1.77,1.77,0,0,1,0,10.205V9A1.77,1.77,0,0,1,1.768,7.232h.408a7.755,7.755,0,0,1,.5-1.2l-.289-.289a1.768,1.768,0,0,1,0-2.5l.852-.852a1.768,1.768,0,0,1,2.5,0l.289.289a7.76,7.76,0,0,1,1.2-.5V1.768A1.77,1.77,0,0,1,9,0h1.205a1.77,1.77,0,0,1,1.768,1.768v.408a7.753,7.753,0,0,1,1.2.5l.289-.289a1.768,1.768,0,0,1,2.5,0l.852.852a1.768,1.768,0,0,1,0,2.5l-.289.289a7.754,7.754,0,0,1,.5,1.2h.408A1.77,1.77,0,0,1,19.2,9v1.205a1.77,1.77,0,0,1-1.768,1.768h-.408a7.755,7.755,0,0,1-.5,1.2l.289.289a1.768,1.768,0,0,1,0,2.5l-.852.852a1.768,1.768,0,0,1-2.5,0l-.289-.289a7.76,7.76,0,0,1-1.2.5v.408A1.77,1.77,0,0,1,10.2,19.2ZM6.216,15.348a6.632,6.632,0,0,0,1.719.714.563.563,0,0,1,.422.545v.831A.643.643,0,0,0,9,18.079h1.205a.643.643,0,0,0,.643-.643v-.831a.563.563,0,0,1,.422-.545,6.632,6.632,0,0,0,1.719-.714.563.563,0,0,1,.684.086l.588.588a.642.642,0,0,0,.909,0l.852-.852a.643.643,0,0,0,0-.909l-.589-.589a.563.563,0,0,1-.086-.684,6.631,6.631,0,0,0,.714-1.719.563.563,0,0,1,.545-.422h.831a.643.643,0,0,0,.643-.643V9a.643.643,0,0,0-.643-.643h-.831a.563.563,0,0,1-.545-.422,6.632,6.632,0,0,0-.714-1.719.563.563,0,0,1,.086-.684l.588-.588a.642.642,0,0,0,0-.909l-.852-.852a.643.643,0,0,0-.909,0l-.589.589a.563.563,0,0,1-.684.086,6.632,6.632,0,0,0-1.719-.714.563.563,0,0,1-.422-.545V1.768a.643.643,0,0,0-.643-.643H9a.643.643,0,0,0-.643.643V2.6a.563.563,0,0,1-.422.545,6.632,6.632,0,0,0-1.719.714.563.563,0,0,1-.684-.086l-.588-.588a.642.642,0,0,0-.909,0l-.852.852a.643.643,0,0,0,0,.909l.589.589a.563.563,0,0,1,.086.684,6.631,6.631,0,0,0-.714,1.719.563.563,0,0,1-.545.422H1.768A.643.643,0,0,0,1.125,9v1.205a.643.643,0,0,0,.643.643H2.6a.563.563,0,0,1,.545.422,6.632,6.632,0,0,0,.714,1.719.563.563,0,0,1-.086.684l-.588.588a.642.642,0,0,0,0,.909l.852.852a.643.643,0,0,0,.909,0l.589-.589a.565.565,0,0,1,.684-.086Z" fill="#009dce"/>
    <path id="Path_1633" data-name="Path 1633" d="M148.779,152.957a4.179,4.179,0,1,1,4.179-4.179A4.183,4.183,0,0,1,148.779,152.957Zm0-7.232a3.053,3.053,0,1,0,3.053,3.053A3.057,3.057,0,0,0,148.779,145.725Z" transform="translate(-139.176 -139.176)" fill="#009dce"/>
  </g>
</svg>
