<svg xmlns="http://www.w3.org/2000/svg" width="15.178" height="15.182" viewBox="0 0 15.178 15.182">
  <path id="Icon_ionic-ios-settings" data-name="Icon ionic-ios-settings" d="M18.425,12.089a1.953,1.953,0,0,1,1.253-1.822,7.742,7.742,0,0,0-.937-2.257,1.979,1.979,0,0,1-.794.17,1.949,1.949,0,0,1-1.783-2.743A7.718,7.718,0,0,0,13.911,4.5a1.951,1.951,0,0,1-3.644,0,7.742,7.742,0,0,0-2.257.937A1.949,1.949,0,0,1,6.227,8.18a1.915,1.915,0,0,1-.794-.17A7.913,7.913,0,0,0,4.5,10.271a1.953,1.953,0,0,1,0,3.644,7.742,7.742,0,0,0,.937,2.257,1.95,1.95,0,0,1,2.573,2.573,7.787,7.787,0,0,0,2.257.937,1.948,1.948,0,0,1,3.636,0,7.742,7.742,0,0,0,2.257-.937,1.952,1.952,0,0,1,2.573-2.573,7.787,7.787,0,0,0,.937-2.257A1.962,1.962,0,0,1,18.425,12.089Zm-6.3,3.158a3.162,3.162,0,1,1,3.162-3.162A3.161,3.161,0,0,1,12.125,15.247Z" transform="translate(-4.5 -4.5)" fill="#fff"/>
</svg>
