<svg xmlns="http://www.w3.org/2000/svg" width="36.262" height="42.37" viewBox="0 0 36.262 42.37">
  <g id="Group_4843" data-name="Group 4843" transform="translate(-1629.792 -116.941)">
    <path id="Path_1856" data-name="Path 1856" d="M1637.13,126.47q-.8-1.4-1.588-2.777c-.443-.776-.394-.949.391-1.4.629-.361,1.256-.725,1.884-1.086.707-.408.913-.354,1.312.342q.786,1.368,1.574,2.734a.355.355,0,0,0,.054.065c.777-.256,1.536-.544,2.316-.752.8-.214,1.619-.339,2.425-.527.129-.029.319-.179.325-.284.033-.53.016-1.064.016-1.659-.4,0-.769,0-1.134,0-.516-.008-.744-.213-.751-.72q-.018-1.357,0-2.715c.006-.506.236-.743.738-.745q3.244-.01,6.486,0a.64.64,0,0,1,.723.714q.021,1.38,0,2.76c-.006.486-.235.695-.72.705-.367.008-.735,0-1.16,0,0,.6-.011,1.162.011,1.72,0,.079.155.208.25.221a18.639,18.639,0,0,1,4.812,1.328c.544-.944,1.083-1.877,1.62-2.813.425-.738.6-.789,1.335-.367.706.4,1.413.808,2.113,1.222a.645.645,0,0,1,.278,1.037c-.56.991-1.131,1.977-1.707,2.98,5.125,4.094,7.684,9.385,7.28,15.948a17.337,17.337,0,0,1-5.9,12.17,18.049,18.049,0,0,1-25.428-1.037,17.651,17.651,0,0,1-4.81-14.08A17.977,17.977,0,0,1,1637.13,126.47Zm10.783,31.579a16.948,16.948,0,1,0-16.881-16.982A16.943,16.943,0,0,0,1647.913,158.049Zm2.727-39.831h-5.423v1.634h5.423Zm-11.015,6.7c-.489-.854-.951-1.657-1.43-2.492l-1.463.841c.5.866.965,1.679,1.437,2.5Zm19.5-1.649c-.5-.288-.966-.558-1.463-.844-.48.84-.946,1.653-1.428,2.494l1.458.845C1658.166,124.938,1658.628,124.133,1659.123,123.273Zm-10.381-2.121h-1.628V122.9h1.628Z" fill="#fff"/>
    <path id="Path_1857" data-name="Path 1857" d="M1633.828,141.1a14.1,14.1,0,1,1,14.11,14.119A14.134,14.134,0,0,1,1633.828,141.1Zm20.045,11.407c-.257-.443-.49-.838-.717-1.237-.243-.432-.192-.765.142-.968s.672-.086.922.326.476.811.73,1.244a12.8,12.8,0,0,0,3.759-3.8c-.435-.252-.831-.478-1.225-.712-.411-.244-.539-.583-.356-.918s.539-.4.961-.168.817.465,1.255.715a12.463,12.463,0,0,0,1.4-5.261c-.493,0-.933.006-1.374,0-.53-.009-.8-.224-.8-.623s.264-.616.8-.621c.451,0,.9,0,1.387,0a12.5,12.5,0,0,0-1.445-5.341c-.46.269-.866.514-1.278.744a.636.636,0,0,1-.93-.178c-.189-.323-.078-.655.307-.892.412-.252.83-.5,1.271-.758a12.938,12.938,0,0,0-3.782-3.769c-.256.439-.49.85-.733,1.255s-.584.535-.917.335-.382-.553-.148-.971.466-.813.7-1.216a10.94,10.94,0,0,0-5.243-1.385c0,.453,0,.912,0,1.37-.005.475-.24.766-.613.771s-.623-.288-.628-.755,0-.944,0-1.453a12.677,12.677,0,0,0-5.32,1.453c.246.427.485.833.715,1.243.241.428.185.764-.153.965s-.666.08-.918-.339c-.243-.4-.476-.81-.725-1.236a12.748,12.748,0,0,0-3.756,3.8c.442.258.841.483,1.232.72.41.249.524.6.32.925s-.527.381-.93.158-.818-.467-1.259-.719a12.475,12.475,0,0,0-1.4,5.265c.338,0,.631.011.922,0,.963-.044,1.224.1,1.244.616.016.391-.1.7-1.219.635-.3-.018-.609,0-.951,0a12.538,12.538,0,0,0,1.442,5.34c.445-.261.837-.5,1.234-.722.415-.235.779-.174.97.153s.074.666-.341.92c-.4.245-.8.48-1.227.731a12.816,12.816,0,0,0,3.781,3.766c.255-.438.488-.85.732-1.255s.558-.508.885-.329.41.55.182.963-.467.815-.72,1.253a12.647,12.647,0,0,0,5.262,1.416c0-.511,0-.969,0-1.427,0-.479.234-.768.607-.776.388-.009.631.292.635.795,0,.467,0,.935,0,1.417A12.852,12.852,0,0,0,1653.873,152.509Z" fill="#fff"/>
    <path id="Path_1858" data-name="Path 1858" d="M1647.307,135.2c0-.9,0-1.809,0-2.714,0-.488.224-.764.6-.775.4-.011.636.274.637.784,0,1.795.006,3.589,0,5.384,0,.294.04.466.374.577a2.6,2.6,0,0,1,1.662,1.672.445.445,0,0,0,.506.354c1.732-.013,3.463-.007,5.195-.005a3.278,3.278,0,0,1,.486.022.608.608,0,0,1-.015,1.207,3.447,3.447,0,0,1-.443.015c-1.732,0-3.463.007-5.194-.005a.467.467,0,0,0-.539.366,2.791,2.791,0,0,1-3.057,1.831,2.856,2.856,0,0,1-2.418-2.488,2.822,2.822,0,0,1,1.845-2.975.462.462,0,0,0,.366-.537C1647.294,137.008,1647.307,136.1,1647.307,135.2Zm.626,4.312a1.591,1.591,0,1,0,1.592,1.618A1.595,1.595,0,0,0,1647.933,139.511Z" fill="#fff"/>
  </g>
</svg>
