<svg id="Icon_ionic-ios-timer" data-name="Icon ionic-ios-timer" xmlns="http://www.w3.org/2000/svg" width="20.031" height="20.036" viewBox="0 0 20.031 20.036">
  <path id="Path_1515" data-name="Path 1515" d="M13.955,23.973A10.018,10.018,0,0,1,7,6.743.8.8,0,1,1,8.12,7.9a8.407,8.407,0,1,0,6.637-2.314V8.721a.806.806,0,1,1-1.613,0V4.744a.806.806,0,0,1,.806-.806,10.018,10.018,0,0,1,.005,20.036Z" transform="translate(-3.938 -3.938)" fill="#094a94"/>
  <path id="Path_1516" data-name="Path 1516" d="M12.047,11.346l4.984,3.581a1.508,1.508,0,0,1-1.753,2.454,1.456,1.456,0,0,1-.351-.351l-3.581-4.984a.5.5,0,0,1,.7-.7Z" transform="translate(-6.041 -6.041)" fill="#094a94"/>
</svg>
