<svg xmlns="http://www.w3.org/2000/svg" width="22.453" height="22.453" viewBox="0 0 22.453 22.453">
  <g id="Group_4859" data-name="Group 4859" transform="translate(2 -4)">
    <path id="Path_1619" data-name="Path 1619" d="M161.808,152.586a9.222,9.222,0,1,0,9.222,9.222A9.222,9.222,0,0,0,161.808,152.586Zm3.863,1.729.695.4-.4.695-.695-.4Zm-7.725,0,.4.7-.695.4-.4-.695Zm-3.755,7.894h-.8v-.8h.8Zm.526,4.156-.4-.695.7-.4.4.695Zm.294-8.019-.7-.4.4-.695.695.4Zm2.935,10.954-.695-.4.4-.7.695.4Zm4.264.927h-.8v-.8h.8Zm3.462-.927-.4-.7.695-.4.4.7Zm-2.486-8.3a1.584,1.584,0,0,1,.227.81,1.6,1.6,0,0,1-1.419,1.585l-2.908,2.909a1.251,1.251,0,1,1-1.77-1.77l2.909-2.908a1.589,1.589,0,0,1,.382-.865v-6.167a1.2,1.2,0,0,1,2.406,0v5.447l4.528-4.528.567.567Zm5.715,5.367-.7-.4.4-.695.7.4Zm-.294-8.019-.4-.695.7-.4.4.695Zm.82,3.863v-.8h.8v.8Zm0,0" transform="translate(-152.581 -146.581)" fill="#e3f4ff"/>
    <path id="Path_1620" data-name="Path 1620" d="M11.227,0A11.227,11.227,0,1,0,22.453,11.227,11.227,11.227,0,0,0,11.227,0Zm0,21.25A10.024,10.024,0,1,1,21.25,11.227,10.024,10.024,0,0,1,11.227,21.25Zm0,0" transform="translate(-2 4)" fill="#e3f4ff"/>
  </g>
</svg>
