<svg xmlns="http://www.w3.org/2000/svg" width="48.665" height="29.49" viewBox="0 0 48.665 29.49">
  <g id="Group_4246" data-name="Group 4246" transform="translate(15476.215 4473.013)">
    <path id="Path_1526" data-name="Path 1526" d="M144.137,500.761l-5.562.049v-7.527s3.141.349,4.236,2.167C143.87,497.208,144.137,500.761,144.137,500.761Zm-.287-5.864c-2.136-3.547-8.864-4.838-8.864-4.838v15.606h-33.83v5.387h.021a4.325,4.325,0,0,1,8.63,0h1.434a4.325,4.325,0,0,1,8.63,0h15.846a4.325,4.325,0,0,1,8.63,0h1.5S145.918,498.329,143.85,494.9Z" transform="translate(-15573.949 -4959.942)" fill="none" stroke="#fff" stroke-miterlimit="3.864" stroke-width="1.109"/>
    <path id="Path_1527" data-name="Path 1527" d="M130.922,544.621a4.335,4.335,0,1,1,4.335,4.426A4.381,4.381,0,0,1,130.922,544.621Z" transform="translate(-15593.65 -4993.125)" fill="none" stroke="#fff" stroke-miterlimit="3.864" stroke-width="1.109"/>
    <path id="Path_1528" data-name="Path 1528" d="M203.3,544.621a4.335,4.335,0,1,1,4.334,4.426A4.381,4.381,0,0,1,203.3,544.621Z" transform="translate(-15641.555 -4993.125)" fill="none" stroke="#fff" stroke-miterlimit="3.864" stroke-width="1.109"/>
    <path id="Path_1529" data-name="Path 1529" d="M101.161,544.621a4.335,4.335,0,1,1,4.334,4.426A4.381,4.381,0,0,1,101.161,544.621Z" transform="translate(-15573.953 -4993.125)" fill="none" stroke="#fff" stroke-miterlimit="3.864" stroke-width="1.109"/>
    <rect id="Rectangle_2970" data-name="Rectangle 2970" width="35.702" height="17.17" transform="translate(-15475.66 -4472.458)" fill="none" stroke="#fff" stroke-miterlimit="3.864" stroke-width="1.109"/>
    <path id="Path_1530" data-name="Path 1530" d="M106.929,548.527a2.384,2.384,0,1,1,2.383,2.436A2.41,2.41,0,0,1,106.929,548.527Z" transform="translate(-15577.771 -4997.027)" fill="none" stroke="#fff" stroke-miterlimit="3.864" stroke-width="1.109"/>
    <path id="Path_1531" data-name="Path 1531" d="M209.07,548.527a2.384,2.384,0,1,1,2.384,2.436A2.41,2.41,0,0,1,209.07,548.527Z" transform="translate(-15645.372 -4997.027)" fill="none" stroke="#fff" stroke-miterlimit="3.864" stroke-width="1.109"/>
    <path id="Path_1532" data-name="Path 1532" d="M136.69,548.527a2.384,2.384,0,1,1,2.384,2.436A2.41,2.41,0,0,1,136.69,548.527Z" transform="translate(-15597.468 -4997.027)" fill="none" stroke="#fff" stroke-miterlimit="3.864" stroke-width="1.109"/>
  </g>
</svg>
