<svg xmlns="http://www.w3.org/2000/svg" width="90.729" height="20.313" viewBox="0 0 90.729 20.313">
  <path id="Path_1849" data-name="Path 1849" d="M3.717,0,2.75-15.748H4.888L5.253-7.96q.032.559.107,3.029.021.688.021.967,0,.183-.011,1.063Q6.682-5.586,7.262-6.682l4.791-9.066h2.17l.526,9.206q.086,1.579.118,3.8.193-.548.688-1.633.784-1.751,1.16-2.5l4.49-8.873h2.148L15.34,0H13.084l-.526-9.539q-.075-1.225-.118-3.008-.655,1.493-1.1,2.32L5.887,0ZM28.789-1.418A7.729,7.729,0,0,1,26.845-.145a4.993,4.993,0,0,1-2,.4A3.52,3.52,0,0,1,22.3-.671a3.156,3.156,0,0,1-.967-2.379,3.261,3.261,0,0,1,.435-1.692,3.41,3.41,0,0,1,1.155-1.182,5.084,5.084,0,0,1,1.762-.639,19.67,19.67,0,0,1,2.487-.2A8.89,8.89,0,0,0,29.8-7.154a5.029,5.029,0,0,0,.226-1.321,1.276,1.276,0,0,0-.494-1.063,3.126,3.126,0,0,0-1.977-.537,3.429,3.429,0,0,0-2,.542,3.063,3.063,0,0,0-1.133,1.542l-1.966-.172a5.133,5.133,0,0,1,1.907-2.6,5.658,5.658,0,0,1,3.292-.9A5.141,5.141,0,0,1,31-10.656,2.382,2.382,0,0,1,31.947-8.7a9.869,9.869,0,0,1-.269,2.116l-.634,2.836a10.624,10.624,0,0,0-.3,2.2A7.373,7.373,0,0,0,30.98,0H29.015A7.17,7.17,0,0,1,28.789-1.418Zm.72-4.361a4.689,4.689,0,0,1-.875.247q-.467.086-1.563.183a11.964,11.964,0,0,0-2.4.381,2.005,2.005,0,0,0-1.053.736,1.9,1.9,0,0,0-.354,1.117,1.756,1.756,0,0,0,.564,1.343,2.266,2.266,0,0,0,1.606.526,3.69,3.69,0,0,0,1.858-.51A3.707,3.707,0,0,0,28.7-3.18,8.263,8.263,0,0,0,29.509-5.779Zm6.585-7.767.462-2.2h1.934l-.462,2.2ZM33.258,0l2.385-11.408h1.944L35.2,0Zm9.507-1.579L42.442.011a5.341,5.341,0,0,1-1.354.183,2.807,2.807,0,0,1-1.848-.569,1.443,1.443,0,0,1-.516-1.171A11.756,11.756,0,0,1,39-3.276L40.391-9.9H38.854l.312-1.5H40.7l.591-2.8,2.224-1.343-.87,4.146h1.912l-.322,1.5h-1.9L41.014-3.6a11.8,11.8,0,0,0-.247,1.439.679.679,0,0,0,.2.526.946.946,0,0,0,.65.183A4.66,4.66,0,0,0,42.765-1.579Zm4.329-11.967.462-2.2h1.934l-.462,2.2ZM44.258,0l2.385-11.408h1.944L46.2,0Zm4.963,0,2.385-11.408h1.762l-.419,1.987A9.327,9.327,0,0,1,55.1-11.129a4.263,4.263,0,0,1,2.041-.537,3.025,3.025,0,0,1,2.175.752,2.644,2.644,0,0,1,.79,2.009,11.207,11.207,0,0,1-.279,2L58.373,0H56.429l1.515-7.229a8.292,8.292,0,0,0,.226-1.558,1.187,1.187,0,0,0-.392-.924,1.635,1.635,0,0,0-1.133-.354,3.814,3.814,0,0,0-2.659,1.074,6.86,6.86,0,0,0-1.713,3.685L51.165,0ZM61.349,1.031l1.966.183a2,2,0,0,0,.161,1,1.211,1.211,0,0,0,.58.516,3.356,3.356,0,0,0,1.364.236,3.153,3.153,0,0,0,2.535-.913A6.95,6.95,0,0,0,68.89-.612l.193-.924A4.5,4.5,0,0,1,65.86,0a3.766,3.766,0,0,1-2.9-1.273,5.146,5.146,0,0,1-1.166-3.6,7.013,7.013,0,0,1,.918-3.534A6.873,6.873,0,0,1,64.9-10.844a4.74,4.74,0,0,1,2.61-.822,3.8,3.8,0,0,1,3.459,2.127l.387-1.869h1.783L70.845-.4a9.175,9.175,0,0,1-.988,2.831,4.156,4.156,0,0,1-1.7,1.574,5.45,5.45,0,0,1-2.519.559,7.065,7.065,0,0,1-2.369-.354,2.992,2.992,0,0,1-1.482-1.037,2.615,2.615,0,0,1-.489-1.563A3.427,3.427,0,0,1,61.349,1.031Zm2.428-6.08A5.216,5.216,0,0,0,64-3.287a2.744,2.744,0,0,0,.918,1.262,2.2,2.2,0,0,0,1.327.435,3.264,3.264,0,0,0,1.9-.671A4.656,4.656,0,0,0,69.679-4.34a6.991,6.991,0,0,0,.585-2.686,3.147,3.147,0,0,0-.779-2.24,2.534,2.534,0,0,0-1.928-.833,2.733,2.733,0,0,0-1.375.381,4.12,4.12,0,0,0-1.241,1.16,5.569,5.569,0,0,0-.87,1.864A6.875,6.875,0,0,0,63.776-5.049ZM76.119,0l.462-2.2h2.2L78.311,0Zm7.348,0,.462-2.2h2.2L85.669,0Zm7.358,0,.462-2.2h2.191L93.017,0Z" transform="translate(-2.75 15.748)" fill="#d8d8d8"/>
</svg>
